<svg xmlns="http://www.w3.org/2000/svg" fill="none" class="max-w-full self-start" viewBox="0 0 646 96">
  <linearGradient id="GMoqjP4j2b" gradientUnits="userSpaceOnUse" x1="10.8" x2="98.9" y1="98.3" y2="-1">
    <stop offset=".1" stop-color="#9945ff"/>
    <stop offset=".3" stop-color="#8752f3"/>
    <stop offset=".5" stop-color="#5497d5"/>
    <stop offset=".6" stop-color="#43b4ca"/>
    <stop offset=".7" stop-color="#28e0b9"/>
    <stop offset="1" stop-color="#19fb9b"/>
  </linearGradient>
  <clipPath id="GMoqjP4j2a">
    <path d="M0 0h646v96H0z"/>
  </clipPath>
  <g clip-path="url(#GMoqjP4j2a)">
    <path d="M108.5 75.7l-17.7 19a4.1 4.1 0 01-3 1.3h-84a2 2 0 01-1.5-3.5l17.7-19a4.1 4.1 0 013-1.3h84a2 2 0 011.5 3.5zM90.8 37.4a4.1 4.1 0 00-3-1.3h-84a2 2 0 00-1.5 3.5l17.7 19a4.1 4.1 0 003 1.3h84a2 2 0 001.5-3.5zm-87-13.6h84a4.1 4.1 0 003-1.3l17.7-19A2 2 0 00107 0H23a4.1 4.1 0 00-3 1.3l-17.7 19a2 2 0 001.5 3.5z" fill="url(#GMoqjP4j2b)"/>
    <path d="M211 40.6h-45V25.8h56.6V11H166a14.8 14.8 0 00-15 14.7v15a14.8 14.8 0 0014.9 14.7h45v14.8H152V85h58.8a14.8 14.8 0 0014.9-14.7v-15a14.8 14.8 0 00-14.9-14.7zM298 11h-45.1A14.8 14.8 0 00238 25.7v44.6A14.8 14.8 0 00252.9 85H298a14.8 14.8 0 0014.9-14.7V25.7A14.8 14.8 0 00298 11zm-.1 59.2H253V25.8h44.9zM456 11h-44a14.8 14.8 0 00-14.9 14.7V85h15V60.7H456V85h15V25.7A14.8 14.8 0 00456 11zm-.1 34.9H412V25.8h43.8zM631.1 11h-44a14.8 14.8 0 00-14.8 14.7V85h15V60.7H631V85h15V25.7A14.8 14.8 0 00631.2 11zm-.1 34.9h-43.8V25.8H631zm-87 24.3h-6l-21.4-53a9.9 9.9 0 00-9.2-6.2H494a9.8 9.8 0 00-10 9.8V85h15V25.8h6l21.5 53a10 10 0 009.2 6.2H549a9.8 9.8 0 0010-9.8V11h-15zM341.1 11h-15v59.3A14.8 14.8 0 00341 85h45V70.2h-44.9z" fill="#fff"/>
  </g>
</svg>
