<svg fill="none" xmlns="http://www.w3.org/2000/svg" viewBox="0 0 8 9">
  <path d="M4.44 8.544C1.991 8.544 0 6.626 0 4.269 0 1.91 1.991 0 4.44 0c.952 0 1.88.298 2.656.85A1 1 0 015.93 2.475 2.571 2.571 0 004.44 2C3.094 2 2 3.021 2 4.275S3.094 6.55 4.44 6.55c.533 0 1.054-.165 1.489-.474a1 1 0 111.167 1.625 4.586 4.586 0 01-2.656.843z" fill="url(#Wj_8VtycvHhda)"/>
  <defs>
    <linearGradient id="Wj_8VtycvHhda" x1="0" y1="4.272" x2="7.513" y2="4.272" gradientUnits="userSpaceOnUse">
      <stop stop-color="#FF8965"/>
      <stop offset="1" stop-color="#FF6757"/>
    </linearGradient>
  </defs>
</svg>
