<svg fill="#000" viewBox="0 0 129.921 129.921" version="1.1" xml:space="preserve" xmlns="http://www.w3.org/2000/svg">
  <path d="M88.557 123.903c-3.222 0-5.528-.286-7.97-.589-1.38-.171-2.807-.348-4.505-.486a22.112 22.112 0 00-1.75-.064c-2.104 0-4.522.231-6.862.455-2.405.229-4.676.446-6.741.446-21.071 0-35.051-27.23-35.051-45.242 0-24.963 21.808-45.272 48.614-45.272 26.802 0 48.606 20.31 48.606 45.273 0 15.362-10.37 45.479-34.341 45.479zm-14.225-7.084c.809 0 1.539.027 2.231.083 1.824.148 3.314.333 4.755.512 2.353.292 4.385.544 7.239.544 20.226 0 28.396-27.9 28.396-39.535 0-21.685-19.138-39.328-42.662-39.328-23.528 0-42.668 17.642-42.668 39.327 0 7.911 3.293 17.993 8.392 25.685 3.369 5.084 10.54 13.612 20.714 13.612 1.782 0 3.916-.204 6.176-.419 2.477-.236 5.04-.481 7.427-.481z"/>
  <path d="M72.723 58.44c-.385 0-.771-.014-1.156-.042-8.033-.583-13.014-7.148-13.223-7.428a2.973 2.973 0 014.759-3.563c.073.095 3.664 4.706 8.94 5.063 3.631.247 7.401-1.564 11.216-5.379a2.973 2.973 0 114.204 4.204c-4.745 4.746-9.698 7.145-14.74 7.145z"/>
  <path d="M71.224 56.855a2.965 2.965 0 01-2.609-1.551c-.111-.204-2.716-5.075-3.133-12.103-.385-6.486 1.065-16.146 10.155-25.334a2.973 2.973 0 014.226 4.182C65.576 36.487 73.5 51.831 73.845 52.477a2.977 2.977 0 01-2.621 4.378z"/>
  <path d="M59.757 43.113c-7.193 0-13.492-2.709-17.736-7.626-5.952-6.895-6.9-17.219-2.476-26.944l.567-1.246 1.316-.379c2.86-.823 5.739-1.241 8.557-1.241 7.193 0 13.492 2.708 17.736 7.625 5.952 6.895 6.9 17.219 2.476 26.944l-.567 1.247-1.316.379c-2.859.823-5.738 1.241-8.557 1.241zM44.415 12.281c-2.831 7.186-2.063 14.491 2.106 19.322 3.098 3.588 7.798 5.564 13.236 5.564 1.827 0 3.695-.221 5.57-.659 2.832-7.187 2.064-14.49-2.105-19.321-3.099-3.589-7.799-5.565-13.237-5.565a24.452 24.452 0 00-5.57.659z"/>
</svg>
