<svg xmlns="http://www.w3.org/2000/svg" data-name="Layer 1" viewBox="0 0 528 400">
  <path d="M0 12C0 5.37 5.37 0 12 0h504c6.63 0 12 5.37 12 12v376c0 6.63-5.37 12-12 12H12c-6.63 0-12-5.37-12-12V12z" fill="#2b2e7c"/>
  <path d="M0 12C0 5.37 5.37 0 12 0h504c6.63 0 12 5.37 12 12v20H0V12z" fill="#e9ebff"/>
  <circle cx="16" cy="16" r="4" fill="#040307"/>
  <circle cx="28" cy="16" r="4" fill="#040307"/>
  <circle cx="40" cy="16" r="4" fill="#040307"/>
  <path d="M303 146h154c1.66 0 3 1.34 3 3s-1.34 3-3 3H303c-1.66 0-3-1.34-3-3s1.34-3 3-3zm0 14h92c1.66 0 3 1.34 3 3s-1.34 3-3 3h-92c-1.66 0-3-1.34-3-3s1.34-3 3-3z" fill="#7187a5"/>
  <path d="M303 190h66c1.66 0 3 1.34 3 3s-1.34 3-3 3h-66c-1.66 0-3-1.34-3-3s1.34-3 3-3zm0 14h55c1.66 0 3 1.34 3 3s-1.34 3-3 3h-55c-1.66 0-3-1.34-3-3s1.34-3 3-3z" fill="#d3e0f1"/>
  <rect x="300" y="234" width="72" height="24" rx="4" ry="4" fill="#fff"/>
  <path d="M323 243h26c1.66 0 3 1.34 3 3s-1.34 3-3 3h-26c-1.66 0-3-1.34-3-3s1.34-3 3-3z" fill="#aeeade"/>
  <path d="M131.33 160.81c-.09.92 1.08-.03 2.04.53 1.08.63.05.91-.27 1.24-2.08 2.19-3.15 1.13-4.98 2.84-.34-3.24-.39-4.12 3.2-4.62z" fill="#2494cf"/>
  <path d="M162.43 164.36c-.1.64 1.37.09 1.24 1.24-.42.1-.83.25-1.24.36-.31-.41-2.04.12-2.75.53-.25-.43-.59-.93-.98-1.24 1.26-.23 2.49-.59 3.73-.89z" fill="#31a5cf"/>
  <path d="M162.43 164.36c-1.24.3-2.47.66-3.73.89-1.23-1-4.21-4-5.15-5.15-.31-.38-2.3-2.87-2.04-3.2 2.43-.48 15.06-4.52 16.17-4.27l9.51 7.91c-4.78 1.69-9.82 2.62-14.75 3.82z" fill="#fefefe"/>
  <path d="M163.67 165.61c.13-1.15-1.34-.6-1.24-1.24 4.93-1.2 9.97-2.13 14.75-3.82l-9.51-7.91c-1.11-.25-13.74 3.78-16.17 4.27-.26.33 1.73 2.82 2.04 3.2-2.81 1.79-8.8 1.8-12.35 3.2-3.21-1.46-4.71-1.3-8.09-.71.32-.33 1.35-.62.27-1.24-.97-.56-2.13.39-2.04-.53 34.18-9.48 68.31-19.17 102.65-28.08.62 1.46 6.04 13 5.51 13.51-25.31 6.26-50.51 13.03-75.81 19.37z" fill="#31c7fe"/>
  <path d="M191.14 146.05h.71l8.98 8.26c.01.87-15.21 4.06-16.8 4.35l-8.8-7.91c.01-.13 1.44-.89 1.69-.98.69-.26 13.48-3.74 14.22-3.73zm17.06-4.26h.53c.92.92 8.8 7.35 8.62 7.91-1.46.65-10.38 3.3-11.11 3.11l-8.09-8.09 10.04-2.93zm17.24-4.62l8.98 8.26c-1.45.56-9.94 3.09-10.58 2.93-2.72-2.61-5.47-5.19-8.09-7.91.15-.69 8.52-2.66 9.69-3.29z" fill="#fefefe"/>
  <path d="M257.34 181.07l-10.66-.18c.01-.16-.18-.18-.18-.36-.02-1.44.99-7.18.89-9.42-.02-.46-.36-1.24-.36-1.78 2.23.04 8.73-.64 9.95 1.33 1.16 1.88.35 8.02.36 10.4z" fill="#030205"/>
  <path d="M242.59 169.34c-.3 2.08.94.73 1.07 1.6-4.95-.01-9.89.01-14.84 0-.4.52-.21.99-.27 1.24-.82-1.36.92-1.36.71-2.84 4.44.01 8.89-.04 13.33 0zm-70.03.18c-.27 1.66-.7 1.34-.71 1.42-2.96.02-5.93-.03-8.89 0 .1-.92 1.95.48 1.78-1.42 2.61.04 5.21 0 7.82 0z" fill="#2494cf"/>
  <path d="M247.03 169.34c0 .53.34 1.32.36 1.78-1.15-.32-2.53-.17-3.73-.18-.13-.87-1.37.48-1.07-1.6 1.48.01 2.96-.02 4.44 0zm-82.29.18c.17 1.9-1.68.5-1.78 1.42-1.29.01-2.57-.19-2.67.36.18-.44.44-1.01.18-1.78 1.42.04 2.85-.02 4.27 0z" fill="#31a5cf"/>
  <path d="M158.7 165.25c.39.32.72.81.98 1.24.71-.41 2.45-.94 2.75-.53-1.42.35-2.85.59-4.18 1.24-12.43 1.89-7.93 2.04 2.22 2.31.26.77 0 1.34-.18 1.78-.7 1.73-4.75 8.1-4.8 9.24v.53c-8.17-.04-16.35-.34-24.53-.18-.46-4.67-2.38-10.99-2.84-15.46 1.83-1.71 2.89-.66 4.98-2.84 3.38-.58 4.88-.75 8.09.71 3.55-1.39 9.54-1.41 12.35-3.2.94 1.16 3.92 4.15 5.15 5.15z" fill="#030205"/>
  <path d="M137.99 170.94c.82-.05 2.84 1.32 2.93 1.69.23.95-2.3 3.46-4 1.87-1.45-1.36-.38-3.46 1.07-3.55zm-.53-6.4c2.8-.68 3.87 2.3 2.13 3.38-3.02 1.86-5.05-2.67-2.13-3.38zm7.46 6.4c2.63-.6 2.59 3.3.71 3.73-2.91.67-2.39-3.35-.71-3.73z" fill="#f4f4ff"/>
  <path d="M229.26 169.34c.2 1.49-1.53 1.48-.71 2.84-.2.84-1.33 7.52-1.24 7.91.05.22.07.3.27.44h18.93c0 .17.19.19.18.36-30.39-.04-60.79.34-91.18.18v-.53h16.97l.27-.27c-.09-1.46-.96-8.87-.89-9.33.01-.09.44.24.71-1.42 18.9.05 37.8-.24 56.7-.18z" fill="#31c7fe"/>
  <path d="M181.18 170.76l15.46.18.09 9.15-15.55.27v-9.6zm25.42.18c2.58-.33 10.24.25 13.86 0 .72.32-.31 7.93-.09 9.15l-15.02.27-.27-9.15c.49-.01 1.1-.21 1.51-.27z" fill="#fefefe"/>
  <path d="M155.5 181.07c30.39.16 60.79-.22 91.18-.18l10.66.18v3.02h-126.2c.05-1.07-.07-2.14-.18-3.2 8.18-.16 16.35.13 24.53.18z" fill="#75e6db"/>
  <path d="M257.34 184.09c0 9.28.51 66.14 0 69.59-.39 2.61-2.41 3.87-4.89 4.18-39.4-.43-78.81-.04-118.2-.18-1.43-.71-2.85-2.19-3.11-3.82-.67-4.22.49-59.44 0-69.76h126.2z" fill="#52c5cf"/>
  <path d="M136.39 236.17c1.52-.78 29.94.6 34.13 0l.09 1.33q-17.11.13-34.22.27c-.49-.22-.24-1.48 0-1.6zm.89-5.69c5.52.3 30-.4 31.99 0 1.13.22 1.05.35.98 1.51l-33.5.09c-.2-.79-.24-1.27.53-1.6zm-.89 8.89c4.21.52 32.06-.68 33.59 0 .4.18.24.81.27 1.16l-34.04.09.18-1.24zm-.53-44.08c4.32.69 32.23-.5 33.77.18.43.19.23.96.27 1.33-4.17.07-31.57.78-33.15.27-.37-.12-1.15-1.63-.89-1.78zm.53 3.38c1.51-.67 28.93.51 33.06 0l.27.98-33.33.27c-.39-.17-.39-1.07 0-1.24zm.71-9.96c.99-.7 21.42.54 24.35 0 1.04.32.44 1.55.36 1.6-1.07.59-21.25-.53-24.35.18-.73-.27-.45-1.71-.36-1.78zm3.02 61.5c1.23-.36 17.99.33 21.51 0 .36.18.34 1.35.27 1.51-.45 1-19.58-.57-21.95.09-.66-.56-.74-1.33.18-1.6z" fill="#fefefe"/>
  <path d="M150.17 228.17c0 .26.03.59 0 .62-.44.5-12.37.42-13.15-.09-.05-.24.02-.64.27-.71.62-.18 10.99 0 12.89.18z" fill="#a0daca"/>
  <path d="M150.17 228.17c-1.89-.17-12.27-.36-12.89-.18-.24.07-.31.47-.27.71-.69-.45-.21-1.6.27-1.78.6-.22 11.02.54 12.8.18-.25 1.18.11.32.09 1.07z" fill="#31a5cf"/>
  <path d="M209.8 185.16c10.54-.81 20.46 2.72 27.46 10.75 17.86 20.48 3.53 54.15-25.15 53.23-27.58-.89-39.64-32.94-24.08-52.52 5.09-6.41 13.62-10.84 21.77-11.46z" fill="#a0daca"/>
  <path d="M211.22 188c22.92-1.17 38.21 22.68 27.28 43.1-9.71 18.15-34.91 19.99-47.46 4.62-14.66-17.95-4.05-46.48 20.17-47.72z" fill="#52c5cf"/>
  <path d="M211.75 191.73c16.39-.61 30.46 13.73 25.86 32.08-5.55 22.16-36.24 24.73-46.39 6.58-9.34-16.71.9-37.93 20.53-38.66z" fill="#c8feec"/>
  <path d="M210.69 198.67c22.04-2.03 27.22 25.44 11.73 33.77-14.05 7.56-30.56-4.22-26.93-20.88 1.44-6.6 8.59-12.28 15.2-12.89z" fill="#fefefe"/>
  <text transform="translate(441.95 20)" font-family="MyriadPro-Regular,'Myriad Pro'" font-size="12">
    <tspan x="0" y="0">choi</tspan><tspan x="21.43" y="0" letter-spacing="0">c</tspan><tspan x="26.74" y="0" letter-spacing="-.01em">e</tspan><tspan x="32.6" y="0" letter-spacing="0">.ai</tspan>
  </text>
</svg>
