<svg xmlns="http://www.w3.org/2000/svg" xmlns:xlink="http://www.w3.org/1999/xlink" data-name="Layer 1" viewBox="0 0 528 400.72">
  <path d="M0 12.72c0-6.63 5.37-12 12-12h504c6.63 0 12 5.37 12 12v376c0 6.63-5.37 12-12 12H12c-6.63 0-12-5.37-12-12v-376z" fill="#2b2e7c"/>
  <path d="M0 12.72c0-6.63 5.37-12 12-12h504c6.63 0 12 5.37 12 12v20H0v-20z" fill="#e9ebff"/>
  <circle cx="16" cy="16.72" r="4" fill="#040307"/>
  <circle cx="28" cy="16.72" r="4" fill="#040307"/>
  <circle cx="40" cy="16.72" r="4" fill="#040307"/>
  <path d="M303 146.72h154c1.66 0 3 1.34 3 3s-1.34 3-3 3H303c-1.66 0-3-1.34-3-3s1.34-3 3-3zm0 14h92c1.66 0 3 1.34 3 3s-1.34 3-3 3h-92c-1.66 0-3-1.34-3-3s1.34-3 3-3z" fill="#7187a5"/>
  <path d="M303 190.72h66c1.66 0 3 1.34 3 3s-1.34 3-3 3h-66c-1.66 0-3-1.34-3-3s1.34-3 3-3zm0 14h55c1.66 0 3 1.34 3 3s-1.34 3-3 3h-55c-1.66 0-3-1.34-3-3s1.34-3 3-3z" fill="#d3e0f1"/>
  <rect x="300" y="234.72" width="72" height="24" rx="4" ry="4" fill="#fff"/>
  <path d="M323 243.72h26c1.66 0 3 1.34 3 3s-1.34 3-3 3h-26c-1.66 0-3-1.34-3-3s1.34-3 3-3z" fill="#aeeade"/>
  <path d="M78.59 240.18s.24.61.46.62c25.91.6 51.9-.95 77.82-.31 9.68.57 19.39.3 29.08.31 17.64.02 35.27-.42 52.91-.31 1.56 0 5.56-.64 5.88.15.55 7.38-7.91 10.91-14.23 10.37H87.87c-2.03.04-3.86.08-5.88-.31-4.22-.82-9.72-5.98-8.51-10.53 2.74.62 4.85 0 5.11 0z" fill="#ace9e0"/>
  <path d="M128.1 235.54c9.64.38 19.28-.11 28.93 0 .25 0 .12.62.15.62l-.31 4.34c-25.92-.64-51.9.9-77.82.31-.23 0-.43-.62-.46-.62-.28-1.95.31-4.12.31-4.34 16.4-.1 32.8-.2 49.2-.31zm111.07.31c-.08 1.51.29 3.28-.31 4.64-17.64-.11-35.27.33-52.91.31l.31-4.64c17.62.05 35.28-.68 52.91-.31z" fill="#140e1e"/>
  <path d="M217.21 165.87c3.47 4.5 6.66 9.19 10.21 13.62-7.59-.43-15.3.45-22.9-.15 3.95-4.68 7.82-9.69 12.69-13.47z" fill="#e1e1ec"/>
  <path d="M184.41 235.85c1.55 0 1.76.31 1.86.31l-.31 4.64c-9.69 0-19.4.26-29.08-.31l.31-4.34c.24 0 1.32-.62 1.39-.62 8.62.09 17.21.29 25.84.31z" fill="#2a1d5a"/>
  <path d="M217.21 165.87c-4.86 3.78-8.73 8.79-12.69 13.47 7.6.61 15.3-.28 22.9.15 4.51.26 11 .86 12.07 6.66.63 3.41.02 43.47-.31 49.7-17.63-.37-35.29.36-52.91.31-.09 0-.31-.31-1.86-.31 5.61-1.87 21.34-3 25.53-5.88 4.55-3.14 4.47-10.54-2.01-11.77-6.36-1.2-27.08.6-31.4-.62-9.34-2.63-4.66-20.44-4.64-27.25h-26.92c.23 6.17 4.11 25.76-4.95 27.56-3.83.76-30.11-.87-34.34.62-3.1 1.09-5.73 8.17-.15 11.77 4.7 3.03 16.85 3.83 22.59 5.26-16.4.1-32.8.2-49.2.31 0-8.28-1.12-45.2-.31-49.7 1.67-9.24 17.49-6.05 18.72-6.66 11.15-30.75 41.06-64.71 77.04-50.16 17.4 7.03 31.62 21.99 42.85 36.54h-.01z" fill="#fcfcfe"/>
  <path d="M157.95 133.97c11.46-1.68 10.67 13.87 6.96 20.59-.28.52-5.3 3.6-1.24 10.53 1.45 2.47 5.7 4.35 8.35 5.26l-.15 13.47-26.76-.15v-13.01c2.79-2.03 8.25-3.14 8.97-7.12.11-.62.14-6.79 0-7.12-.23-.57-1.78-.44-2.48-1.55-.54-.86-2.87-9.03-1.86-13.31.78-3.29 4.86-7.1 8.2-7.59zm15.78 36.54c1.79.03 5.23 1.32 6.03 2.94 1 2.04 2.54 21.45 4.64 26.32.84 1.42 12.65 8.89 14.7 9.75 4.53 1.92 18.54 3.96 18.41 6.35-.37 6.49-33.6-4.78-37.75-10.53-3.88-5.38-7.23-27.46-6.03-34.84zm-31.56 0c.55 0 1.13-.11 1.39.15.48 8.82-2.21 33.21-10.06 37.93-2.56 1.54-26.75 9.52-29.39 9.6-4.71.14-5.59-2.58-4.95-3.41 1.12-1.44 15.11-2.3 26.3-9.6 6.43-4.2 6.82-4.26 8.51-11.61 2.4-10.42.71-23.16 8.2-23.07z" fill="#2a1d5a"/>
  <path d="M225.25 230.89c-.13-.1-.88-.31-.93-.31 0-.35.58-.6.62-.77.96-4.3-.96-32.08 0-33.44.17-.23 1.33-.21 1.39-.15 1.33 1-.7 29.39.15 33.29-.36.72-.64.92-1.24 1.39h.01z" fill="#8c8ba0"/>
  <path d="M224.32 230.58s.8.21.93.31c-1.31 1.03-6.44 1.34-7.89.93-4.03-1.14 3.27-.58 4.95-.62.11 0 1.03-.53 2.01-.62z" fill="#564e63"/>
  <path d="M93.44 230.89c.04.11-.02.4 0 .62-.98-.35-1.37-.83-1.86-1.7.74-4.08-.97-32.08 0-33.44.18-.25 1.37-.25 1.55 0 .04 7-.97 29.57-.31 33.75.01.08.44.34.62.77z" fill="#8c8ba0"/>
  <path d="M93.44 231.51c-.02-.22.04-.51 0-.62 13.39-.22 3.65 1.91 0 .62z" fill="#564e63"/>
  <g fill="#2a1d5a">
    <path d="M207.92 218.2c-.14.93 1.69.77 2.32 1.24 3.2 2.35 2.06 7.64.31 9.29-2.94 2.77-11.45 2.79-15.16 4.64-2.01-2.22-2.3-.91-5.26-1.24-9.6-1.06-12.86.06-10.67-4.34 9.3-.28 18.69-1.55 28-1.86 2.73-.85 3.13-2.41 1.55-4.64-34.45-.57-68.89-.83-103.34 0-2.73-3.09-3.46 2.85-.31 4.95 2.88 1.93 19.07 1.13 23.67 1.24-.4 1.86-6.35 3.56-9.75 6.19-3.11-1.39-7-1.54-10.21-2.48-1.47-.43-3.85-2.16-3.56-.93-5.57-3.59-2.94-10.68.15-11.77 4.24-1.49 30.52.14 34.34-.62 9.06-1.8 5.18-21.39 4.95-27.56h26.92c-.02 6.81-4.7 24.62 4.64 27.25 4.32 1.22 25.05-.58 31.4.62v.02z"/>
    <path d="M184.41 235.85c-8.62-.02-17.22-.22-25.84-.31-.08 0-1.15.62-1.39.62-.03 0 .1-.62-.15-.62-9.65-.11-19.29.38-28.93 0-5.74-1.44-17.89-2.23-22.59-5.26-.3-1.23 2.09.5 3.56.93 3.21.94 7.1 1.09 10.21 2.48 3.4-2.63 9.34-4.34 9.75-6.19 12.66.29 39.3.64 50.43.31-2.18 4.39 1.08 3.28 10.67 4.34 2.96.33 3.25-.98 5.26 1.24 3.71-1.85 12.22-1.88 15.16-4.64 1.75-1.65 2.89-6.94-.31-9.29-.63-.46-2.46-.3-2.32-1.24 6.49 1.23 6.56 8.63 2.01 11.77-4.18 2.89-19.91 4.01-25.53 5.88v-.02z"/>
    <path d="M179.46 227.8c-11.13.33-37.77-.02-50.43-.31-4.6-.1-20.79.69-23.67-1.24-3.15-2.11-2.42-8.05.31-4.95 34.45-.83 68.89-.57 103.34 0 1.59 2.24 1.18 3.8-1.55 4.64-9.31.31-18.7 1.58-28 1.86z"/>
  </g>
  <image width="1920" height="1280" transform="translate(441.28) scale(.03)" xlink:href="news_1696833227_1.5x1 (1).png"/>
</svg>
