<svg xmlns="http://www.w3.org/2000/svg" data-name="Layer 1" viewBox="0 0 528 400">
  <defs>
    <linearGradient id="IJqHrlZnCJlca" x1="172.42" y1="177.74" x2="177.69" y2="178.35" gradientUnits="userSpaceOnUse">
      <stop offset="0" stop-color="#209f81"/>
      <stop offset="1" stop-color="#09896a"/>
    </linearGradient>
  </defs>
  <path d="M0 12C0 5.37 5.37 0 12 0h504c6.63 0 12 5.37 12 12v376c0 6.63-5.37 12-12 12H12c-6.63 0-12-5.37-12-12V12z" fill="#f8fafd"/>
  <path d="M0 12C0 5.37 5.37 0 12 0h504c6.63 0 12 5.37 12 12v20H0V12z" fill="#d3e0f1"/>
  <circle cx="16" cy="16" r="4" fill="#7187a5"/>
  <circle cx="28" cy="16" r="4" fill="#7187a5"/>
  <circle cx="40" cy="16" r="4" fill="#7187a5"/>
  <path d="M303 146h154c1.66 0 3 1.34 3 3s-1.34 3-3 3H303c-1.66 0-3-1.34-3-3s1.34-3 3-3zm0 14h92c1.66 0 3 1.34 3 3s-1.34 3-3 3h-92c-1.66 0-3-1.34-3-3s1.34-3 3-3z" fill="#7187a5"/>
  <path d="M303 190h66c1.66 0 3 1.34 3 3s-1.34 3-3 3h-66c-1.66 0-3-1.34-3-3s1.34-3 3-3zm0 14h55c1.66 0 3 1.34 3 3s-1.34 3-3 3h-55c-1.66 0-3-1.34-3-3s1.34-3 3-3z" fill="#d3e0f1"/>
  <rect x="300" y="234" width="72" height="24" rx="4" ry="4" fill="#34cbad"/>
  <path d="M323 243h26c1.66 0 3 1.34 3 3s-1.34 3-3 3h-26c-1.66 0-3-1.34-3-3s1.34-3 3-3z" fill="#aeeade"/>
  <path d="M204.02 264.89c-.76 3.5-1.28 7.9-3.18 11.03-.53.86-2.33 2.8-3.18 3.39-1.54 1.08-4.39 2.13-6.26 2.33-2.84.31-54.23.28-57.07 0-2.03-.2-4.39-.91-6.05-2.12-3.14-2.29-5.03-7.12-6.36-10.61 3.81-.89 3.87 7.03 13.68 8.06 2.67.28 51.01.31 53.68 0 2.47-.29 6.55-2.22 8.49-3.82 2.76-2.28 3.95-5.81 6.26-8.49-.01.07.01.14 0 .21z" fill="#0e0f1f"/>
  <path d="M132.52 134.84c3.1-.33 37.6-.05 44.98 0 3.8.03 16.45-.23 17.93 0 1.28.2 3.04 1.41 3.92 2.33 1.36 1.42 2.24 3.4 2.55 5.3.57 3.52-.27 17.86.21 19.2.08.21.47 0 .64.21.05.07.34 1.92 1.06.85.46-.68-1.23-14.26 0-16.44.67 12.98-.08 26.04.42 39.04.05 1.34-.04 2.69 0 4.03-.73.68-.38-1.29-.42-1.38-.09-.17-.79-.42-1.27-1.27-.07-.13.35-1.57-1.27-2.02-.32-6.4-.96-12.81-1.27-19.2-.23-4.81-.19-19.87-.42-21.43-.32-2.13-2.23-4.59-4.35-5.2-10.84.63-55.68-1.02-61.31 0-.61.11-2.08 1.06-2.65 1.49-3.57 2.68-1.85 11.1-1.91 15.38-.15 10.61-.55 21.21-.64 31.82l-1.7.42c.78 2.5-.4 2.4-.42 2.55-.25 1.23.45 2.07-.85 4.46-.36 2.26.2 6.68-.95 6.9-1.69.32-.57-5.51-.53-8.38.13-8.33-.22-16.71 0-25.03.19-6.93 1.06-13.87 1.27-20.79.07-2.11.1-7.16-.42-8.59 2.05-2.47 4.13-3.9 7.43-4.24z" fill="#141e34"/>
  <path d="M203.81 146.29c-1.23 2.18.46 15.76 0 16.44-.72 1.07-1.01-.78-1.06-.85-.17-.22-.56 0-.64-.21-.48-1.34.35-15.68-.21-19.2 3.09-.27-.63-4.62-1.7-5.94-1.11-1.38-2.6-2.26-2.76-2.65-.39-.95-.15-2.01-.42-3.08-.2-.77-.41-1.56-1.27-1.91l.21-1.06c7.48 1.68 7.55 12.57 7.85 18.46zm-69.8-18.45c.09.64-.98 0 0 .85-1.51 1.05-1.29 1.54-1.49 2.55-.04.21-.19 1.77-.21 2.12-3.03.29-5.42 1.9-7.64 3.82 1.84-4.69 3.89-8.45 9.33-9.33z" fill="#293a5b"/>
  <path d="M218.02 194.24c.3 3.05.46 58.32-.21 61.31l-.11-.42c-.32.47-.74.59-1.17.85-.04-.29-.57-.25-.64-.53-.67-2.91.04-51.61-.64-59.72 2.15-.65 1.53 1.98 2.33-1.38.04-.16.28-.11.42-.11z" fill="#5b6a8a"/>
  <path d="M218.02 194.24c-.14 0-.39-.05-.42.11-.8 3.36-.19.73-2.33 1.38.21-1.48-.33-2.11-1.06-3.18-2.54-3.71-6.1-2.66-9.97-3.18-.04-1.34.05-2.69 0-4.03 6.21-.13 13.09 1.75 13.79 8.91z" fill="#697b9c"/>
  <g fill="#293a5b">
    <path d="M217.81 255.55c-1.18 5.26-8.04 2.69-11.67 3.39l-.85-.32c.35.06.44-.81.42-1.17 4.79-.33 6.69 1.08 10.82-1.49.42-.26.85-.38 1.17-.85l.11.42z"/>
    <path d="M214.2 192.54c.73 1.07 1.27 1.7 1.06 3.18.67 8.11-.04 56.81.64 59.72.06.28.59.24.64.53-4.13 2.56-6.03 1.16-10.82 1.49-.82-21.86-.02-43.8-1.06-65.66.2-.45 8.91-.91 9.55.74z"/>
  </g>
  <path d="M201.9 142.47c-.31-1.9-1.19-3.88-2.55-5.3l.85-.64c1.07 1.32 4.78 5.67 1.7 5.94zm-5.94-14.63l-.21 1.06c-2.93-1.19-53.74.24-61.74-.21-.98-.85.09-.21 0-.85 3.06-.5 58.93-.68 61.95 0z" fill="#445170"/>
  <path d="M132.31 133.35c-.03.56.05.96.21 1.49-3.3.35-5.38 1.77-7.43 4.24-.87 1.05-.85 1.91-1.7 1.27.26-1.15.85-2.11 1.27-3.18 2.22-1.92 4.61-3.53 7.64-3.82z" fill="#5b6a8a"/>
  <path d="M167.95 131.44c-.44.97-.31 1.22-.21 2.23-3.57 1.58 8.26.26 9.65.74.16.06.11.28.11.42-7.38-.05-41.88-.33-44.98 0-.16-.52-.24-.92-.21-1.49.02-.35.17-1.91.21-2.12 11.8.32 23.63.31 35.43.21z" fill="#5b6a8a"/>
  <path d="M197.02 130.81c.27 1.06.03 2.12.42 3.08.16.39 1.65 1.28 2.76 2.65l-.85.64c-.89-.93-2.64-2.13-3.92-2.33-1.47-.23-14.13.03-17.93 0 0-.15.06-.37-.11-.42-1.39-.48-13.22.83-9.65-.74-.1-1.01-.23-1.26.21-2.23 9.69-.08 19.38-.22 29.07-.64z" fill="#697b9c"/>
  <path d="M195.74 128.9c.86.35 1.08 1.14 1.27 1.91-9.69.41-19.37.56-29.07.64-11.8.09-23.63.1-35.43-.21.2-1.01-.03-1.5 1.49-2.55 8 .45 58.81-.98 61.74.21z" fill="#7f94b9"/>
  <path d="M201.68 199.76v4.46h-.85l-72.03-.21c-.54-.59-.1-2.57-.11-4.46l72.98.21z" fill="#036157"/>
  <path d="M201.26 184.69c.25 5-.04 10.06.42 15.06l-72.98-.21c-.06-10.48.65-21.02.85-31.51.09-4.76-.28-23.26 0-24.82.1-.55 1.13-2.3 1.7-2.86.57-.43 2.04-1.38 2.65-1.49 5.64-1.02 50.47.63 61.31 0 2.12.61 4.02 3.07 4.35 5.2.24 1.56.19 16.62.42 21.43.31 6.39.96 12.8 1.27 19.2z" fill="#097e68"/>
  <path d="M139.1 151.81h50.28c2.87.29 5.45 1.11 5.94 4.35.26 1.68.16 30.48-.21 32.04-.51 1.18-1.52 2.4-2.86 2.65-2.96.56-46.08-.42-54.52 0-1.51-.4-2.69-1.51-3.08-3.08-.38-1.56-1.03-26.61-1.27-31.82.92-2.97 2.8-3.71 5.73-4.14z" fill="#ebf0fb"/>
  <path d="M189.38 151.81H139.1c3.07-.45 46.19-.41 50.28 0z" fill="#d6f5fc"/>
  <path d="M164.56 183c-.02.05-.31.2-.42 1.06-3.54.34-3.05-.54-6.15-4.67-.12-.16-.63-1.6-1.8-2.55-1.2 1.72-3.39 3.47-4.56 5.09-8.99-.4-3.3-12.42-.53-4.24 5.72-8.45 4.53-9.27 9.97-.21.56.03 3.03-8.03 3.5-8.59 1.24-1.47 3.18-.59 3.18 1.27 0 .66-2.75 11.42-3.18 12.84z" fill="#0d9273"/>
  <path d="M171.88 175.15c.38-.1 7.47-.09 7.85 0 2.43.58 2.37 5.35 0 5.94-.39.1-7.68.13-8.06 0-2.16-.72-1.96-5.39.21-5.94z" fill="url(#IJqHrlZnCJlca)"/>
  <path d="M181 156.69c.79-.21 4.41.16 5.94 0l.53.53v5.52c-.2.45-6.37.42-6.68.32-.93-.3-1.49-5.9.21-6.36zm-18.46-.21c.85-.2.34 1.67.64 1.91 2.64-3.11 2.27.16 2.97 0 .27-.06.9-4.05 4.03-.21.86-1.99 7.61-1.96 7.11-.74-.28.69-2.45.09-2.86.32-.31.17.39 1.26-.21 1.27-.94.01-.51-3.33-4.24.42-2.9-4.67-3.07-.16-3.39 0-.78.39-1.44-1.44-1.7-1.49-.76-.14-2.02 2.4-2.33 2.55-.49-.12-.49-3.91 0-4.03z" fill="#71cbcf"/>
  <path d="M157.98 179.39c-.49 1.05-6.02 4.1-6.9 3.18-.27-.24.3-.31.53-.64 1.17-1.62 3.36-3.38 4.56-5.09 1.17.95 1.68 2.38 1.8 2.55z" fill="#b2becf"/>
  <path d="M155.54 156.48c1.04-.02.12 2.43.85 2.55.94-.56.67-2.58 2.12-2.12.86.27 4.37 7.39-.42.85-2.82 4.29-2.85 4.33-2.55-1.27zm-4.03.42c2.98 3.81 2.62 4.88 0 1.27-3.12 3.74-3.14 2.09 0-1.27z" fill="#71cbcf"/>
  <path d="M164.13 184.06c.12-.86.41-1.01.42-1.06-.08.94.89-.03.95 0 .29.13.22.91-1.38 1.06z" fill="#d1d8ea"/>
  <path d="M144.72 156.69c4.84-.69 5.39 6.02 0 5.09-2.97-.51-2.93-4.67 0-5.09z" fill="#43b8c2"/>
  <path d="M144.51 157.54c4.05-1 4.53 4.42.42 3.61-2.05-.41-2.34-3.14-.42-3.61z" fill="#cee5f1"/>
  <path d="M131.25 140.35c-.57.57-1.6 2.32-1.7 2.86-.28 1.56.09 20.07 0 24.82-.2 10.48-.91 21.03-.85 31.51.01 1.89-.43 3.87.11 4.46l72.03.21c2.14 19.01 1.09 38.27 1.49 57.39 1.47.57.77-1.56 1.27-2.33-.64-18.34.59-36.85-1.91-55.06v-4.46c-.46-5-.18-10.06-.42-15.06 1.63.44 1.2 1.88 1.27 2.02.48.85 1.19 1.11 1.27 1.27.04.08-.31 2.06.42 1.38 3.87.52 7.44-.53 9.97 3.18-.64-1.65-9.35-1.2-9.55-.74 1.04 21.86.24 43.8 1.06 65.66.01.35-.08 1.22-.42 1.17l.85.32c-.37.07-.74.04-1.06.32-.28 1.82-.67 3.61-1.06 5.41-2.31 2.68-3.5 6.2-6.26 8.49-1.93 1.6-6.02 3.53-8.49 3.82-2.67.31-51.01.28-53.68 0-9.82-1.03-9.87-8.95-13.68-8.06-.18-.48-.68-1.17-.85-1.7-.57-1.77-.96-3.62-1.49-5.41.44-31.6.74-63.25 2.12-94.83.23-5.27.94-23.32 1.7-26.63.85.64.83-.23 1.7-1.27.53 1.43.49 6.48.42 8.59-.22 6.92-1.09 13.86-1.27 20.79-.22 8.32.13 16.7 0 25.03-.04 2.87-1.16 8.7.53 8.38 1.16-.22.59-4.64.95-6.9 1.3-2.39.6-3.22.85-4.46.03-.14 1.2-.05.42-2.55l1.7-.42c.09-10.61.49-21.22.64-31.82.06-4.29-1.66-12.7 1.91-15.38z" fill="#141e34"/>
  <path d="M201.68 204.21c2.5 18.21 1.27 36.72 1.91 55.06-.51.77.2 2.91-1.27 2.33-.4-19.11.66-38.38-1.49-57.39h.85z" fill="#293a5b"/>
  <path d="M140.79 227.76c-2.84-1.61-6.63-.62-7.21 2.86-.5 2.97.64 17.45 0 22.91.83 5.84 7.57 4.55 8.49-.42.21-1.13.19-21.78 0-22.91-.07-.41-.94-2.04-1.27-2.44 1.03.59 2.31 2.04 2.55 3.29.17.89 0 8.99 0 11.35 0 2.5.16 5.16 0 7.64-.13 1.96-.02 3.58-1.06 5.41-1.43 2.5-4.27 3.61-6.9 2.44-1.18-.53-2.41-2.88-2.44-3.08-.2-1.25 0-24.06.42-25.25.71-2.02 5.14-4.58 7.43-1.8z" fill="#142b42"/>
  <path d="M199.77 226.91c.37 11.63.51 23.26.42 34.9-.36 1.47-4.04 3.1-5.41 3.29-2.93.4-56.26.42-59.19 0-4.03-.57-5.79-3.28-6.05-7 1.74-.05 3.57 2 4.99 2.33.61.15 10.34-.3 12.52-.21-2.22-5.59 2.85-4.77-.95-8.8-.17-2.39.93-4.86.64-5.09-.71-.55-.62.49-.74.53-.05.02-.47-.71-.74-.32-.94 1.37.59 1.18.64 1.27.44.97-1.64.33-1.7.42-.76 1.27 1.66.03.85 1.7-.04.08-1.2-.13-1.7.11.16-2.47 0-5.14 0-7.64 1.04-.36.71 2.07.95 2.12.21.04-.28-1.63 1.49 0 .14-2.23.04-4.62 1.8-6.26-2.68-3.82-.1-8.17-.64-12.31-.86-.23-4.52-2.18-4.77-2.23-.4-.08-6.06-.08-6.36 0-.74.19-4.52 4.83-3.5.74.89-3.57 13.45-1.43 16.44-2.02l.64.85c1.38-.2 9.75.26 10.18 0 .24-.14-.1-.77.42-1.06.26-.14 5.13-.38 5.94-.42 3.24-.16 28.06-.35 29.49 0 2.01.48 1.34 2.89 2.97 4.24.15.12.47-.49 1.38.85z" fill="#293a5b"/>
  <path d="M167 223.73c.81-.17 10.74-.04 11.46.21 2.33.82 2.73 5.57.21 6.15-.6.14-11.72.18-12.31 0-1.73-.52-2.21-5.75.64-6.36zm13.47 19.52c-.28.73-.91 1.89-1.7 2.12-.06.02-.14-.01-.21 0-2.6-.22-10.86.29-11.99 0-2.09-.54-2.12-5.12-.21-6.15 3.97.92 15.91-2.72 14.11 4.03zm-19.73 2.12h-12.31c-3.33-2.49-1.06-5.85.11-6.15.56-.15 11.1-.14 11.67 0 1.99.49 3.1 4.75.53 6.15zm19.73 6.37c-.19.35-1 1.18-1.38 1.27-.61.15-12 .11-12.62 0-2.18-1.48-2.37-4.81.11-5.94 4.42 1 16.24-3.04 13.9 4.67zm-31.51-20.37c.58-.14 11.31-.18 11.88 0 1.33.42 1.94 5.64 0 6.15-.58.16-11.51.15-12.09 0-2.26-.59-2.1-5.58.21-6.15zm17.19 23.55c.6-.16 11.91-.15 12.52 0 2.05.51 2.1 4.52.64 5.73-2.57-.21-12.45.28-13.37 0-1.55-.47-1.74-5.19.21-5.73zm-17.4-30.98c.55-.17 10.9-.14 11.46 0 2.28.57 2.53 5.57.21 6.15-.57.14-11.1.15-11.67 0-1.79-.46-1.58-5.68 0-6.15zm35.75 7.64h11.35c1.94 1.39 1.86 5.6-.64 6.15-.78.17-10.14.04-10.71-.21-1.32-.58-1.83-4.98 0-5.94zm12.52 10.18c.04.59.04 1.32 0 1.91.56 2.99-7.94 1.24-12.41 1.7-1.35-.42-1.44-5.73 0-6.15 5.25.52 12.73-1.64 12.41 2.55z" fill="#f3a650"/>
  <path d="M197.02 241.76c.32-4.18-7.16-2.03-12.41-2.55-1.44.43-1.35 5.73 0 6.15 4.48-.46 12.97 1.29 12.41-1.7-.07 1.06.6 2.66-1.06 3.29 4.38 3.08-1.25 7.68 1.27 9.55.06 1.38.11 1.62-.42 2.65.6-2.17-.12-3.71-2.33-4.03-.02-.18.36-.35.11-.42-.94-.27-7.8.25-8.27 0-.08-.04-.47-1.43-.74-1.7 1.15.09 5.67.26 6.68.21 2.97-.14 5.77-.15 4.99-4.14-.72-3.68-9.94-1.37-12.84-2.02-1.09.39-1.32 5.46.95 5.94-2.44-.22-2.76-3.73-1.91-5.62.69-1.52 4.56-.7 3.08-1.59-.33-.2-4.81.78-3.5-5.2.22-1.02 1.61-1.28 1.49-3.08.57.25 9.94.38 10.71.21 2.49-.55 2.58-4.76.64-6.15h-11.35s-.08-.37.11-.42c8.77.28 13.94-2.67 12.62 5.83-.01.08-.66 1.15-.85 1.49.66 1.83.53 1.76.64 3.29z" fill="#141e34"/>
  <path d="M185.56 253.01h-.21c-2.27-.48-2.04-5.55-.95-5.94 2.89.65 12.11-1.66 12.84 2.02.78 3.99-2.01 4-4.99 4.14-1.01.05-5.53-.12-6.68-.21zm8.91 2.12c2.21.32 2.94 1.86 2.33 4.03-.44.85-1.38 1.36-2.23 1.7-7.25-.53-13.87 2.47-9.97-5.73 2.7.22 7.83-.3 9.87 0z" fill="#f3a650"/>
  <path d="M180.47 243.25c1.8-6.75-10.14-3.11-14.11-4.03-1.91 1.03-1.88 5.61.21 6.15 1.13.29 9.39-.22 11.99 0 0 .15.06.37-.11.42-.99.35-9.4-.42-11.77.21-.43-.63-1.25-.81-1.49-1.17-2.5-3.7 1.25-5.66 1.06-6.9 2.45-.09 11.52.3 12.73-.21-.72 1.49 1.53 1.18 1.91 3.29.41 2.29-.38 2.11-.42 2.23z" fill="#141e34"/>
  <g fill="#f3a650">
    <path d="M161.8 252.37c-.12.12-.35.59-.53.64-.61.15-11.91.15-12.52 0-1.96-.49-2.14-3.1-1.8-4.67 2.78-1.95.81.2 1.8.64.57.25 12 .04 12.41-.53.04-.06-.64-.93-.64-1.17 2.08.68 1.59 3.41 1.27 5.09z"/>
    <path d="M160.53 247.28c0 .23.68 1.11.64 1.17-.41.57-11.84.78-12.41.53-.99-.44.97-2.59-1.8-.64.08-.35.56-.49.64-.85 2-.62 11.62-.65 12.94-.21z"/>
  </g>
  <path d="M160.74 245.37c-1.41.77-2.87.17-2.33.95.22.32 1.72.07 1.8.11 2.26.85 3.14 4.42 1.59 5.94.31-1.68.8-4.41-1.27-5.09-1.33-.43-10.94-.41-12.94.21-1.39-.61 3.23-1.05 2.23-1.7-.1-.06-.54.21-1.38-.42h12.31zm6.15 1.27c.59-.1 11.3-.11 11.88 0 2.43.44 2.59 3.47 1.7 5.09 2.34-7.71-9.47-3.67-13.9-4.67-2.47 1.13-2.28 4.46-.11 5.94-2.87-.5-2.99-5.8.42-6.36z" fill="#141e34"/>
  <path d="M178.77 246.64c-.58-.11-11.29-.1-11.88 0 .04-.25-.09-.45-.21-.64 2.38-.63 10.78.13 11.77-.21.16-.06.11-.28.11-.42.07-.01.15.02.21 0v1.27z" fill="#141e34"/>
  <path d="M195.53 230.1H184.5c-1.72-1.21-1.21-5.69.32-6.15.5-.15 9.89-.13 10.4 0 1.88.47 2.83 4.98.32 6.15z" fill="#f3a650"/>
  <path d="M195.53 230.1s.08.37-.11.42c-1.1.3-10.28.03-10.93-.42h11.03z" fill="#1f1915"/>
  <path d="M179.41 237.31c-4.15.94-8.83.18-13.15.42-1.67-1.52-1.82-5.03-.11-6.36 2.71.22 11.57-.3 12.73 0 2.03.52 2.03 4.52.53 5.94z" fill="#f3a650"/>
  <path d="M179.41 237.31s-.03.26-.42.42c-1.21.51-10.28.12-12.73.21v-.21c4.32-.24 9 .52 13.15-.42z" fill="#1f1915"/>
  <path d="M181.42 253.43c1.39-.67 1.57 1.7.42 1.7-.66 0-1.14-1.35-.42-1.7z" fill="#94788e"/>
  <path d="M181.64 237.52c.96 0 .96 1.7 0 1.7s-.96-1.7 0-1.7z" fill="#d2c0cc"/>
  <path d="M147.58 255.55c-.58.9-.22 4.13.95 4.67.55.25 10.27.37 11.24.21 2.46-.41 1.81-3.23 1.49-3.39l-11.67.21c-.73-.2-1.02-3.24-2.02-1.7.12-.12.35-.59.53-.64.6-.16 11.71-.15 12.31 0 2.2.55 1.95 5.43.21 5.94-.56.16-11.1.13-11.67 0-2.01-.44-2.66-3.99-1.38-5.3z" fill="#f8b245"/>
  <path d="M147.58 255.55c1-1.55 1.29 1.5 2.02 1.7l11.67-.21c.33.16.98 2.98-1.49 3.39-.97.16-10.69.04-11.24-.21-1.18-.53-1.54-3.76-.95-4.67z" fill="#f3a650"/>
  <path d="M140.79 227.76c.33.4 1.2 2.03 1.27 2.44.19 1.13.21 21.79 0 22.91-.91 4.97-7.65 6.27-8.49.42.64-5.46-.5-19.94 0-22.91.59-3.49 4.37-4.47 7.21-2.86z" fill="#097e68"/>
  <path d="M138.57 232c3.03.24-2.19.16.32 3.08.11.5-.63.22-.64.42-.1 2.34-.16 9.12 0 11.03 0 .08.49.44.64.64v.85c-2.15 2.49.49 8.07.64 3.39 1.2-.23.42 2.93-1.17 2.44-.79-.24-1.46-6.82-.53-7.32-.34-3.65-.28-7.38-.21-11.03 0-.2-1.14-2 .95-3.5z" fill="#68d8b1"/>
  <path d="M199.77 226.91c-.91-1.33-1.23-.73-1.38-.85-1.63-1.35-.96-3.76-2.97-4.24-1.43-.35-26.25-.16-29.49 0-.82.04-5.68.28-5.94.42-.52.29-.19.92-.42 1.06-.44.26-8.8-.2-10.18 0l-.64-.85c-3 .59-15.56-1.55-16.44 2.02-1.01 4.09 2.76-.56 3.5-.74.31-.08 5.96-.08 6.36 0 .26.05 3.92 2 4.77 2.23.54 4.13-2.05 8.48.64 12.31-1.77 1.64-1.66 4.03-1.8 6.26-1.77-1.63-1.27.04-1.49 0-.25-.05.09-2.48-.95-2.12 0-2.36.17-10.46 0-11.35-.24-1.25-1.51-2.7-2.55-3.29-2.29-2.78-6.72-.21-7.43 1.8-.42 1.19-.62 24-.42 25.25.03.2 1.26 2.55 2.44 3.08 2.63 1.17 5.47.06 6.9-2.44 1.04-1.83.93-3.45 1.06-5.41.5-.23 1.66-.03 1.7-.11.81-1.67-1.6-.43-.85-1.7.05-.09 2.14.54 1.7-.42-.04-.1-1.58.09-.64-1.27.27-.39.69.33.74.32.12-.04.03-1.08.74-.53.3.23-.81 2.7-.64 5.09 3.8 4.04-1.26 3.22.95 8.8-2.17-.09-11.91.36-12.52.21-1.42-.34-3.25-2.39-4.99-2.33v-47.84c.69-2.02 2.4-2.92 4.35-3.5 10.54 1.41 58.36-.33 62.16.42 4.74.94 3.46 11.69 3.71 19.73z" fill="#293a5b"/>
  <path d="M137.72 209.73c5.48-1.12 6.07 2.31 6.36 2.55.16.13 3.63.44-.74 1.59 1.76 2.9-1.56 1.69-1.91 2.55-.65 1.59 3.04-.28 3.61.42-.39.36-1.87 2.18-2.02 2.23-.43.13-8.76.26-9.02-.11-1.49-2.1 4.2-3.14 2.86-4.99-5.39-.09-.68-1.4-.53-1.59.11-.14-1.33-2.1 1.38-2.65z" fill="#141e34"/>
  <path d="M166.78 209.52c1.19-.2 23-.05 24.19.21 2.71.6 2.46 8.42-.64 9.12-1.17.26-22.83.35-23.97 0-1.99-.6-.88-6.65-1.17-8.38.1-.31 1.3-.91 1.59-.95z" fill="#07845c"/>
  <path d="M171.88 211.64c1.24-.66.35 1.59 1.06 2.76.68-1.02.8-2.86 2.23-2.23.48 5.33.77-.23 1.8-.32 2.11-.19-2.61 7.02-2.33 1.49-.16-.1-1.36 3.52-2.44 1.38-.07-.14-.45-3-.32-3.08zm11.24.21c.35.7.82 0 1.27.21.95.43.49 1.89-.21 2.12-2.37.79 1.35-1.23 0-1.7-1.49-.52-1.53 3.91-2.76 3.39-.91-.39 1.25-3.91 1.7-4.03zm-4.03-.42c1.6-.14-.09 3.51-1.06 3.82-.6-.13.41-3.76 1.06-3.82zm1.91.42c1.86-.56-.92 3.83-1.27 3.82-1.23-.04 1.06-3.75 1.27-3.82z" fill="#68d8b1"/>
  <path d="M147.05 209.09c.89-.23 10.61.02 12.73.21 1.07.67.28 7.42.53 9.02l-.53.53c-5.25-.57-13.4 1.57-14.11-2.02-.28-1.43-.41-7.28 1.38-7.74z" fill="#f3a650"/>
  <path d="M150.87 209.73c10.02-1.64 9.02 9.61.42 8.7-5.06-.54-5.47-7.87-.42-8.7z" fill="#bc432c"/>
  <path d="M152.36 211.64c3.46.03 3.25 4.89-1.06 3.39-2.57-.89-1.17-3.42 1.06-3.39z" fill="#d46c34"/>
</svg>
