<svg xmlns="http://www.w3.org/2000/svg" data-name="Layer 1" viewBox="0 0 528 400">
  <defs>
    <linearGradient id="tG47hA_kAV8La" x1="246.79" y1="708.04" x2="223.36" y2="764.97" gradientTransform="matrix(.5 0 0 .5 87.96 -197.7)" gradientUnits="userSpaceOnUse">
      <stop offset="0" stop-color="#113f63"/>
      <stop offset="1" stop-color="#155a79"/>
    </linearGradient>
    <linearGradient id="tG47hA_kAV8Lb" x1="241.16" y1="725.5" x2="230.14" y2="763.38" gradientTransform="matrix(.5 0 0 .5 87.96 -197.7)" gradientUnits="userSpaceOnUse">
      <stop offset="0" stop-color="#103657"/>
      <stop offset="1" stop-color="#114c6b"/>
    </linearGradient>
  </defs>
  <path d="M0 12C0 5.37 5.37 0 12 0h504c6.63 0 12 5.37 12 12v376c0 6.63-5.37 12-12 12H12c-6.63 0-12-5.37-12-12V12z" fill="#c1ddf5"/>
  <path d="M0 12C0 5.37 5.37 0 12 0h504c6.63 0 12 5.37 12 12v20H0V12z" fill="#237dc1"/>
  <circle cx="16" cy="16" r="4" fill="#16264c"/>
  <circle cx="28" cy="16" r="4" fill="#16264c"/>
  <circle cx="40" cy="16" r="4" fill="#16264c"/>
  <path d="M303 146h154c1.66 0 3 1.34 3 3s-1.34 3-3 3H303c-1.66 0-3-1.34-3-3s1.34-3 3-3zm0 14h92c1.66 0 3 1.34 3 3s-1.34 3-3 3h-92c-1.66 0-3-1.34-3-3s1.34-3 3-3z" fill="#7187a5"/>
  <path d="M303 190h66c1.66 0 3 1.34 3 3s-1.34 3-3 3h-66c-1.66 0-3-1.34-3-3s1.34-3 3-3zm0 14h55c1.66 0 3 1.34 3 3s-1.34 3-3 3h-55c-1.66 0-3-1.34-3-3s1.34-3 3-3z" fill="#d3e0f1"/>
  <rect x="300" y="234" width="72" height="24" rx="4" ry="4" fill="#34cbad"/>
  <path d="M323 243h26c1.66 0 3 1.34 3 3s-1.34 3-3 3h-26c-1.66 0-3-1.34-3-3s1.34-3 3-3z" fill="#aeeade"/>
  <path d="M39.01 228.88l.08 1.4c35.46-.65 70.92-.06 106.38 0l.39 1.09c-1.29 3.82-17.4 4.98-21.04 5.13H50.11c-2.81-.09-19.63-1.95-18.87-6.13.36-1.97 6.29-1.44 7.77-1.48z" fill="#8ec1df"/>
  <path d="M129.55 228.41c-.04.18-.3.27-.08.47 1.16.02 2.33-.02 3.49 0 5.5.1 14.1-1.08 12.89 2.48l-.39-1.09c-35.46-.06-70.93-.65-106.38 0l-.08-1.4c2.07-.05 4.15.05 6.21 0 .96-.02 1.92.02 2.87 0 .13 0 .06-.31.08-.31 9.93-.19 19.89.06 29.82 0 17.19-.11 34.37-.24 51.56-.16z" fill="#479ebe"/>
  <path d="M122.56 173.28v3.42c-2.52-.73-6.43-.15-9.16-.16h-8.23c-.04 0 .19-.15-.78-.16-2.74 0-5.5.16-8.23.16-.04 0 .19-.16-.78-.16H80c-2.64.01-5.28-.02-7.92 0h-.78c-2.67.03-5.33-.02-8 0-.25.38-.35.84-.54 1.24-1.5-.37-3-.12-4.5-.16-1.12-.02-2.28-.3-3.42-.16v-4.19l67.71.16z" fill="#886044"/>
  <path d="M124.12 159.14c-.98-.57-3.03-1.37-4.12-1.55-6.56-1.1-50.23.19-61.19-.31-3.76.54-8.05 2.48-9.09 6.52-.77 3.02.24 6.36 2.8 8.23-3.18-1.53-4.13-5.95-2.95-9.09 1.06-2.84 6.45-6.78 9.4-7.22 4.36-.65 49.69.49 59.02 0 1.97.52 5.54 1.47 6.13 3.42z" fill="#d2d6e2"/>
  <path d="M82.18 197.81c-.11 6.06-.19 12.11-.23 18.17h40.61c0 2.01-.13 4.06.16 6.06-.02 0-.12.31-.23.31-.12 0-.04-.31-.16-.31-4.84-.11-38.45-.28-40.46 0-.06-1.07.21-2.01-.31-1.86.45-6.23.22-15.73.31-22.52l.16-.16s.16-.09.16.31z" fill="#16608b"/>
  <path d="M122.56 188.34v27.64h-.47l.31-.23-.23-20.89c-1.53 1.05-4.45 2.58-6.21 2.8-4.72.58-26.29-.52-33.78.16 0-.4-.16-.29-.16-.31 0-.5-.08-3.59.08-3.73 6.89-.11 26.85.66 31.68.16 3.9-.4 6.08-2.5 8.46-5.36l-.16-9.71.31.08.16 9.4z" fill="#21799d"/>
  <path d="M122.56 176.69v11.65l-.16-9.4-.31-.08-7.61.16c-.4-.8-.62-1.71-1.09-2.48 2.73 0 6.64-.57 9.16.16z" fill="#16608b"/>
  <path d="M122.72 222.04c3.35.1 7.86-.53 7.3 5.2-.03.28-.42.95-.47 1.16-17.19-.09-34.37.05-51.56.16.08-1.03 1.34-5.95 2.1-6.21 1.45.17 1.69-.3 1.79-.31 2-.28 35.62-.11 40.46 0 .12 0 .04.31.16.31.11 0 .21-.31.23-.31z" fill="#1b4e7c"/>
  <path d="M81.87 222.04c-.09.01-.34.48-1.79.31-.75.27-2.02 5.19-2.1 6.21-9.93.06-19.89-.19-29.82 0-1.15-6.61 1.75-6.37 6.83-6.52 2.79-.08 5.6.02 8.39 0 5.98-.05 11.96-.06 17.94.16.42-.31.17-1.18.23-2.02.52-.14.25.79.31 1.86z" fill="#16608b"/>
  <path d="M124.12 159.14c1.47.86 2.36 1.77 3.11 3.26-5.29 6.35-20.16 3.75-28.42 3.88 2.79-.8 2.1-4.52.08-4.97-3.15-.7-3.14 1.49-2.87 5.13l-.31-.62c.75-5.18-5.13-5.27-5.75-1.86h-.16c-.59-3.55-6.18-3.04-5.9 1.4-.22-.03-.12.31-.23.31s-.01-.34-.23-.31c.02-.57.14-3.71-.23-3.88-1.99-.89-1.08 2.26-1.4 2.48-.16.12-4.04-.44-2.8-1.55.43-.39 1.2.33 1.48-.23.86-1.77-3.04-1.61-3.26.47-.18 1.64 1.2 2.23 2.48 2.56.44.57.28.73-.47.93-.28.08-.84-.07-1.16 0-.19.04-.54.45-.7.47-3.9.47-23.97.48-27.64-2.8 1.04-4.04 5.33-5.98 9.09-6.52 10.97.5 54.63-.79 61.19.31 1.09.18 3.13.98 4.12 1.55z" fill="#479ebe"/>
  <path d="M128 164.73c.63 4.51-1.32 7-5.44 8.54l-67.71-.16c-.64-.1-1.8-.7-2.33-1.09-2.56-1.87-3.57-5.21-2.8-8.23 3.68 3.28 23.74 3.27 27.64 2.8-.53 3.37 5.6 1.69 1.86-.47.75-.2.9-.36.47-.93.99.25 2.06.08 2.17.23.07.44-.12 2.73.08 2.87.06.04 1.4.03 1.48-.08.08-.12-.01-2.43 0-2.87.22-.03.12.31.23.31s.01-.34.23-.31c.26 4.18 6.89 4.54 5.9-1.4h.16c-.96 5.31 5.2 5.64 5.75 1.86l.31.62c.06.79-.24 2.41 1.32 1.71.94-.42-1-1.82 1.48-1.86 8.26-.13 23.13 2.47 28.42-3.88.4.8.65 1.44.78 2.33z" fill="#21799d"/>
  <path d="M83.43 165.36c-.01.44.08 2.76 0 2.87-.08.11-1.42.12-1.48.08-.2-.14 0-2.44-.08-2.87-.11-.16-1.18.02-2.17-.23-1.29-.33-2.66-.93-2.48-2.56.22-2.07 4.12-2.24 3.26-.47-.27.56-1.04-.15-1.48.23-1.25 1.12 2.63 1.67 2.8 1.55.31-.22-.59-3.37 1.4-2.48.38.17.25 3.31.23 3.88z" fill="#fdfdfd"/>
  <path d="M79.23 166.13c3.74 2.16-2.39 3.84-1.86.47.16-.02.51-.43.7-.47.32-.07.88.08 1.16 0z" fill="#e5ecf0"/>
  <path d="M89.79 163.96c.99 5.94-5.64 5.57-5.9 1.4-.27-4.44 5.31-4.95 5.9-1.4z" fill="#fdfdfd"/>
  <path d="M86.45 163.18c2.77-.68 2.51 4.63-.16 3.42-1.19-.54-1.11-3.11.16-3.42z" fill="#479ebe"/>
  <path d="M95.69 165.82c-.55 3.77-6.7 3.45-5.75-1.86.61-3.41 6.5-3.32 5.75 1.86z" fill="#fdfdfd"/>
  <path d="M92.36 163.18c2.34-.55 2.53 3.19.78 3.57-2.28.5-2.24-3.23-.78-3.57z" fill="#479ebe"/>
  <path d="M98.8 166.29c-2.48.04-.54 1.45-1.48 1.86-1.56.7-1.26-.92-1.32-1.71-.27-3.64-.27-5.82 2.87-5.13 2.02.45 2.71 4.17-.08 4.97z" fill="#e5ecf0"/>
  <path d="M97.64 162.72c1.09-.77 1.97 1.87.78 2.17-1.35.34-.9-2.09-.78-2.17z" fill="#479ebe"/>
  <path d="M122.1 178.87l.16 9.71c-2.38 2.86-4.57 4.95-8.46 5.36-4.83.5-24.79-.26-31.68-.16-.16.14-.07 3.23-.08 3.73l-.16.16c.02-1.42-.16-1.62-.16-1.71.01-1.52.3-3.11.16-4.66 2.74.43 5.22-.72 6.45-3.26.52-.07.9 4 6.06 3.26 2.53-.36 3.2-2.38 3.49-2.8.1-.14.18-.45.23-.47.25.13.36.25.54.47.41.5 1.12 3.4 5.51 2.8 3.35-.46 3.57-3.97 4.27-2.87 1.02 3.98 7.56 3.52 8.85.16 1.27-3.31-1.39-6.76-2.8-9.55l7.61-.16z" fill="#16608b"/>
  <path d="M113.4 176.54c.47.77.69 1.69 1.09 2.48 1.41 2.79 4.07 6.24 2.8 9.55-1.29 3.36-7.84 3.83-8.85-.16-.7-1.1-.92 2.41-4.27 2.87-4.4.6-5.11-2.3-5.51-2.8 2.63.24 7.42.92 9.24-.62.92.41 1.44.8 2.64.93 1.02.11 4.64-.05 5.59-.31.05-.01.11-.64.78-.16.92-1.02-.27-5.49-1.09-5.75l-8.15.16c-.74-2.11-1.5-4.2-2.48-6.21h8.23z" fill="#e2cbae"/>
  <path d="M104.39 176.38c.76 2.01 1.48 4.09 2.33 6.06l-8.7.16c-.55-2.04-1.12-4.08-1.86-6.06 2.73 0 5.49-.16 8.23-.16zm-9.01 0c.62 2.36 1.37 4.68 2.17 6.99-.54.04-.36-.79-.7-.93-.4-.16-6.74.12-8.15 0-.24-2.02-.72-4.02-.78-6.06h7.45z" fill="#e2cbae"/>
  <path d="M96.16 176.54c.75 1.98 1.31 4.02 1.86 6.06.36 1.32.78 2.63 1.09 3.96-.5.97-1.39-2.7-1.55-3.18-.8-2.3-1.55-4.63-2.17-6.99.97 0 .74.16.78.16zm-8.23-.16c.05 2.04.54 4.04.78 6.06.06.5.57 3.65.47 3.81-.76 1.13-.95-2.3-1.24-3.96-.35-1.97-.64-3.95-1.09-5.9h1.09zm-6.83 0c-.64 1.92-.93 3.94-1.4 5.9-.52 2.18-.67 4.42-1.55 3.96-.1-.31.52-2.46.62-3.03.43-2.28.97-4.53 1.24-6.83h1.09zm24.07.16c.99 2.01 1.75 4.1 2.48 6.21.09.25 1.5 3.61 1.01 3.57-.89-1.14-1.38-2.57-1.94-3.88-.85-1.97-1.57-4.05-2.33-6.06.97 0 .74.16.78.16zm-33.08-.16c-.54 1.92-1.06 3.86-1.71 5.75-1.88 5.45-2.51 5.74-.93.47.45-1.51.96-2.98 1.4-4.5.16-.54.56-1.08.47-1.71h.78z" fill="#cda77f"/>
  <path d="M78.77 183.22c-.11.56-.72 2.72-.62 3.03.88.46 1.03-1.78 1.55-3.96h8.23c.3 1.66.49 5.09 1.24 3.96.11-.16-.41-3.3-.47-3.81 1.41.12 7.76-.16 8.15 0 .34.14.16.97.7.93.17.48 1.05 4.15 1.55 3.18-.31-1.33-.73-2.64-1.09-3.96l8.7-.16c.56 1.31 1.05 2.75 1.94 3.88.5.04-.92-3.32-1.01-3.57l8.15-.16c.82.26 2.01 4.72 1.09 5.75-.66-.49-.73.14-.78.16-.95.26-4.57.42-5.59.31-1.2-.13-1.72-.52-2.64-.93-1.82 1.54-6.61.86-9.24.62-.18-.22-.3-.33-.54-.47-.06.01-.13.33-.23.47-3.26.1-6.76.97-9.71-.78-.87 1.26-5.29 1.22-6.99 1.09-1.04-.08-2.38-1.02-2.56-.16-.02-.03-.04-.38-.23-.62-.4-.09-.46.23-.85.62-.17-.82-1.13.02-2.25.16-1.94.23-5.22.25-6.68-1.09-.4-.07-.18.23-.23.31-.01.02.01.26-.16.47-1.17.09-2.32.52-3.49.62-1.33.12-2.72-.37-3.96.31-2.28-2.45-.78-4.33.16-6.99 1.67.11 7.88-.25 8.31-.16.13.03 0 .33.23.31-1.58 5.27-.94 4.99.93-.47 2.92.69 8.53-.79 8.39 1.09z" fill="#e2cbae"/>
  <path d="M86.84 176.38c.45 1.95.74 3.93 1.09 5.9H79.7c.47-1.96.76-3.98 1.4-5.9h5.75zm11.03 12.12c-.29.42-.96 2.43-3.49 2.8-5.15.74-5.54-3.34-6.06-3.26-1.22 2.54-3.71 3.69-6.45 3.26-1.66-.26-2.37-1.43-3.26-2.64.18-.86 1.52.08 2.56.16 1.7.13 6.12.17 6.99-1.09 2.94 1.75 6.45.87 9.71.78zm-17.86-12.12c-.27 2.3-.82 4.56-1.24 6.83.14-1.88-5.46-.39-8.39-1.09.65-1.89 1.17-3.82 1.71-5.75 2.64-.02 5.28.01 7.92 0zm-2.49 12.27s-.01.44-.85 1.09c-1.84 1.42-4.7 2-6.68.47-1.32-1.03-1.03-2.29-1.63-2.17.06-.08-.17-.38.23-.31 1.46 1.34 4.74 1.32 6.68 1.09 1.12-.13 2.08-.98 2.25-.16z" fill="#e2cbae"/>
  <g fill="#e2cbae">
    <path d="M71.31 176.38c.09.62-.31 1.17-.47 1.71-1.4.72-6.1.45-8.23.31.02-.04.02-.5.16-.78.2-.4.29-.86.54-1.24 2.67-.02 5.33.03 8 0zm-3.1 12.12c-1.35 1.65-2.91 2.63-5.13 2.33-1.05-.14-1.67-.69-2.33-1.4 1.24-.68 2.63-.19 3.96-.31 1.17-.11 2.32-.53 3.49-.62z"/>
    <path d="M69.45 182.59c-.23.02-.11-.28-.23-.31-.43-.09-6.64.26-8.31.16.49-1.38 1.12-2.7 1.71-4.04 2.13.14 6.83.41 8.23-.31-.44 1.53-.94 2.99-1.4 4.5z"/>
  </g>
  <path d="M58.27 177.47c.91 1.17 1.84 2.29 3.11 3.03-.97 3.91-5.96 9.86-1.01 12.97 3.3 2.07 3.55.67 2.72-2.64 2.22.3 3.78-.68 5.13-2.33.17-.21.14-.45.16-.47.6-.11.31 1.14 1.63 2.17 1.97 1.54 4.84.95 6.68-.47.84-.65.8-1.04.85-1.09.4-.39.46-.71.85-.62.2.24.21.59.23.62.89 1.21 1.6 2.38 3.26 2.64.14 1.55-.15 3.14-.16 4.66h-4.81c-.02-.79-.24-1.68-.23-2.48h-9.16c-.4.18-.2 1.92-.23 2.8l-3.88-1.79v27.57c-2.79.02-5.6-.08-8.39 0l-.16-44.73c1.14-.15 2.3.13 3.42.16z" fill="#b87e44"/>
  <path d="M62.77 177.62c-.13.28-.14.73-.16.78-.59 1.34-1.22 2.66-1.71 4.04-.94 2.65-2.44 4.54-.16 6.99.66.71 1.28 1.26 2.33 1.4.84 3.32.58 4.71-2.72 2.64-4.95-3.11.04-9.06 1.01-12.97-1.27-.74-2.2-1.86-3.11-3.03 1.5.03 3.01-.21 4.5.16z" fill="#a87040"/>
  <path d="M76.9 195.95c.02.76-.05 7.15-.39 7.3l-9.16-.16c-.18-.29-.11-5.98-.08-6.83.03-.88-.17-2.62.23-2.8h9.16c0 .81.21 1.7.23 2.48z" fill="#085373"/>
  <path d="M67.27 196.26c-.03.85-.11 6.54.08 6.83l9.16.16c.33-.15.41-6.54.39-7.3h4.81c0 .09.17.28.16 1.71-.09 6.79.14 16.29-.31 22.52-.06.84.19 1.71-.23 2.02-5.98-.22-11.96-.2-17.94-.16v-27.57l3.88 1.79z" fill="#e3a63a"/>
  <path d="M70.15 207.29c.83-.03.97 4.72-.23 3.18-.5-.63-.87-3.15.23-3.18z" fill="#f0e2c0"/>
  <path d="M72.94 207.91c.88 2.65-.38 4.23-1.16 1.94-1.14.66.42-1.29 1.16-1.94z" fill="#efd9a0"/>
  <path d="M122.1 215.99H81.95c.04-6.06.12-12.11.23-18.17 7.49-.68 29.06.43 33.78-.16 1.77-.22 4.68-1.75 6.21-2.8l.23 20.89-.31.23z" fill="#21799d"/>
  <path d="M87.54 201.54c1.43-.26 27.62-.32 29.04 0 1.91.43 2 3.32-1.4 4.19-5.02-.41-24.58.52-27.02.16-3.13-.47-3.17-3.88-.62-4.35z" fill="#16608b"/>
  <path d="M87.85 202.63c1.36-.36 24.21.28 28.11 0 .67.72-.06 1.4-.78 1.55-1.47.32-22.95-.24-27.49 0-.66-.42-.66-1.33.16-1.55z" fill="#21799d"/>
  <path d="M176.88 229.58h6.13c3.88-.01 7.77 0 11.65 0h12.85c4.73 0 9.47.16 14.19.15-.32 2.3.34 4.64-.37 6.87l-63.65-.15-.07.3-.15-.3c.16-1.43-.27-4.51.15-5.68.24-.66 1.06-1.08 1.72-1.2.94-.16 14.49 0 17.56 0z" fill="#17496c"/>
  <path d="M252.33 233.31c.09 1.05.24 2.08.15 3.14-.03 0-.01.45-.22.45-1.72.02-3.44-.02-5.15 0-21.75.2-43.54.05-65.29 0-8.07-.02-16.14.14-24.21-.15l.07-.3 63.65.15c.72-2.23.06-4.58.37-6.87 2.28 0 4.58-.14 6.87-.15 5.85-.01 11.7.01 17.56 0l.07-4.63c.64.22.14 3.68.3 4.56 5.72.61 5.44-.81 5.83 3.81z" fill="#103458"/>
  <path d="M214.08 222.41c2.69 0 5.38-.01 8.07 0 5.53.02 12.75-.24 17.93 0 .96.04 1.97-.13 2.91.15 1.53.45 1.88 2.3 2.09 2.39.19.08.88-.08 1.12 0l-.07 4.63c-5.85.01-11.7-.01-17.56 0 .56-.46.26-3.08.22-4.63-8.69-.04-17.38.05-26.07 0-2.68-.02-5.38-.14-8.07-.15-3.88-.02-7.77 0-11.65 0h-18.46c-.17-.16.21-.28.22-.3 4.17-.27 29.55.6 31 0 .11-.04 1.05-1.58 1.49-1.79.21-.1.76.22.67-.3 5.38-.01 10.76-.01 16.14 0z" fill="#142247"/>
  <path d="M197.5 222.41h.45c.09.52-.47.2-.67.3-.45.22-1.39 1.75-1.49 1.79-1.46.6-26.83-.27-31 0 .68-1.14 1.35-1.9 2.61-2.09 2.29-.36 25.34.01 30.11 0z" fill="#17496c"/>
  <path d="M198.84 220.61c-.12.34-1.14 1.06-1.05 1.79h-.3c-2.97-.81-23.72.57-24.73-.15-.19-.13-.08-1.9.07-2.24 1.18.14 4.62-.01 6.42 0h2.24c2.49.02 4.98 0 7.47 0h2.09c2.14.02 4.35.34 6.5.15.34-.03 1.4-.14 1.27-.45 0 .04.31 0 0 .9z" fill="#c2b6ac"/>
  <path d="M231.42 220.16h8.07c.11.57.53 1.2.6 2.24-5.18-.24-12.4.02-17.93 0v-2.24c2.34.16 4.7-.17 7.02-.15.72 0 1.49.15 2.24.15z" fill="#836e7a"/>
  <path d="M228.58 229.58c-2.29 0-4.59.15-6.87.15-4.72 0-9.46-.16-14.19-.15l-4.78-4.63c8.69.05 17.38-.04 26.07 0 .04 1.56.34 4.17-.22 4.63z" fill="#a38766"/>
  <path d="M202.73 224.95l4.78 4.63h-12.85v-4.78c2.69.01 5.39.13 8.07.15z" fill="#bb9d79"/>
  <path d="M213.19 220.16c.03.1-.06.25.22.45.22.02.45-.03.67 0v1.79c-5.38-.01-10.76-.01-16.14 0h-.15c-.09-.73.93-1.45 1.05-1.79 2.11-.09 4.25.12 6.35 0 .13 0 .05-.45.07-.45 2.63-.13 5.29.1 7.92 0z" fill="#a0958f"/>
  <path d="M222.15 222.41c-2.69-.01-5.38 0-8.07 0v-1.79c.46.05 1.01-.02 1.49 0 2.1.09 6.37.34 6.42-.45h.15v2.24z" fill="#b9adad"/>
  <path d="M183.01 224.8v4.78h-6.13v-4.78h6.13z" fill="#a8b3b1"/>
  <path d="M194.66 224.8v4.78c-3.88 0-7.77-.01-11.65 0v-4.78c3.88 0 7.77-.02 11.65 0z" fill="#93a8b4"/>
  <path d="M243.52 168.77c-.6 1.02 3.13.34 4.93.67-.35 1.03-.35 3.02-1.64 3.06-19.77-.42-39.54.06-59.32 0-5.02-.02-19.13.18-22.41-.15-.32-.03-.65.02-.97 0-.58-.22-.88-2.26-.97-2.91 1.53 0 3.11-.2 4.63-.22 9.54-.14 19.14.16 28.69.15 12.6-.01 33.36.47 44.53 0 .67-.03 1.35.02 2.02 0 .05-.89.46-.53.52-.6z" fill="url(#tG47hA_kAV8La)"/>
  <path d="M241.28 176.24c-1.64-.39-29.25 0-33.77 0-12.7-.02-25.4.01-38.1 0-.04-.32.03-.65 0-.97-.31-.69-3.45-.25-4.26-.37-.28-.56.07-1.56.07-1.64 13-.23 26-.14 39-.15 14.14 0 28.29.13 42.43-.15-.06.34.11 1.81-.07 1.94-2.27.2-5.72-.73-5.3 1.34z" fill="url(#tG47hA_kAV8Lb)"/>
  <path d="M246.81 172.5c.07.52-.15.42-.15.45-14.14.28-28.29.14-42.43.15-2.48-.54-15.59.22-16.66-.15-.13-.05-.06-.32-.07-.45 19.77.06 39.55-.42 59.32 0z" fill="#376a89"/>
  <path d="M207.51 176.24l.6.9h-38.7c-.04-.29.03-.6 0-.9 12.7.01 25.4-.02 38.1 0z" fill="#417d99"/>
  <path d="M241.28 176.24c.89.21.58.69.6.75-11.25.27-22.51.15-33.77.15l-.6-.9c4.52 0 32.13-.39 33.77 0z" fill="#376a89"/>
  <path d="M179.27 181.91c-.41.53-.91-.6-1.2 1.12-.42 2.5.32 28.54 0 34.37.26.54 1.54-.64 1.2 2.61-1.81-.01-5.25.14-6.42 0-.21-.03-.79.08-.9-.07-.15-2.04.29-1.77.3-1.87l2.54-1.27v-32.5c.95-.04 1.95-.39 2.91 0l.22-2.24c.07 0 .42-.25 1.34-.15z" fill="#17496c"/>
  <path d="M174.79 184.3v32.5l-2.54 1.27c.27-5.22.17-27.68 0-33.77.84-.03 1.7.04 2.54 0z" fill="#417d99"/>
  <path d="M177.93 182.06l-.22 2.24c-.96-.39-1.96-.04-2.91 0-.84.04-1.7-.03-2.54 0-.01-.37.07-2.22 0-2.32-.11-.15-2.12.62-1.34-2.47 0-.03.34-.58.37-.6.06-.04 1.42-.02 1.49 0 1.09.37.69 2.82 1.05 2.99 1.36-.16 2.76.15 4.11.15z" fill="#17496c"/>
  <path d="M187.49 172.5c.01.12-.06.4.07.45 1.07.37 14.18-.39 16.66.15-13 0-26-.08-39 .15 0-.06-.24-.3-.15-.9 3.29.33 17.4.13 22.41.15z" fill="#417d99"/>
  <path d="M222.3 216.58c-.72-9.82.44-23.38 0-32.42l2.54.22c-.26 10.66-.12 21.32-.15 31.97l-2.39.22z" fill="#376a89"/>
  <path d="M239.48 220.16h-8.07c-.39-2.54 1.04-1.83.9-3.14l2.24-1.12v-31.68l-1.72-.07c-.79 4.17.31 30.68-.22 32.2-.04.11-.2.08-.3.07.58-7.77-.44-25.28 0-34.44-2.42.4.47-4.01-2.54-2.69.43 4.34-1.12 2.15-1.49 2.99-.17.39-.13 7.36-.15 8.52-.06 3.23-.43 25.2 0 26.45.1.29 1.41.22 1.05 2.76-2.32-.02-4.69.31-7.02.15h-.15c-.45-.04-.93.15-1.2-.22-.39-3.7 1.29-.55 1.49-3.36l2.39-.22c.03-10.66-.11-21.32.15-31.97l-2.54-.22c-.08-1.73.34-1.88-.6-2.09-.24-.05-.92.1-1.05-.07-.12-.17.15-2.9-.07-3.06l-6.42-.15c-.85 2.62 1 3.45-1.87 3.66v35.26c1.55.32.63 1.47.9 2.47-2.63.1-5.29-.13-7.92 0 .09-2.01-.48-2.32 1.05-2.32l.15-35.56c-2.44-.09-1.7-.59-1.79-2.76.22.66-.03 1.61.15 2.02.17.37 2.16 1.23 1.42-2.61-.98-.12-6.26-1.12-6.65.07-.74 2.25 2.63 3.74-6.05 3.21l-.9-3.14-3.29-.15c-.46.34-.08 2.65-.37 2.91-.34.31-4.9.2-5.75.22-.06-4.46-2.24-2.77-2.32-2.54.32-.68-1.5-.56-1.64-.22-.12.27.11 1.79 0 2.32-.02.1.02.27 0 .3-.93-.11-1.28.15-1.34.15-1.34 0-2.75-.31-4.11-.15-.35-.16.04-2.62-1.05-2.99-.07-.02-1.43-.04-1.49 0-.03.02-.36.56-.37.6-.77-1.41-1.18.2-1.49-2.39h38.7c11.25 0 22.51.12 33.77-.15.09.37.39 1.59-.07 1.79-4.32-.58.15 3.56-3.66 3.66.42 4.46-.55 33.16 0 34.81.1.29 1.3.78 1.34.9.11.28-.1 1.5 0 2.02z" fill="#103458"/>
  <path d="M206.69 184.16c.09-.06 2.1-.01 2.17.07l-.07 32.35-2.17-.07.07-32.35zm25.62 32.87c0-.2-.01-.4 0-.6.1 0 .26.04.3-.07.53-1.52-.57-28.03.22-32.2l1.72.07v31.68l-2.24 1.12z" fill="#0a5769"/>
  <path d="M204.67 179.52c-.05-.15.09-.52-.07-.6h-4.63c-.44 2.46.95 3.22-1.72 3.66l-.15 34.96c.89.78.72 1.18.75 2.17.13.31-.93.42-1.27.45-2.15.19-4.36-.13-6.5-.15-.12-2.19.2-1.62.6-1.79.27-.11 1.75-.22 2.84-1.57v-32.27l-2.39-.07c.03-3.79-.63-1.87-1.05-2.47-.16-.23.27-2.54-.22-2.76-2.92-1.3-.27 3.73-2.76 3.06l-.15 35.41c.25.52 1.34-.63 1.05 2.47-2.49 0-4.98.02-7.47 0-.35-1.37-.35-1.54.6-2.24.08-.06 1.56-.86 1.64-.9.84-.33.85-.44.9-.45.99-.25 1.99-.06 2.99-.22.11-10.61-.2-21.22.15-31.83l-3.14.07h-2.39l-.15-2.32c-.11-.16-.94-.05-1.2-.07.08-.69-.11-2.2 0-2.54.08-.23 2.25-1.92 2.32 2.54.85-.03 5.41.09 5.75-.22.29-.27-.08-2.58.37-2.91l3.29.15.9 3.14c8.68.52 5.31-.96 6.05-3.21.39-1.2 5.66-.2 6.65-.07.74 3.84-1.25 2.99-1.42 2.61-.18-.41.07-1.35-.15-2.02z" fill="#103458"/>
  <path d="M191.67 218.22c-.02-.22.27-.1.3-.22.36-1.65.11-29.09.15-33.69l2.39.07v32.27c-1.09 1.34-2.57 1.46-2.84 1.57z" fill="#417d99"/>
  <path d="M184.65 216.43v-31.97l3.14-.07c-.35 10.61-.04 21.22-.15 31.83-1 .17-1.99-.03-2.99.22z" fill="#17496c"/>
  <path d="M183.75 184.45c-.18 9.98.18 19.98 0 29.96 0 .13-.43.6 0 2.47-.09.03-1.57.84-1.64.9l.15-33.32h1.49z" fill="#417d99"/>
  <path d="M184.65 184.45v31.97s-.06.12-.9.45c-.43-1.87 0-2.34 0-2.47.18-9.98-.18-19.98 0-29.96h.9z" fill="#417d99"/>
  <path d="M243.07 164.13s.2-.16.9.75c-6.66-.21-13.37.27-20.02 0-.64-.03-1.38.12-1.94-.15.02-1.84.29-3.24-1.64-4.11l3.59-4.48c-2.35-.76-2.91 2.08-4.41 3.51-.25-.19.07-3.03-.07-3.36-.15-.34-1.27-.3-1.49-.07-.57.56-.11 7.36-.3 7.69-.04.08-1.04.37-1.2.15-.22-.32.17-6.77 0-7.77-.17-.2-.14.33-.3.22-.07-.05-1.11-1.1-1.49-.22-.16.36.18 5.48-.07 5.6-.87-1.07-2.68-6.63-4.41-5.68-.58.32.56 8.35-.97 8.52-.54-.44-.93-.13-1.12-.15.08-.97.38-7.52.15-7.84-.08-.12-1.19-.19-1.34.15-.18.4.19 4.32-.07 5.3-.8-.78-3.57-7.96-4.71-5.38-.27.62-.27 7.05 0 8.29-1.19 1.74-4.02-.51-1.64-.52l-1.79-8.37c.09 0 .42.2.52.3.57-.6 2.04-.3 1.87-1.49 3.71 3.22 9.98-.53 8.67-5.3-.34-1.25-2.18-2.91-3.44-3.21 1.1-.05.15-.53 1.05-2.09 10.98 5.69 21.28 12.61 32.2 18.38 1.1.58 2.87 1.63 3.51 1.34z" fill="#147876"/>
  <path d="M207.36 144.41c-.89 1.56.05 2.04-1.05 2.09-5.89-1.42-8.65 5.55-5.23 8.52.17 1.19-1.3.9-1.87 1.49-.11-.09-.43-.3-.52-.3-2.48 0-1.74-.94-3.29 4.78-.89.11-.5 2.36-1.34 1.49.2-1.29-.38-2.19-1.64-2.47 1.44-.11 1.86-1.67 1.2-2.84-.82-1.43-3.88-1.1-5.3-1.12l-.07 8.52-.07.3h-20.1c2.68-2.28 31.31-19.81 35.86-22.26 1.17.54 2.29 1.2 3.44 1.79z" fill="#269085"/>
  <path d="M195.41 161c-.57 2.09-1.9 4.57.37 3.59.52-.23-.41-2.22 2.47-1.64.37.51 1.32 3.65 1.2 3.96-.15.37-.67 0-.6.6.04.3.89.41.9.6.03.9-3.51.48-3.29 1.27-9.55 0-19.15-.28-28.69-.15.09-3.51-2.14-2.26.3-4.33h20.1l.07-.3c1.82.04 5.43.38 5.83-2.09.84.87.46-1.39 1.34-1.49z" fill="#147876"/>
  <path d="M243.97 164.88c.98 1.28.73 2.68-.45 3.88-.07.07-.48-.29-.52.6-.67.02-1.35-.03-2.02 0l-.07-.45h-19.57c-1.08-.88 2.59-2.9 2.61-4.03 6.65.27 13.36-.21 20.02 0z" fill="#0a5769"/>
  <path d="M243.07 164.13c-.64.28-2.41-.76-3.51-1.34-10.92-5.77-21.21-12.69-32.2-18.38-1.15-.59-2.26-1.25-3.44-1.79.25-.13 1.08-.89 1.27-.9 7.17 4.55 33.29 18.76 37.88 22.41z" fill="#309999"/>
  <path d="M216.18 156.51c.16.1.13-.43.3-.22.17 1-.22 7.45 0 7.77.16.22 1.15-.07 1.2-.15.19-.34-.27-7.14.3-7.69.12 1.23-.17 7.77 0 8.14.17.38 1.91 1.2 1.57-2.47 1.37 1.03 2.1 3.2 2.47 2.84.56.27 1.3.12 1.94.15-.03 1.13-3.69 3.15-2.61 4.03h19.57l.07.45c-11.16.47-31.93-.01-44.53 0-.22-.79 3.31-.37 3.29-1.27 0-.18-.86-.3-.9-.6-.07-.6.45-.23.6-.6.12-.31-.83-3.45-1.2-3.96 1.49.3-.28 2.03 2.24 1.64-2.37.02.46 2.27 1.64.52-.27-1.25-.27-7.68 0-8.29.12 1.22-.15 7.2 0 7.55.15.33 1.2.33 1.34 0 .16-.35-.18-5.33.07-5.45l3.21 5.45c.27.39.84.17 1.34.22.19.02.58-.29 1.12.15 1.53-.17.39-8.19.97-8.52.13 1.06-.26 8.15.22 8.37 1.86.84.82-2.71 1.2-5.23 5.33 9.15 4.57 5.57 4.56-2.84z" fill="#0f6971"/>
  <path d="M216.18 156.51c.01 8.41.77 11.99-4.56 2.84-.38 2.52.67 6.06-1.2 5.23-.49-.22-.09-7.31-.22-8.37 1.73-.95 3.53 4.61 4.41 5.68.26-.13-.08-5.25.07-5.6.39-.87 1.42.17 1.49.22zm-8.07 8.07c-.51-.06-1.07.17-1.34-.22l-3.21-5.45c-.26.13.08 5.1-.07 5.45-.15.33-1.2.33-1.34 0-.15-.34.12-6.32 0-7.55 1.14-2.58 3.91 4.6 4.71 5.38.26-.98-.1-4.9.07-5.3.15-.34 1.26-.27 1.34-.15.23.32-.07 6.88-.15 7.84zm13.89.15c-.37.36-1.09-1.81-2.47-2.84.34 3.67-1.4 2.84-1.57 2.47-.17-.37.12-6.91 0-8.14.23-.22 1.34-.27 1.49.07.15.33-.18 3.17.07 3.36 1.5-1.43 2.06-4.28 4.41-3.51l-3.59 4.48c1.93.87 1.66 2.27 1.64 4.11zm-23.31-8.52l1.79 8.37c-2.52.38-.75-1.34-2.24-1.64-2.88-.58-1.94 1.42-2.47 1.64-2.28.99-.94-1.49-.37-3.59 1.55-5.72.81-4.78 3.29-4.78z" fill="#eee9e7"/>
  <path d="M197.57 158.61c.11.36.95 2.88.75 2.99-.07.04-1.48.03-1.57-.07-.1-.12.76-2.53.82-2.91z" fill="#147876"/>
  <path d="M194.06 162.49c-.39 2.48-4.01 2.14-5.83 2.09l.07-8.52c1.43.02 4.49-.31 5.3 1.12.66 1.17.25 2.73-1.2 2.84 1.26.27 1.85 1.18 1.64 2.47z" fill="#eee9e7"/>
  <path d="M189.8 160.7c.15-.11 2.29-.18 2.47.82.28 1.57-2.12 1.66-2.47 1.42-.12-.09-.12-2.15 0-2.24z" fill="#147876"/>
  <path d="M189.8 157.41c1.33-.94 3.6 1.57 1.64 2.09-2.43.65-1.79-1.99-1.64-2.09z" fill="#269085"/>
  <path d="M206.31 146.5c1.26.3 3.09 1.96 3.44 3.21 1.31 4.77-4.96 8.52-8.67 5.3-3.42-2.97-.66-9.93 5.23-8.52z" fill="#a4dfcf"/>
  <path d="M203.7 146.65c7.1-1.16 7.85 8.73 1.2 9.26-6.63.53-6.29-8.43-1.2-9.26z" fill="#3da294"/>
  <path d="M201.68 149.64c1.67-3.98 7.69-1.44 7.02 2.61-.13-3.8-4.59-6.27-7.02-2.61zm0 0c-.86 2.04-.53 3.18.67 4.93-1.59-1.21-1.72-3.35-.67-4.93z" fill="#a4dfcf"/>
  <path d="M203.85 148.45c.27-.06 1.83-.06 1.72.37-3.76-.97-2.44 2.57-.82 2.17 1.17-.29-.06-2.63-1.27-1.12 1.15-2.65 3.54 1.73.67 1.27-1.25-.2-1.07-1.88-1.72-.97-.87 1.21 1.67.34 1.94 2.09.34 2.2-3.08 1.97-2.54-1.34.11-.67 1.39-2.32 2.02-2.47z" fill="#a4dfcf"/>
  <path d="M202.2 150.99c.58.38 1.36.11 1.72.82 1.1 2.15-2.52 2.52-1.72-.82z" fill="#269085"/>
</svg>
