<svg fill="#000" version="1.1" xmlns="http://www.w3.org/2000/svg" viewBox="0 0 512 512" xml:space="preserve">
  <path d="M447.168 134.56a10.65 10.65 0 00-2.304-3.445l-128-128A10.734 10.734 0 00309.333 0H74.667C68.776 0 64 4.776 64 10.667v490.667C64 507.224 68.776 512 74.667 512h362.667c5.891 0 10.667-4.776 10.667-10.667V138.667a10.684 10.684 0 00-.833-4.107zM320 36.416L411.584 128H320V36.416zm106.667 454.251H85.333V21.333h213.333v117.333c0 5.891 4.776 10.667 10.667 10.667h117.333v341.334z"/>
  <path d="M128 181.333v256c0 5.891 4.776 10.667 10.667 10.667h234.667c5.891 0 10.667-4.776 10.667-10.667v-256c0-5.891-4.776-10.667-10.667-10.667H138.667c-5.891.001-10.667 4.776-10.667 10.667zM320 192h42.667v42.667H320V192zm0 64h42.667v42.667H320V256zm0 64h42.667v42.667H320V320zm0 64h42.667v42.667H320V384zM213.333 192h85.333v42.667h-85.333V192zm0 64h85.333v42.667h-85.333V256zm0 64h85.333v42.667h-85.333V320zm0 64h85.333v42.667h-85.333V384zm-64-192H192v42.667h-42.667V192zm0 64H192v42.667h-42.667V256zm0 64H192v42.667h-42.667V320zm0 64H192v42.667h-42.667V384z"/>
</svg>
