<svg fill="#000" viewBox="-5.5 0 32 32" version="1.1" xmlns="http://www.w3.org/2000/svg">
  <path d="M12.16 28.24c-.64 0-1.2-.08-1.64-.28-.48.2-1.04.28-1.64.28-1.72 0-3.6-.72-5.08-2C1.92 24.64.68 22.2.16 19.2c-.52-3.12.4-4.96 1.24-5.92 1.08-1.24 2.64-1.96 4.48-1.96 1.76 0 3.48.68 4.64 1.8 1.16-1.12 2.88-1.8 4.64-1.8 1.84 0 3.44.68 4.48 1.96.84 1 1.72 2.84 1.24 5.92-.48 3-1.76 5.44-3.64 7.04-1.48 1.24-3.32 2-5.08 2zm-1.64-2.08c.16 0 .32.04.44.12.24.16.68.24 1.2.24 2 0 6.04-1.6 7.04-7.68.32-1.96.04-3.52-.84-4.56-.76-.88-1.88-1.36-3.2-1.36-1.64 0-3.2.72-3.96 1.88-.16.24-.4.36-.68.36s-.56-.16-.68-.36c-.76-1.12-2.32-1.88-3.96-1.88-1.32 0-2.48.48-3.2 1.36-.88 1.04-1.16 2.6-.84 4.56.44 2.64 2.48 7.68 7.04 7.68.52 0 .96-.08 1.2-.24.12-.08.28-.12.44-.12zM7.88 9.92c-.56 0-1.96-.12-2.92-1.4-1.12-1.48-1-3.72-.96-4 0-.24.12-.48.32-.6.2-.16.44-.2.68-.16s2.44.52 3.56 2.04c1.24 1.68.44 3.52.4 3.6-.12.24-.36.44-.64.48-.04.04-.2.04-.44.04zm-2.2-4.16c.08.6.24 1.28.6 1.76s.88.64 1.24.72c.04-.36.04-.92-.32-1.4-.36-.52-.96-.84-1.52-1.08zm4.84 5.6c-.08 0-.16 0-.24-.04-.44-.12-.68-.6-.56-1.04l1.2-3.96c.12-.44.6-.68 1.04-.56s.68.6.56 1.04l-1.2 3.96c-.12.36-.44.6-.8.6z"/>
</svg>
