<svg fill="none" xmlns="http://www.w3.org/2000/svg" viewBox="0 0 72 30">
  <path fill-rule="evenodd" clip-rule="evenodd" d="M66.714 0a5.143 5.143 0 00-5.13 5.13v19.362c0 2.82 2.31 5.13 5.13 5.13s5.13-2.31 5.13-5.13V5.13c0-2.82-2.31-5.13-5.13-5.13z" fill="#789EAE"/>
  <path fill-rule="evenodd" clip-rule="evenodd" d="M56.448 0c2.82 0 5.13 2.31 5.13 5.13v19.362c0 2.82-2.31 5.13-5.13 5.13a5.143 5.143 0 01-5.13-5.13V5.13c0-2.82 2.31-5.13 5.13-5.13z" fill="#A0CDBC"/>
  <path fill-rule="evenodd" clip-rule="evenodd" d="M46.182 0c-2.82 0-5.13 2.31-5.13 5.13v19.362c0 2.82 2.31 5.13 5.13 5.13 2.826 0 5.13-2.31 5.13-5.13V5.13c0-2.82-2.31-5.13-5.13-5.13z" fill="#6181A4"/>
  <path fill-rule="evenodd" clip-rule="evenodd" d="M35.922 0c2.82 0 5.13 2.31 5.13 5.13v19.362c0 2.82-2.31 5.13-5.13 5.13s-5.13-2.31-5.13-5.13V5.13c0-2.82 2.31-5.13 5.13-5.13z" fill="#839FD1"/>
  <path fill-rule="evenodd" clip-rule="evenodd" d="M25.656 0c-2.82 0-5.13 2.31-5.13 5.13v19.362c0 2.82 2.31 5.13 5.13 5.13s5.13-2.31 5.13-5.13V5.13c0-2.82-2.31-5.13-5.13-5.13z" fill="#789EAE"/>
  <path fill-rule="evenodd" clip-rule="evenodd" d="M15.396 0c2.82 0 5.13 2.31 5.13 5.13v19.362c0 2.82-2.31 5.13-5.13 5.13s-5.13-2.31-5.13-5.13V5.13c0-2.82 2.31-5.13 5.13-5.13z" fill="#A0CDBC"/>
  <path fill-rule="evenodd" clip-rule="evenodd" d="M5.13 0C2.31 0 0 2.31 0 5.13v19.362c0 2.82 2.31 5.13 5.13 5.13s5.13-2.31 5.13-5.13V5.13C10.26 2.31 7.95 0 5.13 0z" fill="#789EAE"/>
</svg>
