<svg fill="none" xmlns="http://www.w3.org/2000/svg" viewBox="0 0 48 48">
  <path fill-rule="evenodd" clip-rule="evenodd" d="M45.882 31.46l-2.678-20.18-41.086 5.26 2.677 20.18 41.087-5.26z" fill="#FFF22D"/>
  <path fill-rule="evenodd" clip-rule="evenodd" d="M44.513 30.307l-2.344-17.806-38.71 5.096 2.344 17.807 38.71-5.097z" fill="#000"/>
  <path fill-rule="evenodd" clip-rule="evenodd" d="M43.509 27.275l-.062.007c-.355.477-1.02.588-1.537.585-.387-.117-.766-.314-.936-.713-.323-1.264-.1-2.518.001-3.742-.007-.141.047-.37-.113-.45-.445-.386-.903-.253-1.4-.081-.37.185-.379.658-.509 1.002-.144.302-.173.67-.431.905-.337-.38.197-1.003-.255-1.299-.42-.094-.941.027-1.242.356-.13.656-.352 1.287-.612 1.904-.239.402-.47.953-.947 1.07-.128.05-.19-.112-.3-.135-.533-1-.124-2.106.007-3.145-.046-.084-.146-.108-.23-.143-.462-.135-.993-.03-1.305.362-.181 1.143-.321 2.335-1.033 3.28-.097.163-.221.328-.416.333-.594-.28-.442-1.143-.448-1.66-.059-.438.294-.933-.074-1.274-.125-.707-.116-1.484-.643-2.047a.888.888 0 00-.805-.104l-1.51.813c-1.162.676-.835 2.136-1.193 3.219-.447 1.235-1.764 1.554-2.891 1.674a2.025 2.025 0 01-1.495-.765c-.745-1.305-.172-2.76.089-4.072.401-1.008.65-2.186 1.632-2.796.203-.095.493-.128.686.002.172.105.23.303.199.494-.055.3-.37.354-.554.535-.288.754-.685 1.646-.212 2.438.334.354.855.384 1.288.281.83-.228 1.265-1.017 1.34-1.756.166-.82.065-1.79-.378-2.54-.541-.687-1.51-.906-2.364-.738-.707.285-1.472.293-2.049.786-.882 1.17-1.354 2.497-1.774 3.819-.225.212-.629.187-.719.571-.257.324-.77.427-1.18.349-.454-.153-.773-.607-.808-1.066a3.7 3.7 0 01.677-2.109c.18-.065.322-.143.489-.01.137.188-.118.289-.183.43-.092.206-.048.513.038.717.106.148.233.25.412.256a.799.799 0 00.557-.429 2.205 2.205 0 00-.09-1.486c-.363-.449-.907-.307-1.432-.22-.776.222-1.262.963-1.518 1.687-.238.802-.386 2.004.38 2.63.935.704 2.069.254 3.009-.254l.142.073c.038.263-.034.645-.042.966.073 1.346.52 2.837 1.899 3.374 1.8.633 3.615-.171 4.872-1.178l.02.024c.027-.083.14-.105.204-.094.298.197.423.432.77.58.669.244 1.505-.002 1.973-.501.415-.27.738.29 1.17.25.737.139 1.382-.532 1.786-.979.095-.1.164-.276.339-.226.25.328.61.501.972.638.58.157 1.098-.063 1.534-.37.06-.025.136-.14.136-.14.28-.13.309-.42.558-.58.238.141.207.492.455.633.282.129.658.308.925.064l.707-1.532c.049-.042.12-.13.183-.039.082 1.033.346 2.019 1.234 2.55.82.62 2.052.256 2.816-.232.409-.091.21-.496.19-.752zm-14.008.357c-.194.094-.32-.07-.425-.21-.188-.245-.147-.74-.18-1.03l.032-.04-.04-.04c-.006-.827.05-1.734.584-2.373.213-.167.53-.283.721-.002.228.588.212 1.312.222 1.944-.234.605-.412 1.311-.914 1.751z" fill="#fff"/>
  <path fill-rule="evenodd" clip-rule="evenodd" d="M38.409 20.222l-.02-.175-3.327.437 1.976-2.168-.13-.118-1.998 2.192 1.166-7.217-.173-.027-1.181 7.306-3.321-1.214-.06.165 3.139 1.147-5.73.653.02.175 5.847-.667-.76.835.129.118.656-.72-.144.88.174.028.186-1.145.012-.014 2.37.866.06-.165-2.062-.753 3.17-.42z" fill="#FFF22D"/>
  <path fill-rule="evenodd" clip-rule="evenodd" d="M16.21 20.453c.219 1.759.328 3.576.21 5.436.055 1.038-.008 2.125.25 2.988.078.205.395.33.307.572-.012.206-.149.418-.322.545-.527.23-1.117-.016-1.537-.334-.455-.474-.476-1.203-.516-1.868-.028-.791-.029-1.585-.182-2.38-.162.143-.222.4-.278.612-.245 1.143-.794 2.116-1.354 3.152-.306.374-.703.723-1.19.84-.525-.074-.948-.498-1.148-.921-.111-1.05-.09-2.203-.341-3.147l-.05-.039c-.16.233-.244.51-.294.783-.524 1.666-1.245 4.078-1.996 4.876-.279.22-.69.525-1.054.308-.156-.045-.255-.203-.34-.327.045-.077-.012-.106.005-.188.125-.157.277.004.433-.112.69-.756.92-2.051 1.29-3.116.279-1.064.463-1.156.649-2.637.085-.58.185-1.11.23-1.712.14-.879-.014-.561.024-.78.033-.262-.144-.635.089-.866.403-.376.994-.596 1.542-.792.19-.057.402 0 .578.06.23.607.336 1.148.446 1.796-.017.555.196 1.021.182 1.603a18.44 18.44 0 00.162 2.596c.059.047.151.152.2.04.934-1.758 1.4-3.703 1.65-5.65.061-.408.218-.907.636-1.16.392-.313 1.022-.429 1.452-.407.113.05.235.098.267.229z" fill="#fff"/>
</svg>
