<svg fill="none" xmlns="http://www.w3.org/2000/svg" viewBox="0 0 70 70">
  <path d="M30 25H20a2.5 2.5 0 00-2.5 2.5v10A2.5 2.5 0 0020 40h10a2.5 2.5 0 002.5-2.5v-10A2.5 2.5 0 0030 25zm-2.5 10h-5v-5h5v5z" fill="url(#efqDHkkfvRLfa)"/>
  <path d="M40 40h10a2.5 2.5 0 002.5-2.5v-10A2.5 2.5 0 0050 25H40a2.5 2.5 0 00-2.5 2.5v10A2.5 2.5 0 0040 40zm2.5-10h5v5h-5v-5z" fill="url(#efqDHkkfvRLfb)"/>
  <path d="M65 60c-1.843 0-3.438 1.013-4.305 2.5H47.5v-5H50a2.5 2.5 0 002.5-2.5v-5C62.15 50 70 42.15 70 32.5c0-9.018-6.858-16.461-15.632-17.397C52.175 6.439 44.336 0 35 0c-9.336 0-17.175 6.44-19.368 15.103C6.858 16.039 0 23.482 0 32.5 0 42.15 7.85 50 17.5 50v5a2.5 2.5 0 002.5 2.5h2.5v5H9.305C8.438 61.013 6.843 60 5 60c-2.758 0-5 2.242-5 5s2.242 5 5 5c1.843 0 3.438-1.013 4.305-2.5H25a2.5 2.5 0 002.5-2.5v-7.5H30a2.5 2.5 0 002.5-2.5V45a2.5 2.5 0 00-2.5-2.5H20a2.5 2.5 0 00-2.5 2.5C10.608 45 5 39.392 5 32.5c0-6.053 4.328-11.11 10.05-12.252.13 1.258 1.157 2.252 2.45 2.252A2.5 2.5 0 0020 20c0-8.271 6.729-15 15-15 8.272 0 15 6.729 15 15a2.5 2.5 0 002.5 2.5c1.293 0 2.32-.994 2.45-2.252C60.672 21.39 65 26.447 65 32.5 65 39.392 59.392 45 52.5 45a2.5 2.5 0 00-2.5-2.5H40a2.5 2.5 0 00-2.5 2.5v10a2.5 2.5 0 002.5 2.5h2.5V65a2.5 2.5 0 002.5 2.5h15.695C61.562 68.987 63.157 70 65 70c2.758 0 5-2.242 5-5s-2.242-5-5-5zM27.5 47.5v5h-5v-5h5zm15 0h5v5h-5v-5z" fill="url(#efqDHkkfvRLfc)"/>
  <defs>
    <linearGradient id="efqDHkkfvRLfa" x1="17.5" y1="32.5" x2="32.5" y2="32.5" gradientUnits="userSpaceOnUse">
      <stop stop-color="#FF8965"/>
      <stop offset="1" stop-color="#FF6757"/>
    </linearGradient>
    <linearGradient id="efqDHkkfvRLfb" x1="37.5" y1="32.5" x2="52.5" y2="32.5" gradientUnits="userSpaceOnUse">
      <stop stop-color="#FF8965"/>
      <stop offset="1" stop-color="#FF6757"/>
    </linearGradient>
    <linearGradient id="efqDHkkfvRLfc" x1="0" y1="35" x2="70" y2="35" gradientUnits="userSpaceOnUse">
      <stop stop-color="#FF8965"/>
      <stop offset="1" stop-color="#FF6757"/>
    </linearGradient>
  </defs>
</svg>
