<svg fill="none" xmlns="http://www.w3.org/2000/svg" viewBox="0 0 9 30">
  <path fill-rule="evenodd" clip-rule="evenodd" d="M1.77 28.006c3.156-7.35 5.652-16.164 3.936-23.43a.464.464 0 00-.552-.342.464.464 0 00-.342.552C6.642 12.532 3.516 22.156 0 29.74c.666-.402 1.236-1.002 1.77-1.734z" fill="#663B55"/>
  <path fill-rule="evenodd" clip-rule="evenodd" d="M5.274 15.052c-.414-4.41-2.604-4.476-3.192-3.348-.456.882.066 2.502 3.192 3.348zm0 0c3.552-1.512 3.552-3.312 2.664-3.888-.93-.606-2.826.12-2.664 3.888z" fill="#663B55"/>
  <path fill-rule="evenodd" clip-rule="evenodd" d="M5.274 15.052c2.91-3.978 1.188-5.676-.144-5.22-1.068.366-1.89 2.13.144 5.22z" fill="#875371"/>
  <path fill-rule="evenodd" clip-rule="evenodd" d="M5.388 5.14C3.636 1.498 1.746 1.762 1.314 2.794.9 3.778 1.8 5.464 5.388 5.14zm0 0c2.61-2.472 2.25-4.104 1.35-4.506-1.074-.48-2.91.804-1.35 4.506z" fill="#663B55"/>
  <path fill-rule="evenodd" clip-rule="evenodd" d="M5.388 5.14C6.606.85 4.914-.374 3.774.094 2.64.556 2.052 2.686 5.388 5.14z" fill="#875371"/>
</svg>
