<svg fill="none" xmlns="http://www.w3.org/2000/svg" viewBox="0 0 15 18">
  <path fill-rule="evenodd" clip-rule="evenodd" d="M5.304 3.216c-.744 1.5-1.188 3.408-1.188 5.49 0 2.082.444 3.99 1.188 5.484v3.222H9.42c2.928 0 5.304-3.9 5.304-8.706C14.724 3.9 12.348 0 9.42 0H5.304v3.216z" fill="#30295E"/>
  <path fill-rule="evenodd" clip-rule="evenodd" d="M5.304 17.412c2.922 0 5.304-3.912 5.304-8.706S8.226 0 5.304 0 0 3.912 0 8.706s2.382 8.706 5.304 8.706z" fill="#413B73"/>
  <path fill-rule="evenodd" clip-rule="evenodd" d="M5.304 13.176c1.5 0 2.724-2.01 2.724-4.476S6.804 4.224 5.304 4.224c-1.5 0-2.724 2.01-2.724 4.476s1.224 4.476 2.724 4.476z" fill="#fff"/>
</svg>
