<svg fill="none" xmlns="http://www.w3.org/2000/svg" viewBox="0 0 45 53">
  <path fill-rule="evenodd" clip-rule="evenodd" d="M18.786 22.649a16.976 16.976 0 00-.636-2.586c-.498-1.482-1.182-2.7-2.004-3.69a9.233 9.233 0 00-3.072-2.412c-1.056-.516-2.196-.822-3.366-.966-1.26-.15-2.556-.096-3.828.114-.432.072-.858.162-1.284.27-.432.108-.858.234-1.278.378a.201.201 0 00-.108.09.216.216 0 00-.012.138v.012c.06.162 1.314 3.654 3.84 6.468 2.556 2.85 6.408 5.01 11.652 2.382a.19.19 0 00.084-.084.15.15 0 00.012-.114z" fill="#789EAE"/>
  <path fill-rule="evenodd" clip-rule="evenodd" d="M8.424 36.065a8.4 8.4 0 013.258.654 4.95 4.95 0 013.732-1.692c.75 0 1.458.168 2.1.462a9.094 9.094 0 018.34-5.46c5.022 0 9.096 4.074 9.096 9.096 0 .18 0 .354-.018.528a4.96 4.96 0 015.55 4.926c0 .336-.036.666-.096.984.09-.006.18-.012.27-.012a3.675 3.675 0 013.678 3.678 3.675 3.675 0 01-3.678 3.678H8.424A8.423 8.423 0 010 44.483a8.427 8.427 0 018.424-8.424v.006z" fill="#875371"/>
  <path fill-rule="evenodd" clip-rule="evenodd" d="M25.878 14.687a21.968 21.968 0 01-.036-1.65c.012-.54.042-1.062.09-1.566.192-1.878.672-3.492 1.374-4.866A11.09 11.09 0 0130.27 2.95c1.104-.888 2.358-1.554 3.696-2.028 1.44-.51 2.976-.798 4.53-.888.528-.03 1.056-.042 1.584-.03.534.012 1.074.048 1.602.102.06 0 .114.036.15.078a.218.218 0 01.048.162v.018c-.024.204-.564 4.638-2.784 8.622-2.244 4.026-6.198 7.596-13.056 5.904a.234.234 0 01-.12-.078.206.206 0 01-.048-.126h.006z" fill="#789EAE"/>
  <path d="M22.386 38.969V22.727c0-4.578 2.166-7.002 4.326-9.066m-4.326 25.308V28.127c0-3.054-2.166-4.674-4.326-6.054" stroke="#663B55" stroke-width="1.278" stroke-linecap="round" stroke-linejoin="round"/>
  <path d="M39.972 50.033a7.243 7.243 0 00-10.044-6.678 4.255 4.255 0 00-5.004-1.05 7.812 7.812 0 00-7.17-4.692m-11.52 9.99a7.244 7.244 0 019.912-2.586 7.26 7.26 0 012.136 1.902 4.267 4.267 0 014.854 1.62" stroke="#663B55" stroke-width=".852" stroke-linecap="round" stroke-linejoin="round"/>
</svg>
