<svg fill="none" xmlns="http://www.w3.org/2000/svg" viewBox="0 0 37 47">
  <path d="M33.401 22.702l2.716 19.425-17.179 3.408C7.907 47.725-1.839 38.041.296 27c1.869-9.664 4.66-20.224 8.656-27L30.14 4.559l-5.55 18.869 8.811-.726z" fill="#D87355"/>
  <path d="M24.59 23.73a.3.3 0 01-.288-.387l2.508-8.526a.3.3 0 11.578.17l-2.509 8.527a.3.3 0 01-.288.216h-.001zm-8.794 22.418c-.826 0-1.65-.065-2.466-.192a.302.302 0 01.093-.595 15.57 15.57 0 005.456-.122l16.9-3.352-.611-4.372a.3.3 0 11.597-.083l.69 4.935-17.458 3.464a16.397 16.397 0 01-3.2.317h-.001z" fill="#363E44"/>
  <path d="M21.978 23.944a.302.302 0 01-.025-.601l11.422-.94a.302.302 0 11.05.601l-11.422.94h-.025z" fill="#363E44"/>
</svg>
