<svg fill="none" xmlns="http://www.w3.org/2000/svg" viewBox="0 0 17 15">
  <path d="M15.976 10.989c0-.312-.096-.576-.264-.816.336-.24.576-.648.576-1.104 0-.504-.264-.936-.672-1.176.144-.216.216-.48.216-.744 0-.744-.624-1.368-1.368-1.368h-3.696c.12-.672.36-1.896.48-2.592.192-.96-.264-1.728-1.248-2.112a1.212 1.212 0 00-.96.048 1.13 1.13 0 00-.576.744l-.336 1.344c-.36 1.392-1.992 3.312-2.016 3.336a1.473 1.473 0 01-.696.456v-.216a.42.42 0 00-.408-.408h-3.6A.42.42 0 001 6.789V13.1a.42.42 0 00.408.408h3.6c.24 0 .408-.192.408-.408v-.24c.312 0 .624.12.912.36 1.176.96 2.952 1.2 4.368 1.2 1.176 0 2.112-.168 2.184-.192h1.464c.744 0 1.368-.624 1.368-1.368 0-.312-.096-.6-.288-.816.336-.192.552-.6.552-1.056zm-11.4 1.728H1.792V7.22h2.784v5.496zm8.088-6.096h1.8c.312 0 .552.24.552.552 0 .312-.24.552-.552.552h-1.8a.543.543 0 01-.552-.552c.024-.312.264-.552.552-.552zm-1.032 6.984c-1.32.096-3.528.072-4.776-.984-.432-.36-.936-.552-1.44-.552v-4.2a2.286 2.286 0 001.344-.744c.072-.072 1.776-2.064 2.184-3.648l.336-1.344a.327.327 0 01.168-.216.401.401 0 01.288-.024c.816.312.816.816.744 1.176-.216 1.008-.576 3.096-.576 3.096-.024.12 0 .24.096.336a.387.387 0 00.312.144h1.104c-.168.672-.696 2.088-2.52 2.304a.424.424 0 00-.36.456c.024.216.192.36.408.36h.048c.816-.096 1.44-.384 1.92-.768 0 .048-.024.072-.024.12 0 .456.216.864.576 1.104a1.329 1.329 0 00-.264.816c0 .456.216.84.552 1.104-.168.24-.288.504-.288.816-.024.216.048.432.168.648zm2.712-.144h-1.536a.543.543 0 01-.552-.552c0-.312.24-.552.552-.552h1.536c.312 0 .552.24.552.552-.024.312-.264.552-.552.552zm.264-1.92h-2.112a.543.543 0 01-.552-.552c0-.312.24-.552.552-.552h2.088c.312 0 .552.24.552.552.024.312-.216.552-.528.552zm.312-1.92h-2.712a.543.543 0 01-.552-.552c0-.312.24-.552.552-.552h2.712c.312 0 .552.24.552.552-.024.312-.264.552-.552.552z" fill="url(#wXD89_xzXrcKa)" stroke="url(#wXD89_xzXrcKb)" stroke-width=".5"/>
  <defs>
    <linearGradient id="wXD89_xzXrcKa" x1="1" y1="7.71" x2="16.288" y2="7.71" gradientUnits="userSpaceOnUse">
      <stop stop-color="#FF8965"/>
      <stop offset="1" stop-color="#FF6757"/>
    </linearGradient>
    <linearGradient id="wXD89_xzXrcKb" x1="1" y1="7.71" x2="16.288" y2="7.71" gradientUnits="userSpaceOnUse">
      <stop stop-color="#FF8965"/>
      <stop offset="1" stop-color="#FF6757"/>
    </linearGradient>
  </defs>
</svg>
