<svg fill="none" xmlns="http://www.w3.org/2000/svg" viewBox="0 0 52 44">
  <path d="M51.887 6.39H1.448v37.402h50.439V6.391z" fill="#E0AA63"/>
  <path d="M13.928 41.922a.3.3 0 01-.3-.3V8.562a.3.3 0 01.6 0v33.06a.3.3 0 01-.3.3zm22.522 0a.3.3 0 01-.3-.3V19.628a.3.3 0 01.6 0v21.994a.3.3 0 01-.3.3z" fill="#EFBC73"/>
  <path d="M41.23 18.601a.298.298 0 01-.214-.089l-2.374-2.378-1.958 1.96a.31.31 0 01-.426 0l-2.026-2.028-2.348 2.35a.3.3 0 01-.515-.213V6.888a.3.3 0 11.601 0v10.588l2.046-2.049a.31.31 0 01.427 0l2.026 2.029 1.957-1.96a.305.305 0 01.213-.09c.081 0 .157.032.213.09l2.074 2.076V6.887a.3.3 0 01.601 0v11.412a.302.302 0 01-.3.302h.003z" fill="#F7F1EB"/>
  <path d="M11.036 0C4.94 0 0 4.948 0 11.052c0 6.104 11.036 19.572 11.036 19.572S22.07 17.156 22.07 11.052C22.071 4.948 17.13 0 11.035 0zm0 18.613c-4.171 0-7.551-3.385-7.551-7.561s3.381-7.562 7.55-7.562c4.17 0 7.551 3.386 7.551 7.562s-3.381 7.561-7.55 7.561z" fill="#D87355"/>
</svg>
