<svg fill="none" xmlns="http://www.w3.org/2000/svg" viewBox="0 0 19 26">
  <path fill-rule="evenodd" clip-rule="evenodd" d="M2.316 24.74c5.85-5.46 11.676-12.528 13.026-19.866a.457.457 0 10-.9-.168C13.002 12.536 6.27 20.084 0 25.616c.768-.102 1.536-.42 2.316-.876z" fill="#663B55"/>
  <path fill-rule="evenodd" clip-rule="evenodd" d="M4.494 21.932c1.644-4.002-.144-5.124-1.2-4.494-.87.522-1.248 2.226 1.2 4.494z" fill="#663B55"/>
  <path fill-rule="evenodd" clip-rule="evenodd" d="M4.494 21.932c3.324.27 4.398-.888 4.29-1.806-.144-1.248-2.484-2.052-4.29 1.806z" fill="#663B55"/>
  <path fill-rule="evenodd" clip-rule="evenodd" d="M4.494 21.932c4.062-1.992 3.774-4.104 2.622-4.602-1.11-.48-3.024.54-2.622 4.602z" fill="#875371"/>
  <path fill-rule="evenodd" clip-rule="evenodd" d="M10.734 14.294c1.236-3.72-.174-4.884-1.2-4.554-1.044.336-1.698 2.22 1.2 4.554zm0 0c4.008.048 4.572-1.776 3.828-2.622-.702-.798-2.58-.732-3.828 2.622z" fill="#663B55"/>
  <path fill-rule="evenodd" clip-rule="evenodd" d="M10.734 14.294c3.624-2.1 3.522-4.044 2.55-4.65-1.092-.678-3.282.318-2.55 4.65z" fill="#875371"/>
  <path fill-rule="evenodd" clip-rule="evenodd" d="M14.826 5.27C14.676.998 12.642.668 11.91 1.628c-.618.816-.294 2.562 2.916 3.642zm0 0c4.884-1.746 3.39-4.386 1.764-3.894-.846.258-1.728 1.368-1.764 3.894z" fill="#663B55"/>
  <path fill-rule="evenodd" clip-rule="evenodd" d="M14.826 5.27c2.916-3.528 1.728-5.334.456-5.268-1.194.06-2.466 1.776-.456 5.268z" fill="#875371"/>
</svg>
