<svg fill="none" xmlns="http://www.w3.org/2000/svg" viewBox="0 0 13 13">
  <path d="M10.763 2.643c-1.2-1.2-2.88-1.8-4.608-1.608C3.683 1.3 1.667 3.22 1.259 5.667a5.6 5.6 0 00.576 3.528l-.816 2.568a.416.416 0 00.096.408c.072.072.192.12.288.12.024 0 .072 0 .096-.024l2.664-.72a5.672 5.672 0 003.552.576c2.496-.384 4.392-2.4 4.68-4.896.168-1.704-.408-3.384-1.632-4.584zm.792 4.512c-.216 2.088-1.896 3.84-3.96 4.176a4.691 4.691 0 01-3.168-.552c-.072-.024-.144-.048-.192-.048-.048 0-.072 0-.096.024l-2.088.576.648-1.992a.527.527 0 00-.024-.336c-.552-.96-.744-2.064-.552-3.168.336-2.064 2.088-3.744 4.176-3.96a4.777 4.777 0 013.936 1.368 4.796 4.796 0 011.32 3.912z" fill="url(#4Z3gD6xvjpGSa)" stroke="url(#4Z3gD6xvjpGSb)" stroke-width=".5"/>
  <defs>
    <linearGradient id="4Z3gD6xvjpGSa" x1="1" y1="6.646" x2="12.423" y2="6.646" gradientUnits="userSpaceOnUse">
      <stop stop-color="#FF8965"/>
      <stop offset="1" stop-color="#FF6757"/>
    </linearGradient>
    <linearGradient id="4Z3gD6xvjpGSb" x1="1" y1="6.646" x2="12.423" y2="6.646" gradientUnits="userSpaceOnUse">
      <stop stop-color="#FF8965"/>
      <stop offset="1" stop-color="#FF6757"/>
    </linearGradient>
  </defs>
</svg>
