<svg fill="none" xmlns="http://www.w3.org/2000/svg" viewBox="0 0 53 20">
  <path fill-rule="evenodd" clip-rule="evenodd" d="M38.808 19.896l-20.7-.024c-.792 0-1.812-.642-2.268-1.434L7.452 3.828c-.456-.792-.186-1.44.606-1.434l40.794.144c.786 0 1.062.648.606 1.434l-8.382 14.49c-.456.792-1.476 1.44-2.268 1.44v-.006z" fill="#875371"/>
  <path fill-rule="evenodd" clip-rule="evenodd" d="M50.724 0h-21.36a1.86 1.86 0 00-1.854 1.854 1.86 1.86 0 001.854 1.854h21.36a1.86 1.86 0 001.854-1.854A1.86 1.86 0 0050.724 0z" fill="#D08174"/>
  <path fill-rule="evenodd" clip-rule="evenodd" d="M24.096 19.896L7.98 19.872c-.792 0-2.058-.552-2.268-1.434L2.238 3.828c-.21-.888-.186-1.44.606-1.434l31.302.144c.786 0 1.062.648.606 1.434l-8.388 14.49c-.456.792-1.476 1.44-2.268 1.44v-.006z" fill="#D08174"/>
  <path fill-rule="evenodd" clip-rule="evenodd" d="M36.444 0H1.854A1.86 1.86 0 000 1.854a1.86 1.86 0 001.854 1.854h34.59a1.86 1.86 0 001.854-1.854A1.86 1.86 0 0036.444 0z" fill="#ECBD78"/>
</svg>
