<svg fill="none" xmlns="http://www.w3.org/2000/svg" viewBox="0 0 26 23">
  <path d="M24.803 22.475h-.019a.428.428 0 01-.407-.444c.036-.797.005-1.646-.086-2.522-.29-2.76-1.282-4.631-2.95-5.559-1.693-.94-3.815-.756-5.3-.437a14.418 14.418 0 00-2.905.96.437.437 0 01-.384-.006c-.012-.005-1.193-.618-2.762-1.007-1.414-.353-3.45-.59-5.107.262-1.646.848-2.666 2.63-3.036 5.305a.425.425 0 11-.843-.117c.41-2.963 1.585-4.965 3.492-5.944.845-.436 1.831-.663 2.933-.678.865-.012 1.802.107 2.787.353 1.303.326 2.33.784 2.74.98.426-.19 1.514-.633 2.885-.933 1.028-.223 2.005-.316 2.9-.277 1.14.053 2.154.32 3.012.798 1.925 1.07 3.065 3.16 3.386 6.215.096.92.127 1.811.091 2.65a.43.43 0 01-.427.401z" fill="url(#I_SAn-bO49uda)" stroke="url(#I_SAn-bO49udb)"/>
  <path d="M12.948 14.513a.424.424 0 01-.422-.382c-.005-.056-.137-1.392.414-3.374.32-1.153.807-2.294 1.446-3.385.796-1.362 1.833-2.654 3.081-3.844a.425.425 0 11.587.617c-2.675 2.548-3.805 5.104-4.281 6.798-.517 1.838-.4 3.092-.4 3.104a.426.426 0 01-.38.466h-.045z" fill="url(#I_SAn-bO49udc)" stroke="url(#I_SAn-bO49udd)"/>
  <path d="M12.911 13.643a.43.43 0 01-.297-.12 12.05 12.05 0 01-2.705-3.96 14.724 14.724 0 01-1.044-3.948c-.3-2.397.005-4.188.018-4.264a.424.424 0 01.232-.308.435.435 0 01.385.004c.934.486 1.77 1.197 2.485 2.115a11.142 11.142 0 011.458 2.536c.683 1.623.877 2.981.884 3.037a.425.425 0 01-.842.118 12.819 12.819 0 00-.834-2.846c-.524-1.242-1.456-2.864-3-3.888a16.1 16.1 0 00.065 3.415c.264 2.08 1.083 5.046 3.492 7.376a.425.425 0 01.01.601.419.419 0 01-.307.132z" fill="url(#I_SAn-bO49ude)" stroke="url(#I_SAn-bO49udf)"/>
  <defs>
    <linearGradient id="I_SAn-bO49uda" x1="1" y1="17.381" x2="25.245" y2="17.381" gradientUnits="userSpaceOnUse">
      <stop stop-color="#FF8965"/>
      <stop offset="1" stop-color="#FF6757"/>
    </linearGradient>
    <linearGradient id="I_SAn-bO49udb" x1="1" y1="17.381" x2="25.245" y2="17.381" gradientUnits="userSpaceOnUse">
      <stop stop-color="#FF8965"/>
      <stop offset="1" stop-color="#FF6757"/>
    </linearGradient>
    <linearGradient id="I_SAn-bO49udc" x1="12.508" y1="8.962" x2="18.186" y2="8.962" gradientUnits="userSpaceOnUse">
      <stop stop-color="#FF8965"/>
      <stop offset="1" stop-color="#FF6757"/>
    </linearGradient>
    <linearGradient id="I_SAn-bO49udd" x1="12.508" y1="8.962" x2="18.186" y2="8.962" gradientUnits="userSpaceOnUse">
      <stop stop-color="#FF8965"/>
      <stop offset="1" stop-color="#FF6757"/>
    </linearGradient>
    <linearGradient id="I_SAn-bO49ude" x1="8.733" y1="7.321" x2="14.331" y2="7.321" gradientUnits="userSpaceOnUse">
      <stop stop-color="#FF8965"/>
      <stop offset="1" stop-color="#FF6757"/>
    </linearGradient>
    <linearGradient id="I_SAn-bO49udf" x1="8.733" y1="7.321" x2="14.331" y2="7.321" gradientUnits="userSpaceOnUse">
      <stop stop-color="#FF8965"/>
      <stop offset="1" stop-color="#FF6757"/>
    </linearGradient>
  </defs>
</svg>
