<svg fill="none" xmlns="http://www.w3.org/2000/svg" viewBox="0 0 29 57">
  <path d="M.223 45.544S6.78 26.184 9.93 18.551C13.24 10.535 19.291-.82 20.87.047c.9.494.394 2.213-1.263 6.718.311-.143 1.363-.347 2.121.248 1.122.88.66 1.982.666 2.098.1-.057 1.295-.649 2.146-.187.959.52 1.195 1.415 1.117 2.268.257-.136 1.44-.525 2.234-.041 1.033.63 1.012 1.97.617 2.888-.724 1.684-2.818 6.236-3.619 8.784-1.573 5.015-3.696 24.393-8.965 30.224C6.51 63.465-1.443 50.603.222 45.543l.001.001z" fill="#E2A18D"/>
  <path d="M18.737 22.226h-.016a.3.3 0 01-.285-.317c.1-1.833-.505-3.208-.991-4.312-.506-1.147-.943-2.139-.111-2.963.482-.477.826-1.307.998-2.401a.474.474 0 00-.241-.496.48.48 0 00-.56.053l-4.298 3.648a.301.301 0 01-.39-.46l4.298-3.649c.353-.299.84-.345 1.245-.118.4.224.613.662.542 1.114-.194 1.24-.587 2.16-1.17 2.737-.514.51-.285 1.104.239 2.292.484 1.101 1.15 2.61 1.042 4.588a.301.301 0 01-.3.284h-.002z" fill="#363E44"/>
  <path d="M26.266 16.8a.308.308 0 01-.12-.024 3.134 3.134 0 01-1.893-2.916l-.067.109a2.1 2.1 0 01-2.547.874 2.092 2.092 0 01-1.182-1.13 2.091 2.091 0 01-.015-1.635l.192-.471a1.748 1.748 0 01-1.54-.025 1.741 1.741 0 01-.828-2.168L19 7.485a.302.302 0 01.389-.175.3.3 0 01.173.39l-.735 1.929a1.138 1.138 0 002.067.948l.678-1.252a.3.3 0 01.544.259l-1.12 2.724a1.49 1.49 0 00.012 1.166 1.5 1.5 0 002.661.182l1.147-1.89a.3.3 0 01.386-.117c.14.066.206.226.157.372l-.369 1.064a2.525 2.525 0 001.39 3.138.3.3 0 01-.12.578h.005z" fill="#363E44"/>
</svg>
