<svg fill="none" xmlns="http://www.w3.org/2000/svg" viewBox="0 0 24 21">
  <path d="M3.208 10.423a.748.748 0 00.49-.171l4.996-4.335 3.184 2.767c.293.245.71.245.98-.024l4.946-4.53 1.25 1.248a.7.7 0 00.513.22c.074 0 .147 0 .22-.024a.713.713 0 00.515-.563L21.11.872a.726.726 0 00-.196-.661.726.726 0 00-.66-.196L16.09.799a.713.713 0 00-.563.514c-.074.27 0 .539.171.735L16.751 3.1l-4.408 4.04-3.184-2.767a.713.713 0 00-.955 0L2.718 9.125a.713.713 0 00-.073 1.029c.147.171.367.27.563.27zM19.47 1.656l-.343 1.714-1.395-1.396 1.738-.318z" fill="url(#XUsFrIJFVcLBa)"/>
  <path d="M22.873 19.337h-1.518v-8.89a.722.722 0 00-.735-.734.722.722 0 00-.734.735v8.89h-1.47V7.753a.722.722 0 00-.734-.735.722.722 0 00-.735.735v11.583h-1.47v-6.44a.722.722 0 00-.734-.735.722.722 0 00-.735.734v6.441h-1.47v-4.481a.722.722 0 00-.734-.735.722.722 0 00-.735.735v4.481H9.6v-8.89a.722.722 0 00-.735-.734.722.722 0 00-.734.735v8.89H6.66v-2.523a.722.722 0 00-.734-.735.722.722 0 00-.735.735v2.522h-1.47V14.61a.722.722 0 00-.734-.735.722.722 0 00-.735.735v4.726H.735a.722.722 0 00-.735.735c0 .416.318.735.735.735h22.139a.722.722 0 00.734-.735.722.722 0 00-.735-.735z" fill="url(#XUsFrIJFVcLBb)"/>
  <defs>
    <linearGradient id="XUsFrIJFVcLBa" x1="2.46" y1="5.212" x2="21.125" y2="5.212" gradientUnits="userSpaceOnUse">
      <stop stop-color="#FF8965"/>
      <stop offset="1" stop-color="#FF6757"/>
    </linearGradient>
    <linearGradient id="XUsFrIJFVcLBb" x1="0" y1="13.913" x2="23.608" y2="13.913" gradientUnits="userSpaceOnUse">
      <stop stop-color="#FF8965"/>
      <stop offset="1" stop-color="#FF6757"/>
    </linearGradient>
  </defs>
</svg>
