<svg fill="none" xmlns="http://www.w3.org/2000/svg" viewBox="0 0 33 50">
  <path d="M32.203 23.132c-.646-.541-1.682-.605-2.705-.168-.873.372-2.648 1.53-3.659 4.945.023-.257.04-.5.07-.72.064-.53-.034-.891-.104-1.078.07-.204.116-.511.111-.966-.011-.838-.04-1.92-.075-3.125-.1-3.497-.238-8.279.07-10.723.064-.518-.063-.872-.174-1.07.086-.19.209-.552.28-1.164.138-1.245.383-2.718.942-3.968.985.75 1.17 1.827 1.41 3.287.459 2.809-.21 13.136-.31 13.66v.012a.294.294 0 00.157.355c.041.018.082.03.123.03.1 0 .19-.053.25-.14.007-.01.011-.034.023-.063h.007c.063-.198.19-.523.361-.955 1.316-3.363 5.307-13.59.734-19.188-.023-.03-.052-.046-.082-.064-.011-.007-.023-.011-.034-.018-.011 0-.03-.011-.04-.018l-4.3-.984c-.035 0-.792-.1-1.49.373-.622.418-1.118 1.234-1.86 2.525-.74 1.28-1.317 3.647-1.433 5.109-.045.559.041.918.128 1.14-.153.157-.303.43-.31.896-.01 1.41.041 3.525.094 5.766.075 3.136.157 6.377.086 8.29-.018.471.03.78.093.99-.138.127-.268.372-.272.838-.012 1.41.04 3.525.093 5.766.075 3.136.157 6.377.086 8.29-.034 1 .198 1.299.343 1.385.03.018.06.03.094.034.045.011 1.222.261 2.286.261.895 0 2.223-.25 2.282-.26a.326.326 0 00.093-.035c.145-.082.384-.366.373-1.355 0-.309-.012-.656-.018-1.03a.328.328 0 00.034-.115c.495-6.673 1.57-10.136 1.78-10.764 1.04-3.1 2.465-4.934 4.235-5.44.112-.03.175-.046.232-.087a.293.293 0 00.127-.227.304.304 0 00-.104-.239l-.027.012zm-7.28 2.904c-.436.07-1.134.168-1.675.175h-.173c-.111 0-.227-.006-.343-.011h-.045c-.087 0-.169-.011-.257-.018a12.955 12.955 0 01-1.316-.191c-.041-.093-.105-.332-.087-.855.071-1.936-.006-5.184-.081-8.331-.053-2.234-.105-4.346-.094-5.748 0-.325.105-.466.164-.523a22.8 22.8 0 002.264.127c.604.019 1.559-.075 1.961-.115.06.127.127.354.087.681-.31 2.491-.18 7.105-.075 10.81.034 1.197.063 2.274.075 3.113 0 .425-.041.652-.071.762a1.91 1.91 0 01-.343.122l.009.002zm3.875-5.952c.232-3.42.46-9.809.139-11.8-.25-1.518-.47-2.827-1.716-3.722.488-.88 1.181-1.589 2.147-1.937 3.794 4.912.919 13.528-.57 17.462v-.003zm-7.766-11.02c.111-1.402.682-3.689 1.354-4.864.682-1.181 1.164-1.984 1.682-2.334.377-.256.791-.284.973-.284h.086l3.398.773c-2.234 1.257-2.839 4.323-3.095 6.632-.06.536-.157.827-.216.959-.407.034-1.507.122-1.92.122a41.772 41.772 0 01-2.171-.122c-.053-.128-.134-.407-.094-.896l.003.014zm4.211 32.81c-.32.058-1.361.231-2.07.231-.82 0-1.746-.168-2.055-.227-.04-.093-.104-.332-.086-.855.07-1.931-.007-5.184-.082-8.325-.052-2.234-.104-4.352-.093-5.748a.95.95 0 01.064-.39c.231.045.79.138 1.425.197h.045c.06 0 .123.012.18.012.127.011.26.018.39.018h.244c.854.011 1.443-.087 1.827-.187a3.04 3.04 0 00.29-.052c.024.134.035.32.008.552-.31 2.491-.18 7.105-.075 10.81.034 1.197.063 2.275.075 3.113.006.536-.07.768-.087.832v.018zm1.91-12.934c-.164.488-.844 2.681-1.38 6.713a189.54 189.54 0 01-.06-3.532c.43-6.597 3.178-8.268 4.003-8.622.548-.232 1.1-.298 1.548-.191-1.728.739-3.114 2.63-4.119 5.632h.007z" fill="url(#7ggTwdRLPygLa)" stroke="url(#7ggTwdRLPygLb)"/>
  <path d="M19.444 17.652c0-.47-.157-.738-.31-.895.087-.22.17-.582.128-1.134-.116-1.455-.698-3.823-1.432-5.11-.627-1.1-1.443-1.902-2.42-2.39-1.13-.564-1.984-.284-2.018-.273a.263.263 0 00-.075.04l-1.194.844c-.215-.682-.47-1.316-.745-1.79-.739-1.292-1.239-2.108-1.861-2.526a2.299 2.299 0 00-1.514-.366l-4.277.978s-.03.01-.041.018c-.012 0-.023.007-.034.018a.462.462 0 00-.082.064c-4.573 5.597-.575 15.824.734 19.188.168.43.298.757.361.954h.007s.012.053.023.064a.298.298 0 00.25.139c.04 0 .082-.007.123-.03a.292.292 0 00.156-.354v-.012c-.1-.523-.768-10.845-.309-13.66.239-1.462.425-2.537 1.41-3.287.559 1.25.802 2.723.943 3.968.07.611.186.973.272 1.164a1.792 1.792 0 00-.175 1.07c.303 2.443.169 7.232.07 10.723a227.424 227.424 0 00-.074 3.125c0 .46.045.761.111.966-.075.186-.175.54-.104 1.077.093.757.145 1.739.168 2.839-.96-3.764-2.805-4.998-3.696-5.382-1.011-.43-2.081-.354-2.734.19a.284.284 0 00-.104.24.28.28 0 00.127.227c.06.04.127.059.232.086 1.768.512 3.193 2.339 4.236 5.441.21.627 1.287 4.091 1.78 10.764 0 .011.007.023.011.034.07.518.232.698.336.761.03.018.06.03.094.034.059.012 1.38.262 2.281.262 1.064 0 2.234-.25 2.287-.262a.326.326 0 00.093-.034c.146-.086.377-.39.343-1.384-.07-1.913.007-5.161.087-8.298.052-2.24.104-4.352.093-5.759 0-.466-.134-.709-.273-.839.064-.209.111-.522.093-.988-.07-1.92.007-5.162.087-8.298.052-2.24.104-4.352.093-5.76 0-.47-.157-.738-.31-.895.087-.22.169-.581.128-1.134 0-.03-.007-.059-.011-.086.28.355.604 1.21.902 3.711.07.612.186.966.28 1.157-.112.198-.24.56-.176 1.078.303 2.443.169 7.232.07 10.722a229.522 229.522 0 00-.074 3.125c0 .46.045.762.111.966-.075.187-.175.541-.104 1.078.302 2.443.168 7.232.07 10.723a230.491 230.491 0 00-.075 3.125c-.011.988.227 1.275.373 1.354.03.018.059.03.093.034.06.011 1.38.261 2.282.261 1.064 0 2.234-.25 2.286-.26a.326.326 0 00.093-.035c.146-.086.378-.39.344-1.384-.07-1.914.006-5.161.086-8.298.052-2.24.105-4.352.093-5.759 0-.466-.134-.71-.273-.839.064-.209.112-.522.094-.988-.07-1.92.006-5.162.086-8.298.052-2.241.105-4.352.093-5.76l-.018-.045zm-.675 5.748c-.075 3.148-.157 6.4-.082 8.332.023.552-.052.786-.07.854-.21.041-.739.139-1.32.191-.087.007-.176.018-.262.018h-.046a5.698 5.698 0 01-.343.012h-.179c-.537-.012-1.216-.105-1.652-.175a1.744 1.744 0 01-.344-.123c-.034-.116-.082-.343-.075-.768.012-.839.041-1.914.075-3.114.105-3.711.239-8.325-.075-10.809a1.27 1.27 0 01.087-.682c.402.041 1.354.134 1.961.116.977 0 1.955-.093 2.264-.127.059.059.163.198.163.523.012 1.395-.04 3.509-.093 5.743l-.01.009zm-6.452-3.577c-.075 3.147-.157 6.4-.082 8.331.023.553-.053.787-.07.855-.21.04-.74.139-1.321.19-.086.008-.168.019-.257.019h-.045a5.785 5.785 0 01-.344.011h-.179c-.536-.011-1.216-.104-1.652-.175a1.742 1.742 0 01-.344-.122c-.034-.116-.081-.344-.075-.769.012-.838.041-1.913.075-3.113.105-3.712.24-8.325-.075-10.81-.04-.324.03-.558.087-.681.402.04 1.354.134 1.961.116.977 0 1.955-.093 2.264-.127.059.059.163.197.163.522.012 1.396-.04 3.51-.093 5.744l-.013.009zm-7.989-8.514c-.325 1.99-.093 8.373.139 11.8-1.496-3.934-4.364-12.55-.57-17.462.972.35 1.659 1.06 2.147 1.937-1.245.895-1.466 2.204-1.716 3.722v.003zm.407-5.928l3.375-.768s.575-.063 1.089.28c.518.35 1 1.152 1.681 2.334.675 1.175 1.246 3.461 1.355 4.864.04.488-.04.768-.093.895-.361.03-1.35.104-2.17.123-.414 0-1.514-.087-1.921-.123-.06-.139-.157-.43-.216-.96-.257-2.308-.866-5.38-3.095-6.63l-.005-.015zM2.019 28.025c.46-.123 1.03-.064 1.589.175 1.03.443 3.48 2.152 3.893 8.506 0 .041.011.075.03.112-.019 1.04-.041 2.077-.071 3.054-.523-3.711-1.152-5.736-1.309-6.209-1.011-3.009-2.398-4.904-4.132-5.638zm10.298 7.686c-.075 3.148-.157 6.4-.082 8.332.023.552-.052.786-.07.854-.298.06-1.235.232-2.066.232-.698 0-1.723-.168-2.06-.232-.04-.093-.104-.325-.1-.832.012-.838.041-1.913.075-3.113.105-3.712.24-8.325-.075-10.81a1.796 1.796 0 01.007-.552l.291.053c.384.104.973.197 1.827.186h.237c.134 0 .268-.011.395-.018.06 0 .116-.007.175-.012h.053a16.863 16.863 0 001.425-.197c.022.045.063.163.063.39.011 1.396-.04 3.51-.093 5.744l-.002-.025zm.47-24.518l-.093-.06a18.236 18.236 0 00-.396-1.815l1.316-.932c.153-.041.75-.146 1.537.25.872.436 1.6 1.163 2.175 2.163.675 1.175 1.245 3.462 1.354 4.864.041.489-.04.768-.093.895-.361.03-1.35.105-2.17.123-.414 0-1.507-.086-1.92-.123-.06-.138-.158-.429-.221-.965-.414-3.514-.902-4.062-1.496-4.405l.007.005zm5.982 28.095c-.075 3.148-.157 6.4-.082 8.332.023.552-.052.786-.07.854-.298.06-1.235.232-2.066.232-.698 0-1.723-.168-2.06-.232-.04-.093-.104-.325-.1-.832.012-.838.041-1.913.075-3.113.105-3.712.24-8.326-.074-10.81a1.797 1.797 0 01.006-.552c.07.012.175.03.298.053.384.104.973.19 1.82.186h.237c.134 0 .268-.011.395-.018.06 0 .116-.007.175-.011h.053c.627-.06 1.186-.153 1.425-.198.022.045.063.163.063.39.012 1.396-.04 3.51-.093 5.744l-.002-.025z" fill="url(#7ggTwdRLPygLc)" stroke="url(#7ggTwdRLPygLd)"/>
  <defs>
    <linearGradient id="7ggTwdRLPygLa" x1="20.292" y1="21.836" x2="32.334" y2="21.836" gradientUnits="userSpaceOnUse">
      <stop stop-color="#FF8965"/>
      <stop offset="1" stop-color="#FF6757"/>
    </linearGradient>
    <linearGradient id="7ggTwdRLPygLb" x1="20.292" y1="21.836" x2="32.334" y2="21.836" gradientUnits="userSpaceOnUse">
      <stop stop-color="#FF8965"/>
      <stop offset="1" stop-color="#FF6757"/>
    </linearGradient>
    <linearGradient id="7ggTwdRLPygLc" x1="1" y1="26.678" x2="19.464" y2="26.678" gradientUnits="userSpaceOnUse">
      <stop stop-color="#FF8965"/>
      <stop offset="1" stop-color="#FF6757"/>
    </linearGradient>
    <linearGradient id="7ggTwdRLPygLd" x1="1" y1="26.678" x2="19.464" y2="26.678" gradientUnits="userSpaceOnUse">
      <stop stop-color="#FF8965"/>
      <stop offset="1" stop-color="#FF6757"/>
    </linearGradient>
  </defs>
</svg>
