<svg fill="none" xmlns="http://www.w3.org/2000/svg" viewBox="0 0 77 76">
  <path d="M0 44.352h3.74a34.231 34.231 0 001.42 5.278l-3.236 1.858 6.329 10.9 3.244-1.862a35 35 0 003.883 3.86l-1.873 3.226 10.962 6.292 1.868-3.218a34.59 34.59 0 005.308 1.411v3.719h12.657v-3.719a34.708 34.708 0 005.307-1.411l1.87 3.218 10.96-6.292-1.872-3.225a34.888 34.888 0 003.883-3.861l3.244 1.862 6.33-10.9-3.237-1.858a34.226 34.226 0 001.42-5.278h3.74V31.766h-3.74a34.222 34.222 0 00-1.42-5.277l3.236-1.858-6.329-10.9-3.245 1.862a35.009 35.009 0 00-3.882-3.86l1.873-3.226-10.962-6.293-1.869 3.219a34.582 34.582 0 00-5.307-1.411V.303H31.645v3.719a34.697 34.697 0 00-5.308 1.411L24.47 2.214 13.507 8.507l1.873 3.225a34.888 34.888 0 00-3.883 3.86l-3.244-1.861-6.33 10.9L5.16 26.49a34.227 34.227 0 00-1.42 5.277H0v12.586zM50.291 8.684c7.925 2.979 14.227 9.245 17.223 17.125 10.179 26.774-14.935 51.746-41.86 41.625C17.73 64.456 11.43 58.19 8.434 50.31-1.747 23.535 23.365-1.436 50.291 8.684h-.001z" fill="#D3BBA3"/>
  <path d="M75.944 44.653h-3.74a.3.3 0 110-.601h3.438V32.068h-3.438a.303.303 0 01-.297-.247 34.01 34.01 0 00-1.407-5.23.3.3 0 01.134-.363l2.974-1.708-6.026-10.378-2.984 1.713a.301.301 0 01-.378-.065 34.89 34.89 0 00-3.848-3.828.303.303 0 01-.066-.381l1.721-2.965-10.44-5.993-1.718 2.959a.3.3 0 01-.36.132 34.579 34.579 0 00-5.263-1.398.3.3 0 01-.247-.297V.601H31.944V4.02a.3.3 0 01-.601 0V.301a.3.3 0 01.3-.301h12.658a.3.3 0 01.3.3v3.47c1.648.312 3.283.748 4.872 1.294l1.743-3.004a.303.303 0 01.411-.11L62.59 8.241a.3.3 0 01.11.412l-1.747 3.009a35.276 35.276 0 013.562 3.54l3.028-1.739a.301.301 0 01.412.111l6.327 10.9c.04.07.051.152.03.23a.297.297 0 01-.14.183l-3.02 1.734c.55 1.576.987 3.203 1.303 4.84h3.49a.3.3 0 01.3.3v12.586a.3.3 0 01-.3.3v.005zm-6.116-6.292a.3.3 0 01-.3-.3c0-4.054-.773-8.14-2.296-12.144-2.971-7.817-9.184-13.995-17.046-16.95-4.379-1.646-8.839-2.407-13.257-2.265a.3.3 0 11-.02-.601c4.498-.145 9.036.63 13.489 2.303 8.023 3.017 14.364 9.321 17.397 17.3 1.55 4.073 2.335 8.23 2.335 12.358a.3.3 0 01-.3.3l-.002-.001z" fill="#D3BBA3"/>
  <path d="M9.471 38.059c0 8.583 3.838 16.276 9.902 21.472a28.43 28.43 0 0016.156 6.765c.803.07 1.619.104 2.442.104.824 0 1.64-.034 2.446-.104A28.462 28.462 0 0054.713 61c7.127-5.152 11.761-13.509 11.761-22.942 0-15.651-12.76-28.341-28.503-28.341s-28.5 12.69-28.5 28.341v.002z" fill="#776E42"/>
</svg>
