<svg fill="none" xmlns="http://www.w3.org/2000/svg" viewBox="0 0 79 58">
  <path d="M78.068 0H0v57.89h78.068V0z" fill="#EFBC73"/>
  <path d="M19.317 54.83a.3.3 0 01-.3-.301V3.362a.3.3 0 11.6 0v51.167a.3.3 0 01-.3.3zm34.859 0a.3.3 0 01-.3-.301v-34.04a.3.3 0 11.6 0v34.04a.3.3 0 01-.3.3z" fill="#E0AA63"/>
  <path d="M61.574 18.734a.298.298 0 01-.213-.09l-3.793-3.798-3.146 3.151a.31.31 0 01-.426 0l-3.253-3.258-3.75 3.757a.301.301 0 01-.514-.213V.766a.3.3 0 11.602 0v16.789L50.53 14.1a.31.31 0 01.426 0l3.253 3.258 3.146-3.152a.31.31 0 01.426 0l3.492 3.497V.768a.3.3 0 01.601 0v17.664a.303.303 0 01-.3.302z" fill="#F7F1EB"/>
</svg>
