<svg fill="none" xmlns="http://www.w3.org/2000/svg" viewBox="0 0 62 30">
  <path fill-rule="evenodd" clip-rule="evenodd" d="M5.13 0c2.82 0 5.13 2.31 5.13 5.13v19.362c0 2.82-2.31 5.13-5.13 5.13A5.143 5.143 0 010 24.492V5.13C0 2.31 2.31 0 5.13 0z" fill="#789EAE"/>
  <path fill-rule="evenodd" clip-rule="evenodd" d="M15.39 0a5.143 5.143 0 00-5.13 5.13v19.362c0 2.82 2.31 5.13 5.13 5.13s5.13-2.31 5.13-5.13V5.13c0-2.82-2.31-5.13-5.13-5.13z" fill="#A0CDBC"/>
  <path fill-rule="evenodd" clip-rule="evenodd" d="M25.656 0c2.82 0 5.13 2.31 5.13 5.13v19.362c0 2.82-2.31 5.13-5.13 5.13s-5.13-2.31-5.13-5.13V5.13c0-2.82 2.31-5.13 5.13-5.13z" fill="#6181A4"/>
  <path fill-rule="evenodd" clip-rule="evenodd" d="M35.916 0c-2.82 0-5.13 2.31-5.13 5.13v19.362c0 2.82 2.31 5.13 5.13 5.13 2.826 0 5.13-2.31 5.13-5.13V5.13c0-2.82-2.31-5.13-5.13-5.13z" fill="#839FD1"/>
  <path fill-rule="evenodd" clip-rule="evenodd" d="M46.182 0c2.826 0 5.13 2.31 5.13 5.13v19.362c0 2.82-2.31 5.13-5.13 5.13s-5.13-2.31-5.13-5.13V5.13c0-2.82 2.31-5.13 5.13-5.13z" fill="#789EAE"/>
  <path fill-rule="evenodd" clip-rule="evenodd" d="M56.442 0c-2.82 0-5.13 2.31-5.13 5.13v19.362c0 2.82 2.31 5.13 5.13 5.13 2.826 0 5.13-2.31 5.13-5.13V5.13c0-2.82-2.31-5.13-5.13-5.13z" fill="#A0CDBC"/>
</svg>
