<svg fill="none" xmlns="http://www.w3.org/2000/svg" viewBox="0 0 16 29">
  <path d="M13.728 5.154H2.01c-1.11 0-2.01.9-2.01 2.01v14.478c0 1.11.9 2.01 2.01 2.01h11.718c1.11 0 2.01-.9 2.01-2.01V7.164c0-1.11-.9-2.01-2.01-2.01z" fill="#fff"/>
  <path fill-rule="evenodd" clip-rule="evenodd" d="M1.26 5.154h13.218a.91.91 0 00.906-.906c0-.498-.408-.9-.906-.9H1.26a.908.908 0 00-.906.9.91.91 0 00.906.906z" fill="#30295E"/>
  <path d="M2.028 0h11.676a1.675 1.675 0 010 3.348H2.028a1.675 1.675 0 010-3.348z" fill="#fff"/>
  <path fill-rule="evenodd" clip-rule="evenodd" d="M1.26 23.652h13.218a.91.91 0 01.906.906.91.91 0 01-.906.906H1.26a.91.91 0 01-.906-.906.91.91 0 01.906-.906z" fill="#30295E"/>
  <path fill-rule="evenodd" clip-rule="evenodd" d="M2.028 28.812h11.676c.918 0 1.674-.756 1.674-1.674 0-.924-.756-1.674-1.674-1.674H2.028c-.924 0-1.674.756-1.674 1.674 0 .918.756 1.674 1.674 1.674z" fill="#fff"/>
</svg>
