<svg fill="none" xmlns="http://www.w3.org/2000/svg" viewBox="0 0 12 29">
  <path fill-rule="evenodd" clip-rule="evenodd" d="M2.004 27.336c4.218-6.798 7.998-15.138 7.392-22.578a.465.465 0 00-.492-.42.461.461 0 00-.42.492C9.138 12.762 4.608 21.81 0 28.782c.72-.3 1.374-.804 2.004-1.446z" fill="#663B55"/>
  <path fill-rule="evenodd" clip-rule="evenodd" d="M3.372 24.054c3.39-.63 4.062-2.1 3.636-2.946-.552-1.092-2.916-1.152-3.636 2.946z" fill="#663B55"/>
  <path fill-rule="evenodd" clip-rule="evenodd" d="M3.372 24.054c2.94-2.622 2.64-4.458 1.68-4.98-1.182-.648-3.36.69-1.68 4.98z" fill="#875371"/>
  <path fill-rule="evenodd" clip-rule="evenodd" d="M7.398 15.048c.228-3.996-1.512-4.704-2.406-4.044-.864.642-.93 2.58 2.406 4.044z" fill="#663B55"/>
  <path fill-rule="evenodd" clip-rule="evenodd" d="M7.398 15.048c4.248-1.098 4.014-3.24 2.832-3.672-.942-.342-2.49.414-2.832 3.672z" fill="#663B55"/>
  <path fill-rule="evenodd" clip-rule="evenodd" d="M7.398 15.048c3.21-3.234 2.214-5.142.948-5.208-1.2-.06-2.64 1.53-.948 5.208z" fill="#875371"/>
  <path fill-rule="evenodd" clip-rule="evenodd" d="M8.994 5.268c-1.092-3.552-2.79-3.852-3.51-3.138-.81.804-.39 2.904 3.51 3.138zm0 0c2.922-2.034 2.838-3.684 2.034-4.23-.984-.672-3.036.3-2.034 4.23z" fill="#663B55"/>
  <path fill-rule="evenodd" clip-rule="evenodd" d="M8.994 5.268C10.704 1.5 9.546-.03 8.412 0c-1.296.036-2.568 2.13.582 5.268z" fill="#875371"/>
</svg>
