<svg fill="none" xmlns="http://www.w3.org/2000/svg" viewBox="0 0 61 61">
  <path d="M60.503 35.657l-2.795-.977c.225-1.45.332-2.9.325-4.337l2.907-.552-1.868-9.846-2.914.552a27.677 27.677 0 00-1.888-3.915l2.248-1.936-6.54-7.593-2.242 1.932a27.286 27.286 0 00-3.595-2.447l.977-2.795-9.46-3.306-.978 2.795a27.38 27.38 0 00-4.337-.325L29.79 0l-9.846 1.867.552 2.914a27.675 27.675 0 00-3.915 1.888l-1.936-2.247-7.593 6.54 1.932 2.242a27.286 27.286 0 00-2.447 3.595l-2.795-.977-3.306 9.46 2.795.978a27.38 27.38 0 00-.325 4.337L0 31.149l1.867 9.846 2.914-.554a27.686 27.686 0 001.888 3.916l-2.247 1.935 6.54 7.593 2.242-1.931a27.3 27.3 0 003.595 2.446l-.977 2.795 9.46 3.306.978-2.795c1.449.226 2.9.332 4.337.325l.552 2.907 9.846-1.867-.552-2.914a27.677 27.677 0 003.915-1.888l1.936 2.247 7.593-6.54-1.93-2.241a27.33 27.33 0 002.446-3.596l2.795.977 3.306-9.46-.001.001zm-14.1.973c-3.22 8.35-12.5 12.822-21.037 10.142-9.428-2.96-14.384-13.242-10.83-22.462 3.22-8.35 12.5-12.822 21.038-10.142C45 17.128 49.959 27.41 46.403 36.63z" fill="#fff"/>
  <path d="M30.474 52.695c-2.448 0-4.924-.404-7.335-1.247A22.075 22.075 0 0110.452 40.12a22.078 22.078 0 01-.96-16.98 22.205 22.205 0 019.937-11.954 22.218 22.218 0 0115.149-2.558.302.302 0 01-.112.593C24.053 7.25 13.563 13.32 10.062 23.34a21.473 21.473 0 00.934 16.52 21.474 21.474 0 0012.343 11.02c9.298 3.25 19.616-.19 25.09-8.361a.303.303 0 01.418-.084c.138.093.175.28.083.419a22.208 22.208 0 01-18.455 9.842h-.001z" fill="#F2E6DC"/>
</svg>
