<svg fill="none" xmlns="http://www.w3.org/2000/svg" viewBox="0 0 73 73">
  <path d="M10.616 45.846a27.436 27.436 0 01-1.556-7.05l-9.029.056c.23 3.397.938 6.78 2.133 10.067 2.75 7.562 7.8 13.864 14.445 18.15l4.451-7.859a27.337 27.337 0 01-10.444-13.366v.002z" fill="#D87355"/>
  <path d="M38.858 9.074c10.298.923 19.659 7.64 23.42 17.982 2.874 7.902 1.882 16.283-2 23.064l7.455 5.1a37.337 37.337 0 001.774-3.344c4.12-8.83 4.555-18.737 1.224-27.895-3.33-9.157-10.029-16.47-18.86-20.59A36.491 36.491 0 0038.937.034l-.078 9.038v.002z" fill="#8B865C"/>
  <path d="M9.036 34.45c.778-10.458 7.538-20.018 18.016-23.83a27.412 27.412 0 017.459-1.59L34.589 0a36.619 36.619 0 00-10.612 2.167c-9.157 3.33-16.47 10.028-20.59 18.859A36.43 36.43 0 000 34.506l9.034-.058.002.002zm48.792 19.262a27.328 27.328 0 01-11.986 8.57c-7.118 2.588-14.623 2.042-21-.928l-4.447 7.855c.207.102.416.204.627.302 8.83 4.12 18.736 4.555 27.895 1.224 6.573-2.39 12.195-6.516 16.368-11.92l-7.457-5.103z" fill="#EFBC73"/>
</svg>
