<svg fill="none" xmlns="http://www.w3.org/2000/svg" viewBox="0 0 55 28">
  <path fill-rule="evenodd" clip-rule="evenodd" d="M52.206 7.765c-2.388 1.044-7.854 2.022-10.794 2.502-4.086.66-4.812-.972-1.458-3.282 2.412-1.662 6.966-4.692 9.42-5.586 4.752-1.734 7.458 4.356 2.832 6.372v-.006z" fill="#6181A4"/>
  <path fill-rule="evenodd" clip-rule="evenodd" d="M47.016 6.361c-2.118 1.524-7.248 3.63-10.026 4.716-3.858 1.506-4.908.066-2.118-2.904 2.01-2.136 5.82-6.048 8.034-7.44 4.284-2.694 8.208 2.688 4.11 5.634v-.006z" fill="#789EAE"/>
  <path fill-rule="evenodd" clip-rule="evenodd" d="M46.68 6.061c-2.574.438-7.68 2.604-10.398 3.816-3.78 1.686-3.498 3.45.576 3.546 2.928.072 8.394.114 10.944-.48 4.926-1.152 3.858-7.728-1.116-6.882h-.006z" fill="#A0CDBC"/>
  <path fill-rule="evenodd" clip-rule="evenodd" d="M25.644 4.693c-5.568 2.088-15.696 9.648-21.06 13.824-7.452 5.802-5.562 10.326 3.804 9.102 6.738-.882 19.242-2.772 24.636-5.268 10.44-4.824 3.39-21.696-7.38-17.664v.006z" fill="#D08174"/>
</svg>
