<svg fill="none" xmlns="http://www.w3.org/2000/svg" viewBox="0 0 26 33">
  <path d="M24.756 20.63A6012.836 6012.836 0 0113.068 8.115C11.642 6.56 4.63-.912 3.53.092c-.702.643 2.731 4.443 3.278 5.15-.851-.66-4.652-4.712-5.349-4.195-.755.563 3.629 6.15 3.65 6.204C4.565 6.71.652 2.662.08 3.252c-.663.686 3.032 5.249 3.674 5.957C3.62 9.232.934 6.113.198 6.694c-.656.516 2.264 4.198 2.591 4.765.9 1.455 2.891 3.859 5.014 6.704 4.985 6.682 7.488 9.453 10.481 12.245 1.161 1.083 3.81 2.576 7.078 1.236-.23-3.461-.377-7.553-.607-11.015h.002z" fill="#E2A18D"/>
  <path d="M8.995 10.047a.306.306 0 01-.21-.084C5.014 6.296 5.43 5.728 5.63 5.453c.186-.255.574-.785 4.614 1.284a.301.301 0 11-.275.537C6.976 5.74 6.257 5.782 6.126 5.816c.008.144.213.93 3.078 3.716a.302.302 0 01-.21.518v-.003z" fill="#363E44"/>
</svg>
