<svg fill="none" xmlns="http://www.w3.org/2000/svg" viewBox="0 0 18 22">
  <path d="M16.155 21.241H2.284A1.285 1.285 0 011 19.958V2.284C1 1.575 1.575 1 2.284 1h13.871c.708 0 1.283.575 1.284 1.284v17.674a1.287 1.287 0 01-1.284 1.284zM2.284 1.64a.645.645 0 00-.645.645v17.674c0 .355.29.644.645.644h13.871a.645.645 0 00.644-.644V2.284a.645.645 0 00-.644-.645H2.284z" fill="url(#H06FbtfGHorma)" stroke="url(#H06FbtfGHormb)" stroke-width=".3"/>
  <path d="M10.26 19.787H8.18a1.005 1.005 0 010-2.008h2.08a1.003 1.003 0 010 2.008zm-2.08-1.368h0a.364.364 0 000 .729h2.08a.364.364 0 000-.73H8.18z" fill="url(#H06FbtfGHormc)" stroke="url(#H06FbtfGHormd)" stroke-width=".3"/>
  <path d="M4.881 19.787a1.005 1.005 0 11.385-1.932 1 1 0 01.618.928h.001c0 .554-.45 1.003-1.004 1.004zm0-1.368a.364.364 0 10.364.364h0a.365.365 0 00-.364-.364z" fill="url(#H06FbtfGHorme)" stroke="url(#H06FbtfGHormf)" stroke-width=".3"/>
  <path d="M13.557 19.787a1.004 1.004 0 110-2.008 1.004 1.004 0 010 2.008zm0-1.368a.364.364 0 100 .728.364.364 0 000-.728z" fill="url(#H06FbtfGHormg)" stroke="url(#H06FbtfGHormh)" stroke-width=".3"/>
  <path d="M10.26 4.462H8.18a1.003 1.003 0 010-2.007h2.08a1.005 1.005 0 010 2.007zM8.18 3.095a.364.364 0 000 .728h2.08a.364.364 0 000-.73l-2.08.002z" fill="url(#H06FbtfGHormi)" stroke="url(#H06FbtfGHormj)" stroke-width=".3"/>
  <path d="M5.432 6.297H4.215a.319.319 0 110-.64h1.217a.32.32 0 010 .64z" fill="url(#H06FbtfGHormk)" stroke="url(#H06FbtfGHorml)" stroke-width=".3"/>
  <path d="M14.224 6.297H6.937a.319.319 0 110-.64h7.287a.32.32 0 010 .64z" fill="url(#H06FbtfGHormm)" stroke="url(#H06FbtfGHormn)" stroke-width=".3"/>
  <path d="M14.224 7.75H4.214a.319.319 0 110-.64h10.01a.32.32 0 010 .64z" fill="url(#H06FbtfGHormo)" stroke="url(#H06FbtfGHormp)" stroke-width=".3"/>
  <path d="M5.432 9.203H4.215a.32.32 0 010-.64h1.217a.32.32 0 010 .64z" fill="url(#H06FbtfGHormq)" stroke="url(#H06FbtfGHormr)" stroke-width=".3"/>
  <path d="M14.224 9.203H6.937a.32.32 0 010-.64h7.287a.32.32 0 010 .64z" fill="url(#H06FbtfGHorms)" stroke="url(#H06FbtfGHormt)" stroke-width=".3"/>
  <path d="M14.224 10.653H4.214a.319.319 0 110-.639h10.01a.32.32 0 010 .64z" fill="url(#H06FbtfGHormu)" stroke="url(#H06FbtfGHormv)" stroke-width=".3"/>
  <path d="M5.432 12.106H4.215a.319.319 0 110-.64h1.217a.32.32 0 010 .64z" fill="url(#H06FbtfGHormw)" stroke="url(#H06FbtfGHormx)" stroke-width=".3"/>
  <path d="M14.224 12.106H6.937a.319.319 0 110-.64h7.287a.32.32 0 010 .64z" fill="url(#H06FbtfGHormy)" stroke="url(#H06FbtfGHormz)" stroke-width=".3"/>
  <path d="M14.224 13.558H4.214a.32.32 0 010-.639h10.01a.32.32 0 010 .64z" fill="url(#H06FbtfGHormA)" stroke="url(#H06FbtfGHormB)" stroke-width=".3"/>
  <path d="M7.55 15.01H4.973a.319.319 0 110-.639H7.55a.32.32 0 010 .64z" fill="url(#H06FbtfGHormC)" stroke="url(#H06FbtfGHormD)" stroke-width=".3"/>
  <path d="M7.55 16.463H4.015a.32.32 0 110-.64H7.55a.319.319 0 010 .64z" fill="url(#H06FbtfGHormE)" stroke="url(#H06FbtfGHormF)" stroke-width=".3"/>
  <path d="M10.963 16.584c-.05 0-.1-.012-.144-.034-.28-.143-.53-.276-.749-.403a8.32 8.32 0 01-.756.277h0a.32.32 0 11-.194-.608c.108-.034.207-.068.299-.1-.481-.372-.664-.694-.58-.995.094-.334.493-.508 1.069-.462.584.046 1.2.305 1.256.782.03.266-.107.512-.426.745.053.03.106.057.164.085l1.015-1.034v-.001a.319.319 0 01.438-.016l.54.473c.263-.347.763-.658 1.595-.495h0a.32.32 0 11-.125.627c-.847-.166-1.034.353-1.065.458a.308.308 0 01-.21.229.32.32 0 01-.31-.07l-.62-.541-.97.987a.32.32 0 01-.227.096zm-1.469-1.67c.06.085.217.248.617.506.302-.159.387-.269.41-.307-.039-.043-.17-.128-.416-.182a1.474 1.474 0 00-.61-.018z" fill="url(#H06FbtfGHormG)" stroke="url(#H06FbtfGHormH)" stroke-width=".3"/>
  <defs>
    <linearGradient id="H06FbtfGHorma" x1="1" y1="11.121" x2="17.439" y2="11.121" gradientUnits="userSpaceOnUse">
      <stop stop-color="#FF8965"/>
      <stop offset="1" stop-color="#FF6757"/>
    </linearGradient>
    <linearGradient id="H06FbtfGHormb" x1="1" y1="11.121" x2="17.439" y2="11.121" gradientUnits="userSpaceOnUse">
      <stop stop-color="#FF8965"/>
      <stop offset="1" stop-color="#FF6757"/>
    </linearGradient>
    <linearGradient id="H06FbtfGHormc" x1="7.197" y1="18.783" x2="11.242" y2="18.783" gradientUnits="userSpaceOnUse">
      <stop stop-color="#FF8965"/>
      <stop offset="1" stop-color="#FF6757"/>
    </linearGradient>
    <linearGradient id="H06FbtfGHormd" x1="7.197" y1="18.783" x2="11.242" y2="18.783" gradientUnits="userSpaceOnUse">
      <stop stop-color="#FF8965"/>
      <stop offset="1" stop-color="#FF6757"/>
    </linearGradient>
    <linearGradient id="H06FbtfGHorme" x1="3.878" y1="18.783" x2="5.885" y2="18.783" gradientUnits="userSpaceOnUse">
      <stop stop-color="#FF8965"/>
      <stop offset="1" stop-color="#FF6757"/>
    </linearGradient>
    <linearGradient id="H06FbtfGHormf" x1="3.878" y1="18.783" x2="5.885" y2="18.783" gradientUnits="userSpaceOnUse">
      <stop stop-color="#FF8965"/>
      <stop offset="1" stop-color="#FF6757"/>
    </linearGradient>
    <linearGradient id="H06FbtfGHormg" x1="12.553" y1="18.783" x2="14.561" y2="18.783" gradientUnits="userSpaceOnUse">
      <stop stop-color="#FF8965"/>
      <stop offset="1" stop-color="#FF6757"/>
    </linearGradient>
    <linearGradient id="H06FbtfGHormh" x1="12.553" y1="18.783" x2="14.561" y2="18.783" gradientUnits="userSpaceOnUse">
      <stop stop-color="#FF8965"/>
      <stop offset="1" stop-color="#FF6757"/>
    </linearGradient>
    <linearGradient id="H06FbtfGHormi" x1="7.197" y1="3.458" x2="11.242" y2="3.458" gradientUnits="userSpaceOnUse">
      <stop stop-color="#FF8965"/>
      <stop offset="1" stop-color="#FF6757"/>
    </linearGradient>
    <linearGradient id="H06FbtfGHormj" x1="7.197" y1="3.458" x2="11.242" y2="3.458" gradientUnits="userSpaceOnUse">
      <stop stop-color="#FF8965"/>
      <stop offset="1" stop-color="#FF6757"/>
    </linearGradient>
    <linearGradient id="H06FbtfGHormk" x1="3.895" y1="5.977" x2="5.751" y2="5.977" gradientUnits="userSpaceOnUse">
      <stop stop-color="#FF8965"/>
      <stop offset="1" stop-color="#FF6757"/>
    </linearGradient>
    <linearGradient id="H06FbtfGHorml" x1="3.895" y1="5.977" x2="5.751" y2="5.977" gradientUnits="userSpaceOnUse">
      <stop stop-color="#FF8965"/>
      <stop offset="1" stop-color="#FF6757"/>
    </linearGradient>
    <linearGradient id="H06FbtfGHormm" x1="6.617" y1="5.977" x2="14.543" y2="5.977" gradientUnits="userSpaceOnUse">
      <stop stop-color="#FF8965"/>
      <stop offset="1" stop-color="#FF6757"/>
    </linearGradient>
    <linearGradient id="H06FbtfGHormn" x1="6.617" y1="5.977" x2="14.543" y2="5.977" gradientUnits="userSpaceOnUse">
      <stop stop-color="#FF8965"/>
      <stop offset="1" stop-color="#FF6757"/>
    </linearGradient>
    <linearGradient id="H06FbtfGHormo" x1="3.895" y1="7.43" x2="14.543" y2="7.43" gradientUnits="userSpaceOnUse">
      <stop stop-color="#FF8965"/>
      <stop offset="1" stop-color="#FF6757"/>
    </linearGradient>
    <linearGradient id="H06FbtfGHormp" x1="3.895" y1="7.43" x2="14.543" y2="7.43" gradientUnits="userSpaceOnUse">
      <stop stop-color="#FF8965"/>
      <stop offset="1" stop-color="#FF6757"/>
    </linearGradient>
    <linearGradient id="H06FbtfGHormq" x1="3.895" y1="8.884" x2="5.751" y2="8.884" gradientUnits="userSpaceOnUse">
      <stop stop-color="#FF8965"/>
      <stop offset="1" stop-color="#FF6757"/>
    </linearGradient>
    <linearGradient id="H06FbtfGHormr" x1="3.895" y1="8.884" x2="5.751" y2="8.884" gradientUnits="userSpaceOnUse">
      <stop stop-color="#FF8965"/>
      <stop offset="1" stop-color="#FF6757"/>
    </linearGradient>
    <linearGradient id="H06FbtfGHorms" x1="6.617" y1="8.884" x2="14.543" y2="8.884" gradientUnits="userSpaceOnUse">
      <stop stop-color="#FF8965"/>
      <stop offset="1" stop-color="#FF6757"/>
    </linearGradient>
    <linearGradient id="H06FbtfGHormt" x1="6.617" y1="8.884" x2="14.543" y2="8.884" gradientUnits="userSpaceOnUse">
      <stop stop-color="#FF8965"/>
      <stop offset="1" stop-color="#FF6757"/>
    </linearGradient>
    <linearGradient id="H06FbtfGHormu" x1="3.895" y1="10.334" x2="14.543" y2="10.334" gradientUnits="userSpaceOnUse">
      <stop stop-color="#FF8965"/>
      <stop offset="1" stop-color="#FF6757"/>
    </linearGradient>
    <linearGradient id="H06FbtfGHormv" x1="3.895" y1="10.334" x2="14.543" y2="10.334" gradientUnits="userSpaceOnUse">
      <stop stop-color="#FF8965"/>
      <stop offset="1" stop-color="#FF6757"/>
    </linearGradient>
    <linearGradient id="H06FbtfGHormw" x1="3.895" y1="11.786" x2="5.751" y2="11.786" gradientUnits="userSpaceOnUse">
      <stop stop-color="#FF8965"/>
      <stop offset="1" stop-color="#FF6757"/>
    </linearGradient>
    <linearGradient id="H06FbtfGHormx" x1="3.895" y1="11.786" x2="5.751" y2="11.786" gradientUnits="userSpaceOnUse">
      <stop stop-color="#FF8965"/>
      <stop offset="1" stop-color="#FF6757"/>
    </linearGradient>
    <linearGradient id="H06FbtfGHormy" x1="6.617" y1="11.786" x2="14.543" y2="11.786" gradientUnits="userSpaceOnUse">
      <stop stop-color="#FF8965"/>
      <stop offset="1" stop-color="#FF6757"/>
    </linearGradient>
    <linearGradient id="H06FbtfGHormz" x1="6.617" y1="11.786" x2="14.543" y2="11.786" gradientUnits="userSpaceOnUse">
      <stop stop-color="#FF8965"/>
      <stop offset="1" stop-color="#FF6757"/>
    </linearGradient>
    <linearGradient id="H06FbtfGHormA" x1="3.895" y1="13.239" x2="14.543" y2="13.239" gradientUnits="userSpaceOnUse">
      <stop stop-color="#FF8965"/>
      <stop offset="1" stop-color="#FF6757"/>
    </linearGradient>
    <linearGradient id="H06FbtfGHormB" x1="3.895" y1="13.239" x2="14.543" y2="13.239" gradientUnits="userSpaceOnUse">
      <stop stop-color="#FF8965"/>
      <stop offset="1" stop-color="#FF6757"/>
    </linearGradient>
    <linearGradient id="H06FbtfGHormC" x1="4.654" y1="14.691" x2="7.869" y2="14.691" gradientUnits="userSpaceOnUse">
      <stop stop-color="#FF8965"/>
      <stop offset="1" stop-color="#FF6757"/>
    </linearGradient>
    <linearGradient id="H06FbtfGHormD" x1="4.654" y1="14.691" x2="7.869" y2="14.691" gradientUnits="userSpaceOnUse">
      <stop stop-color="#FF8965"/>
      <stop offset="1" stop-color="#FF6757"/>
    </linearGradient>
    <linearGradient id="H06FbtfGHormE" x1="3.694" y1="16.143" x2="7.869" y2="16.143" gradientUnits="userSpaceOnUse">
      <stop stop-color="#FF8965"/>
      <stop offset="1" stop-color="#FF6757"/>
    </linearGradient>
    <linearGradient id="H06FbtfGHormF" x1="3.694" y1="16.143" x2="7.869" y2="16.143" gradientUnits="userSpaceOnUse">
      <stop stop-color="#FF8965"/>
      <stop offset="1" stop-color="#FF6757"/>
    </linearGradient>
    <linearGradient id="H06FbtfGHormG" x1="8.819" y1="15.418" x2="14.748" y2="15.418" gradientUnits="userSpaceOnUse">
      <stop stop-color="#FF8965"/>
      <stop offset="1" stop-color="#FF6757"/>
    </linearGradient>
    <linearGradient id="H06FbtfGHormH" x1="8.819" y1="15.418" x2="14.748" y2="15.418" gradientUnits="userSpaceOnUse">
      <stop stop-color="#FF8965"/>
      <stop offset="1" stop-color="#FF6757"/>
    </linearGradient>
  </defs>
</svg>
