<svg fill="none" xmlns="http://www.w3.org/2000/svg" viewBox="0 0 26 24">
  <path fill-rule="evenodd" clip-rule="evenodd" d="M12.906 1a3.354 3.354 0 00-3.35 3.35 3.34 3.34 0 001.112 2.488c.593.534 1.379.86 2.238.86a3.35 3.35 0 003.348-3.348A3.353 3.353 0 0012.906 1zm0 .53c1.56 0 2.819 1.26 2.819 2.82a2.81 2.81 0 01-.565 1.695 2.323 2.323 0 00-1.415-1.598c.296-.243.485-.61.485-1.02a1.326 1.326 0 00-2.65 0c0 .41.19.778.486 1.02a2.324 2.324 0 00-1.415 1.597 2.807 2.807 0 01-.565-1.694c0-1.56 1.26-2.82 2.82-2.82zm0 1.107c.444 0 .795.352.795.79 0 .44-.351.792-.795.792a.79.79 0 110-1.582zM4.348 4.594A3.35 3.35 0 001 7.942c0 .983.426 1.868 1.102 2.482a3.334 3.334 0 004.466.022.266.266 0 00.026-.024l.004-.002a3.342 3.342 0 001.097-2.478 3.35 3.35 0 00-3.347-3.348zm17.115 0a3.35 3.35 0 00-3.348 3.348 3.353 3.353 0 003.348 3.35 3.336 3.336 0 002.244-.866 3.342 3.342 0 001.105-2.484 3.353 3.353 0 00-3.35-3.348zm-8.557.226c.974 0 1.752.753 1.791 1.708-.486.4-1.11.64-1.79.64-.682 0-1.307-.24-1.794-.64a1.78 1.78 0 011.793-1.708zm-8.558.303c1.56 0 2.82 1.258 2.82 2.819 0 .638-.21 1.225-.566 1.697a2.322 2.322 0 00-1.415-1.6c.297-.242.487-.61.487-1.02a1.327 1.327 0 00-2.652 0c0 .41.19.778.486 1.02a2.322 2.322 0 00-1.415 1.6 2.81 2.81 0 01-.566-1.697c0-1.56 1.26-2.819 2.82-2.819zm17.115 0c1.56 0 2.82 1.258 2.82 2.819a2.81 2.81 0 01-.566 1.697 2.322 2.322 0 00-1.414-1.6c.296-.242.486-.61.486-1.02 0-.726-.598-1.32-1.326-1.32-.728 0-1.326.594-1.326 1.32 0 .41.19.778.486 1.02a2.322 2.322 0 00-1.414 1.599 2.81 2.81 0 01-.565-1.696 2.814 2.814 0 012.819-2.819zM4.348 6.23a.79.79 0 110 1.581.79.79 0 110-1.581zm17.115 0a.79.79 0 110 1.581.79.79 0 110-1.581zm-8.696 2.06a.264.264 0 00-.14.042.262.262 0 00-.062.053l-.723.804a.265.265 0 00.394.353l.268-.298v2.591a.264.264 0 00.529 0v-2.59l.268.297a.264.264 0 10.392-.353l-.722-.804a.273.273 0 00-.204-.095zm-8.42.121c.975 0 1.753.753 1.792 1.71-.487.4-1.11.64-1.791.64a2.81 2.81 0 01-1.792-.64 1.778 1.778 0 011.792-1.71zm17.116 0c.974 0 1.753.754 1.79 1.71-.486.4-1.11.64-1.79.64-.682 0-1.305-.24-1.792-.641a1.779 1.779 0 011.792-1.709zm-3.072 2.143h-.012l-1.09.058a.264.264 0 00.027.528l.4-.022-1.831 1.832a.264.264 0 000 .375.265.265 0 00.374 0l1.833-1.832-.022.4a.265.265 0 00.44.21.265.265 0 00.087-.182l.058-1.063a.264.264 0 00-.264-.304zm-10.973 0h-.005a.268.268 0 00-.183.076.265.265 0 00-.075.22l.058 1.07a.264.264 0 00.527-.027l-.022-.4 1.833 1.832a.264.264 0 10.375-.375l-1.832-1.83.4.022a.265.265 0 00.027-.528l-1.09-.058h-.012zm5.488 2.225a2.054 2.054 0 00-2.056 2.042c0 .76.42 1.425 1.04 1.778a3.718 3.718 0 00-2.724 3.576v1.408a.265.265 0 00.266.264h5.056v.709a.264.264 0 00.266.263h3.953a.265.265 0 00.264-.263v-3.963a.265.265 0 00-.264-.266H16.15a3.729 3.729 0 00-2.23-1.728 2.047 2.047 0 001.04-1.778 2.052 2.052 0 00-2.055-2.042zm0 .529a1.515 1.515 0 110 3.03 1.518 1.518 0 01-1.527-1.517c0-.838.68-1.513 1.527-1.513zm0 3.681a3.2 3.2 0 012.616 1.338h-.768a.265.265 0 00-.266.266v2.725H9.695v-1.143a3.186 3.186 0 013.211-3.186zm2.111 1.867h.88v.975a.265.265 0 00.37.242l.463-.205.461.205a.265.265 0 00.373-.242v-.975h.877v3.434h-3.424v-3.434zm1.408 0h.61v.569l-.197-.088a.265.265 0 00-.215 0l-.198.088v-.569z" fill="url(#O2QnV6is9S38a)"/>
  <path d="M12.97 8.386l.723.804a.263.263 0 01.043.291.265.265 0 01-.435.062l-.268-.297v2.59a.264.264 0 01-.53 0V9.245l-.267.298a.265.265 0 01-.394-.353l.723-.804a.253.253 0 01.03-.03.258.258 0 01.097-.053.27.27 0 01.279.083zm0 0s.001 0 0 0zM12.907 1a3.354 3.354 0 00-3.35 3.35 3.34 3.34 0 001.112 2.488c.593.534 1.379.86 2.238.86a3.35 3.35 0 003.348-3.348A3.353 3.353 0 0012.906 1zm0 .53c1.56 0 2.819 1.26 2.819 2.82a2.81 2.81 0 01-.565 1.695 2.323 2.323 0 00-1.415-1.598c.296-.243.485-.61.485-1.02a1.326 1.326 0 00-2.65 0c0 .41.19.778.486 1.02a2.324 2.324 0 00-1.415 1.597 2.807 2.807 0 01-.565-1.694c0-1.56 1.26-2.82 2.82-2.82zm0 1.107c.444 0 .795.352.795.79 0 .44-.351.792-.795.792a.79.79 0 110-1.582zM4.348 4.594A3.35 3.35 0 001 7.942c0 .983.426 1.868 1.102 2.482a3.334 3.334 0 004.466.022.266.266 0 00.026-.024l.004-.002a3.342 3.342 0 001.097-2.478 3.35 3.35 0 00-3.347-3.348zm17.115 0a3.35 3.35 0 00-3.348 3.348 3.353 3.353 0 003.348 3.35 3.336 3.336 0 002.244-.866 3.342 3.342 0 001.105-2.484 3.353 3.353 0 00-3.35-3.348zm-8.557.226c.974 0 1.752.753 1.791 1.708-.486.4-1.11.64-1.79.64-.682 0-1.307-.24-1.794-.64a1.78 1.78 0 011.793-1.708zm-8.558.303c1.56 0 2.82 1.258 2.82 2.819 0 .638-.21 1.225-.566 1.697a2.322 2.322 0 00-1.415-1.6c.297-.242.487-.61.487-1.02a1.327 1.327 0 00-2.652 0c0 .41.19.778.486 1.02a2.322 2.322 0 00-1.415 1.6 2.81 2.81 0 01-.566-1.697c0-1.56 1.26-2.819 2.82-2.819zm17.115 0c1.56 0 2.82 1.258 2.82 2.819a2.81 2.81 0 01-.566 1.697 2.322 2.322 0 00-1.414-1.6c.296-.242.486-.61.486-1.02 0-.726-.598-1.32-1.326-1.32-.728 0-1.326.594-1.326 1.32 0 .41.19.778.486 1.02a2.322 2.322 0 00-1.414 1.599 2.81 2.81 0 01-.565-1.696 2.814 2.814 0 012.819-2.819zM4.348 6.23a.79.79 0 110 1.581.79.79 0 110-1.581zm17.115 0a.79.79 0 110 1.581.79.79 0 110-1.581zM4.348 8.412c.974 0 1.752.753 1.79 1.71-.486.4-1.11.64-1.79.64a2.81 2.81 0 01-1.792-.64 1.778 1.778 0 011.792-1.71zm17.115 0c.974 0 1.753.754 1.79 1.71-.486.4-1.11.64-1.79.64-.682 0-1.305-.24-1.792-.641a1.779 1.779 0 011.792-1.709zm-3.072 2.143h-.012l-1.09.058a.264.264 0 00.027.528l.4-.022-1.831 1.832a.264.264 0 000 .375.265.265 0 00.374 0l1.833-1.832-.022.4a.265.265 0 00.44.21.265.265 0 00.087-.182l.058-1.063a.264.264 0 00-.264-.304zm-10.973 0h-.005a.268.268 0 00-.183.076.265.265 0 00-.075.22l.058 1.07a.264.264 0 00.527-.027l-.022-.4 1.833 1.832a.264.264 0 10.375-.375L8.094 11.12l.4.022a.265.265 0 00.027-.528l-1.09-.058h-.012zm5.488 2.225a2.054 2.054 0 00-2.056 2.042c0 .76.42 1.425 1.04 1.778a3.718 3.718 0 00-2.724 3.576v1.408a.265.265 0 00.266.264h5.056v.709a.264.264 0 00.266.263h3.953a.265.265 0 00.264-.263v-3.963a.265.265 0 00-.264-.266H16.15a3.729 3.729 0 00-2.23-1.728 2.047 2.047 0 001.04-1.778 2.052 2.052 0 00-2.055-2.042zm0 .529a1.515 1.515 0 110 3.03 1.518 1.518 0 01-1.527-1.517c0-.838.68-1.513 1.527-1.513zm0 3.681a3.2 3.2 0 012.616 1.338h-.768a.265.265 0 00-.266.266v2.725H9.695v-1.143a3.186 3.186 0 013.211-3.186zm2.111 1.867h.88v.975a.265.265 0 00.37.242l.463-.205.461.205a.265.265 0 00.373-.242v-.975h.877v3.434h-3.424v-3.434zm1.408 0h.61v.569l-.197-.088a.265.265 0 00-.215 0l-.198.088v-.569z" stroke="url(#O2QnV6is9S38b)" stroke-width=".5"/>
  <defs>
    <linearGradient id="O2QnV6is9S38a" x1="1" y1="11.91" x2="24.813" y2="11.91" gradientUnits="userSpaceOnUse">
      <stop stop-color="#FF8965"/>
      <stop offset="1" stop-color="#FF6757"/>
    </linearGradient>
    <linearGradient id="O2QnV6is9S38b" x1="1" y1="11.91" x2="24.813" y2="11.91" gradientUnits="userSpaceOnUse">
      <stop stop-color="#FF8965"/>
      <stop offset="1" stop-color="#FF6757"/>
    </linearGradient>
  </defs>
</svg>
