<svg fill="none" xmlns="http://www.w3.org/2000/svg" viewBox="0 0 81 39">
  <path d="M51.268 38.896c-.534 0-1.066-.004-1.594-.014a.3.3 0 01-.297-.305.298.298 0 01.306-.297 101.523 101.523 0 003.003.004h.004a.3.3 0 01.004.603c-.477.006-.947.01-1.426.01zM55.7 38.8a.302.302 0 01-.013-.602c.985-.042 1.995-.1 2.999-.17a.3.3 0 01.321.28.3.3 0 01-.279.322c-1.01.07-2.024.128-3.015.17H55.7zm-9.03-.016h-.015a86.257 86.257 0 01-3.016-.2.301.301 0 01.051-.599c.985.082 1.992.149 2.995.198a.302.302 0 01-.015.602zm15.036-.404a.3.3 0 01-.028-.601 126.21 126.21 0 002.986-.324.3.3 0 11.073.597c-1.006.121-2.015.23-3.002.325h-.029v.003zm-21.008-.291a.356.356 0 01-.065-.007 67.777 67.777 0 01-2.938-.725.301.301 0 01.158-.582c.965.262 1.945.504 2.91.718a.302.302 0 01-.066.596zm26.987-.43a.301.301 0 01-.043-.599c.795-.115 1.601-.238 2.398-.367a.301.301 0 01.097.594c-.8.13-1.61.254-2.409.369-.015.002-.028.002-.043.002v.002zm-32.8-1.144a.269.269 0 01-.093-.015 75.127 75.127 0 01-2.862-.977.302.302 0 01.206-.567c.945.344 1.9.67 2.84.97a.301.301 0 01-.092.589zm-5.662-2.06a.312.312 0 01-.115-.022 81.427 81.427 0 01-2.777-1.197.302.302 0 01.248-.549 82.99 82.99 0 002.759 1.187.302.302 0 01-.114.58h-.001zm-5.493-2.481a.286.286 0 01-.133-.031 94.817 94.817 0 01-2.688-1.382.3.3 0 11.283-.531c.89.476 1.79.937 2.672 1.373a.3.3 0 01-.134.571zm-5.317-2.836a.294.294 0 01-.15-.04c-.858-.491-1.734-1.01-2.6-1.537a.302.302 0 01.314-.515c.862.525 1.732 1.04 2.587 1.53a.302.302 0 01-.15.562h-.001zm-5.15-3.134a.296.296 0 01-.162-.048 133.019 133.019 0 01-2.519-1.666.3.3 0 11.338-.499c.837.568 1.681 1.127 2.508 1.659a.302.302 0 01-.164.554z" fill="#8B865C"/>
  <path d="M8.541 0A8.54 8.54 0 000 8.541c0 4.717 8.541 15.127 8.541 15.127s8.541-10.41 8.541-15.127A8.54 8.54 0 008.541 0zm0 14.385a5.844 5.844 0 110-11.688 5.844 5.844 0 015.844 5.844 5.844 5.844 0 01-5.844 5.844zm34.117 10.741a4.776 4.776 0 00-4.776 4.776c0 2.638 4.776 8.459 4.776 8.459s4.776-5.821 4.776-8.46a4.776 4.776 0 00-4.776-4.775zm0 8.045a3.268 3.268 0 110-6.536 3.268 3.268 0 010 6.536zm31.175-16.012a7.036 7.036 0 00-7.035 7.035c0 3.885 7.035 12.46 7.035 12.46s7.036-8.575 7.036-12.46a7.036 7.036 0 00-7.036-7.035zm0 11.85a4.815 4.815 0 11.001-9.63 4.815 4.815 0 010 9.63z" fill="#D87355"/>
</svg>
