<svg fill="none" xmlns="http://www.w3.org/2000/svg" viewBox="0 0 8 8">
  <path d="M5.298 5.428c1.153-1.05 1.369-2.69.482-3.664C4.893.79 3.24.85 2.087 1.9S.72 4.59 1.606 5.564c.886.974 2.54.913 3.692-.136z" fill="#E2A18D"/>
  <path d="M4.27 5.023a.3.3 0 01-.16-.555c.065-.042.129-.09.189-.144.23-.21.378-.481.415-.763a.821.821 0 00-.19-.675.75.75 0 00-.288-.195.3.3 0 11.217-.561c.2.076.373.195.515.35.28.307.4.718.343 1.16a1.877 1.877 0 01-.606 1.128 1.884 1.884 0 01-.272.207.305.305 0 01-.161.047l-.002.001z" fill="#363E44"/>
</svg>
