<svg xmlns="http://www.w3.org/2000/svg" fill="none" viewBox="0 0 504 348">
  <g filter="url(#Ux-ZIvZg3a)">
    <g clip-path="url(#Ux-ZIvZg3b)">
      <path fill="#fff" d="M12 21c0-6.627 5.373-12 12-12h456c6.627 0 12 5.373 12 12v300c0 6.627-5.373 12-12 12H24c-6.627 0-12-5.373-12-12V21z"/>
      <path fill="#283341" d="M12 21c0-6.627 5.373-12 12-12h504c6.627 0 12 5.373 12 12v20H12V21z"/>
      <circle cx="28" cy="25" r="4" fill="#fff"/>
      <circle cx="40" cy="25" r="4" fill="#fff"/>
      <circle cx="52" cy="25" r="4" fill="#fff"/>
    </g>
  </g>
  <g filter="url(#Ux-ZIvZg3c)">
    <g clip-path="url(#Ux-ZIvZg3d)">
      <path fill="#fff" d="M44 161a3 3 0 013-3h410a3 3 0 013 3v133a3 3 0 01-3 3H47a3 3 0 01-3-3V161z"/>
    </g>
  </g>
  <rect width="373" height="5" x="67" y="193" fill="#D3E0F1" rx="2.5"/>
  <rect width="373" height="5" x="67" y="213" fill="#D3E0F1" rx="2.5"/>
  <rect width="373" height="5" x="67" y="233" fill="#D3E0F1" rx="2.5"/>
  <rect width="373" height="5" x="67" y="253" fill="#D3E0F1" rx="2.5"/>
  <rect width="373" height="5" x="67" y="273" fill="#D3E0F1" rx="2.5"/>
  <g filter="url(#Ux-ZIvZg3e)">
    <rect width="103.5" height="21.318" x="356.25" y="123.25" fill="#F1F6FC" stroke="#7187A5" stroke-width=".5" rx="3.75"/>
  </g>
  <path fill="#283341" d="M370.27 135.555c.057 0 .106.023.148.068l.419.454a2.686 2.686 0 01-.972.738c-.384.172-.843.257-1.377.257a3.28 3.28 0 01-1.287-.243 2.872 2.872 0 01-.977-.684 3.088 3.088 0 01-.625-1.049 3.962 3.962 0 01-.216-1.336c0-.486.076-.932.229-1.337a2.949 2.949 0 011.66-1.732 3.377 3.377 0 011.297-.243c.468 0 .88.076 1.237.229.36.15.672.351.936.603l-.346.491a.385.385 0 01-.086.085.225.225 0 01-.135.036.385.385 0 01-.207-.08 2.283 2.283 0 00-.292-.185 2.206 2.206 0 00-1.112-.27c-.309 0-.592.054-.85.162-.258.108-.48.265-.666.472a2.226 2.226 0 00-.437.756 3.112 3.112 0 00-.153 1.013 3 3 0 00.162 1.021c.108.297.257.549.446.756.189.204.411.36.666.468.255.108.529.162.823.162.18 0 .341-.009.482-.027.144-.021.276-.052.396-.094a2.097 2.097 0 00.657-.41.271.271 0 01.18-.081zm2.282-5.215V137h-.968v-6.66h.968zm3.178 1.998c.339 0 .645.055.918.166.276.111.51.269.702.473.195.204.345.451.45.742.105.291.158.618.158.981s-.053.69-.158.981c-.105.291-.255.54-.45.747a1.948 1.948 0 01-.702.473 2.418 2.418 0 01-.918.167c-.342 0-.651-.056-.927-.167a2.001 2.001 0 01-.702-.473 2.126 2.126 0 01-.45-.747 2.876 2.876 0 01-.157-.981c0-.363.052-.69.157-.981.105-.291.255-.538.45-.742.195-.204.429-.362.702-.473.276-.111.585-.166.927-.166zm0 3.973c.414 0 .722-.138.923-.414.204-.279.306-.676.306-1.192 0-.516-.102-.914-.306-1.193-.201-.282-.509-.423-.923-.423-.42 0-.732.141-.936.423-.204.279-.306.677-.306 1.193s.102.913.306 1.192c.204.276.516.414.936.414zm4.062-3.294c.099-.102.201-.193.306-.274.108-.084.222-.156.342-.216a1.814 1.814 0 01.823-.189c.252 0 .473.042.662.126a1.3 1.3 0 01.481.355c.132.153.231.338.297.554.066.213.099.448.099.706V137h-.963v-2.921c0-.309-.072-.549-.216-.72-.141-.171-.357-.256-.648-.256-.216 0-.417.049-.603.148a2.076 2.076 0 00-.517.405V137h-.968v-4.59h.585c.132 0 .216.061.252.184l.068.423zm7.151 1.171c0-.163-.024-.313-.072-.451a1.004 1.004 0 00-.203-.364.894.894 0 00-.337-.243 1.1 1.1 0 00-.459-.09c-.351 0-.627.1-.828.301-.201.201-.329.483-.383.847h2.282zm-2.309.593c.012.261.053.488.122.68.069.189.16.346.274.472.117.126.255.221.414.284.162.06.342.09.54.09.189 0 .353-.021.491-.063a2.64 2.64 0 00.621-.288.382.382 0 01.198-.068c.078 0 .138.03.18.09l.274.356a1.741 1.741 0 01-.387.342 2.342 2.342 0 01-.958.351 3.21 3.21 0 01-.5.041c-.318 0-.613-.053-.886-.158a2.033 2.033 0 01-.707-.472 2.227 2.227 0 01-.468-.77 3.096 3.096 0 01-.166-1.058c0-.318.049-.615.148-.891.102-.276.246-.516.432-.72a2.03 2.03 0 01.684-.481c.27-.12.575-.18.914-.18.282 0 .543.046.783.14.24.089.447.223.621.4.174.177.309.394.405.652a2.4 2.4 0 01.148.873c0 .15-.016.251-.049.302-.033.051-.093.076-.18.076h-2.948zm8.305-2.443c.339 0 .645.055.918.166.276.111.51.269.702.473.195.204.345.451.45.742.105.291.158.618.158.981s-.053.69-.158.981c-.105.291-.255.54-.45.747a1.948 1.948 0 01-.702.473 2.418 2.418 0 01-.918.167c-.342 0-.651-.056-.927-.167a2.001 2.001 0 01-.702-.473 2.126 2.126 0 01-.45-.747 2.876 2.876 0 01-.157-.981c0-.363.052-.69.157-.981.105-.291.255-.538.45-.742.195-.204.429-.362.702-.473.276-.111.585-.166.927-.166zm0 3.973c.414 0 .722-.138.923-.414.204-.279.306-.676.306-1.192 0-.516-.102-.914-.306-1.193-.201-.282-.509-.423-.923-.423-.42 0-.732.141-.936.423-.204.279-.306.677-.306 1.193s.102.913.306 1.192c.204.276.516.414.936.414zm4.071-3.051c.144-.291.318-.519.522-.684.204-.168.448-.252.733-.252.099 0 .192.012.279.036a.744.744 0 01.234.099l-.067.729a.186.186 0 01-.059.108.162.162 0 01-.099.027c-.045 0-.109-.007-.193-.022a1.27 1.27 0 00-.266-.027 1.03 1.03 0 00-.36.058.898.898 0 00-.279.171 1.185 1.185 0 00-.216.275 2.648 2.648 0 00-.175.369V137h-.968v-4.59h.563c.102 0 .172.019.211.058.039.036.066.101.081.194l.059.598zm7.386.279a1.137 1.137 0 00-.446-.364 1.327 1.327 0 00-.526-.104c-.378 0-.674.14-.887.419-.213.276-.319.685-.319 1.228 0 .282.024.524.072.725.048.198.117.36.207.486.09.126.199.217.328.274.129.057.275.086.437.086.246 0 .457-.053.634-.158.18-.108.347-.259.5-.454v-2.138zm.967-3.199V137h-.585c-.129 0-.211-.062-.247-.185l-.086-.499a2.41 2.41 0 01-.657.544 1.691 1.691 0 01-.85.208c-.258 0-.492-.052-.702-.154a1.531 1.531 0 01-.54-.454 2.227 2.227 0 01-.351-.734 3.803 3.803 0 01-.122-1.008c0-.342.045-.658.135-.949.093-.291.225-.543.396-.756a1.8 1.8 0 011.445-.689c.27 0 .499.044.688.131.189.084.359.202.509.355v-2.47h.967zm3.168 1.998c.339 0 .645.055.918.166.276.111.51.269.702.473.195.204.345.451.45.742.105.291.158.618.158.981s-.053.69-.158.981c-.105.291-.255.54-.45.747a1.948 1.948 0 01-.702.473 2.418 2.418 0 01-.918.167c-.342 0-.651-.056-.927-.167a2.001 2.001 0 01-.702-.473 2.126 2.126 0 01-.45-.747 2.876 2.876 0 01-.157-.981c0-.363.052-.69.157-.981.105-.291.255-.538.45-.742.195-.204.429-.362.702-.473.276-.111.585-.166.927-.166zm0 3.973c.414 0 .722-.138.923-.414.204-.279.306-.676.306-1.192 0-.516-.102-.914-.306-1.193-.201-.282-.509-.423-.923-.423-.42 0-.732.141-.936.423-.204.279-.306.677-.306 1.193s.102.913.306 1.192c.204.276.516.414.936.414zm9.535-3.901l-1.471 4.59h-.77c-.09 0-.153-.059-.189-.176l-.913-2.857a7.347 7.347 0 01-.068-.243 8.492 8.492 0 01-.049-.239 5.755 5.755 0 01-.122.486l-.927 2.853c-.033.117-.103.176-.211.176h-.734l-1.471-4.59h.765c.075 0 .136.019.184.058.051.036.084.08.099.131l.765 2.673c.03.123.056.243.077.36.024.114.045.228.063.342a38.456 38.456 0 01.198-.702l.859-2.687a.234.234 0 01.09-.13.277.277 0 01.171-.054h.423c.069 0 .128.018.176.054a.227.227 0 01.094.13l.837 2.687c.036.123.069.243.099.36.033.117.063.234.09.351.021-.114.044-.23.068-.347.024-.117.052-.238.085-.364l.779-2.673a.283.283 0 01.274-.189h.729zm1.611.607c.099-.102.201-.193.306-.274.108-.084.222-.156.342-.216a1.814 1.814 0 01.823-.189c.252 0 .473.042.662.126a1.3 1.3 0 01.481.355c.132.153.231.338.297.554.066.213.099.448.099.706V137h-.963v-2.921c0-.309-.072-.549-.216-.72-.141-.171-.357-.256-.648-.256-.216 0-.417.049-.603.148a2.076 2.076 0 00-.517.405V137h-.968v-4.59h.585c.132 0 .216.061.252.184l.068.423zm5.126-2.677V137h-.968v-6.66h.968zm3.178 1.998c.339 0 .645.055.918.166.276.111.51.269.702.473.195.204.345.451.45.742.105.291.158.618.158.981s-.053.69-.158.981c-.105.291-.255.54-.45.747a1.948 1.948 0 01-.702.473 2.418 2.418 0 01-.918.167c-.342 0-.651-.056-.927-.167a2.001 2.001 0 01-.702-.473 2.126 2.126 0 01-.45-.747 2.876 2.876 0 01-.157-.981c0-.363.052-.69.157-.981.105-.291.255-.538.45-.742.195-.204.429-.362.702-.473.276-.111.585-.166.927-.166zm0 3.973c.414 0 .722-.138.923-.414.204-.279.306-.676.306-1.192 0-.516-.102-.914-.306-1.193-.201-.282-.509-.423-.923-.423-.42 0-.732.141-.936.423-.204.279-.306.677-.306 1.193s.102.913.306 1.192c.204.276.516.414.936.414zm5.61-1.318c-.345.012-.636.04-.873.085a2.338 2.338 0 00-.576.167.764.764 0 00-.32.238.534.534 0 00-.094.306c0 .108.016.201.049.279a.566.566 0 00.144.189.664.664 0 00.216.108c.084.021.176.032.275.032.252 0 .468-.047.648-.14.183-.096.36-.234.531-.413v-.851zm-2.565-1.944a2.629 2.629 0 011.854-.725c.264 0 .498.044.702.131.207.084.379.204.517.36.141.156.248.342.32.558.075.213.112.45.112.711V137h-.432a.438.438 0 01-.211-.041c-.048-.03-.089-.088-.122-.175l-.094-.374a4.67 4.67 0 01-.347.284c-.114.081-.232.15-.355.207-.12.057-.251.099-.392.126-.138.03-.291.045-.459.045-.186 0-.36-.025-.522-.077a1.16 1.16 0 01-.414-.229 1.145 1.145 0 01-.279-.387 1.356 1.356 0 01-.099-.54c0-.177.047-.35.14-.518.096-.168.252-.318.468-.45.219-.135.505-.246.859-.333a6.288 6.288 0 011.319-.148v-.306c0-.33-.071-.576-.212-.738-.141-.162-.348-.243-.621-.243-.186 0-.342.024-.468.072a1.98 1.98 0 00-.328.148 4.768 4.768 0 00-.248.153.425.425 0 01-.229.068.295.295 0 01-.171-.05.471.471 0 01-.113-.13l-.175-.315zm7.568.49a1.135 1.135 0 00-.445-.364 1.332 1.332 0 00-.527-.104c-.378 0-.673.14-.886.419-.213.276-.32.685-.32 1.228 0 .282.024.524.072.725.048.198.117.36.207.486.09.126.2.217.329.274.129.057.274.086.436.086.246 0 .458-.053.635-.158a1.85 1.85 0 00.499-.454v-2.138zm.968-3.199V137h-.585c-.129 0-.212-.062-.248-.185l-.085-.499a2.41 2.41 0 01-.657.544 1.695 1.695 0 01-.851.208c-.258 0-.492-.052-.702-.154a1.531 1.531 0 01-.54-.454 2.227 2.227 0 01-.351-.734 3.805 3.805 0 01-.121-1.008c0-.342.045-.658.135-.949.093-.291.225-.543.396-.756a1.8 1.8 0 011.444-.689c.27 0 .5.044.689.131.189.084.358.202.508.355v-2.47h.968z"/>
  <path fill="#14ABD2" d="M48.23 70.835a.397.397 0 01-.08.085.18.18 0 01-.11.03.304.304 0 01-.165-.06 2.29 2.29 0 00-.225-.14 1.593 1.593 0 00-.325-.135 1.467 1.467 0 00-.47-.065c-.25 0-.47.045-.66.135-.19.087-.35.213-.48.38a1.791 1.791 0 00-.29.605 3.078 3.078 0 00-.095.795c0 .307.035.58.105.82.07.237.168.437.295.6.13.16.285.283.465.37.183.083.388.125.615.125.217 0 .395-.025.535-.075.14-.053.255-.112.345-.175.093-.063.17-.12.23-.17a.291.291 0 01.185-.08c.073 0 .13.028.17.085l.25.325c-.11.137-.235.253-.375.35a2.383 2.383 0 01-.96.385 3.22 3.22 0 01-.54.045 2.23 2.23 0 01-.885-.175 2.033 2.033 0 01-.705-.505 2.404 2.404 0 01-.47-.82 3.331 3.331 0 01-.17-1.105c0-.377.052-.725.155-1.045a2.4 2.4 0 01.46-.825 2.11 2.11 0 01.745-.545 2.52 2.52 0 011.02-.195c.357 0 .67.058.94.175.273.113.515.275.725.485l-.235.32zm2.145-.225a2.69 2.69 0 01.72-.55c.264-.137.567-.205.91-.205.277 0 .52.047.73.14.214.09.39.22.53.39.144.167.252.368.325.605.074.237.11.498.11.785V75h-.895v-3.225c0-.383-.088-.68-.265-.89-.173-.213-.438-.32-.795-.32-.263 0-.51.063-.74.19a2.445 2.445 0 00-.63.515V75h-.895v-7.365h.895v2.975zm8.072 1.305c0-.207-.03-.395-.09-.565a1.199 1.199 0 00-.66-.735 1.347 1.347 0 00-.545-.105c-.427 0-.765.125-1.015.375-.247.247-.4.59-.46 1.03h2.77zm.72 2.375a1.74 1.74 0 01-.395.35 2.518 2.518 0 01-.495.24c-.174.063-.354.11-.54.14a3.19 3.19 0 01-.555.05c-.35 0-.674-.058-.97-.175a2.195 2.195 0 01-.765-.52 2.43 2.43 0 01-.5-.85 3.446 3.446 0 01-.18-1.16c0-.353.053-.683.16-.99.11-.307.266-.572.47-.795a2.1 2.1 0 01.745-.53c.293-.13.623-.195.99-.195.303 0 .583.052.84.155.26.1.483.247.67.44.19.19.338.427.445.71.106.28.16.6.16.96 0 .14-.015.233-.045.28-.03.047-.087.07-.17.07h-3.385c.01.32.053.598.13.835.08.237.19.435.33.595.14.157.306.275.5.355.193.077.41.115.65.115.223 0 .415-.025.575-.075a2.88 2.88 0 00.71-.335.392.392 0 01.205-.08c.073 0 .13.028.17.085l.25.325zm4.698-3.455a.399.399 0 01-.08.085.18.18 0 01-.11.03.304.304 0 01-.165-.06 2.29 2.29 0 00-.225-.14 1.593 1.593 0 00-.325-.135 1.468 1.468 0 00-.47-.065c-.25 0-.47.045-.66.135-.19.087-.35.213-.48.38a1.79 1.79 0 00-.29.605 3.074 3.074 0 00-.095.795c0 .307.035.58.105.82.07.237.168.437.295.6.13.16.285.283.465.37.183.083.388.125.615.125.216 0 .395-.025.535-.075.14-.053.255-.112.345-.175.093-.063.17-.12.23-.17a.291.291 0 01.185-.08c.073 0 .13.028.17.085l.25.325c-.11.137-.235.253-.375.35-.14.097-.292.178-.455.245-.16.063-.329.11-.505.14a3.22 3.22 0 01-.54.045 2.23 2.23 0 01-.885-.175 2.033 2.033 0 01-.705-.505 2.404 2.404 0 01-.47-.82 3.329 3.329 0 01-.17-1.105c0-.377.051-.725.155-1.045.106-.32.26-.595.46-.825a2.1 2.1 0 01.745-.545c.296-.13.636-.195 1.02-.195.356 0 .67.058.94.175.273.113.515.275.725.485l-.235.32zm4.447 4.18a.71.71 0 01-.655.46h-.525l2.92-7.47a.648.648 0 01.63-.435h.53l-2.9 7.445zm9.905-4.06a.568.568 0 01-.11.11c-.034.027-.084.04-.15.04a.35.35 0 01-.185-.055 3.286 3.286 0 00-.215-.13 1.398 1.398 0 00-.725-.19c-.217 0-.407.04-.57.12a1.08 1.08 0 00-.41.335 1.55 1.55 0 00-.24.535c-.054.207-.08.442-.08.705 0 .273.028.517.085.73.06.213.145.393.255.54.11.143.243.253.4.33.156.073.333.11.53.11.196 0 .355-.023.475-.07a1.68 1.68 0 00.31-.16c.083-.06.155-.113.215-.16a.331.331 0 01.21-.075c.1 0 .175.038.225.115l.355.45a2.31 2.31 0 01-.445.405 2.56 2.56 0 01-.5.26c-.17.063-.347.108-.53.135-.18.027-.36.04-.54.04-.317 0-.615-.058-.895-.175a2.143 2.143 0 01-.735-.52 2.51 2.51 0 01-.5-.83c-.12-.33-.18-.705-.18-1.125 0-.377.053-.725.16-1.045.11-.323.27-.602.48-.835.21-.237.47-.422.78-.555.31-.133.666-.2 1.07-.2.383 0 .718.062 1.005.185.29.123.55.3.78.53l-.325.45zm3.331-1.165c.38 0 .725.062 1.035.185a2.243 2.243 0 011.315 1.355c.12.327.18.692.18 1.095 0 .407-.06.773-.18 1.1a2.34 2.34 0 01-.515.835 2.21 2.21 0 01-.8.53c-.31.123-.655.185-1.035.185-.383 0-.732-.062-1.045-.185a2.259 2.259 0 01-.805-.53 2.435 2.435 0 01-.515-.835 3.173 3.173 0 01-.18-1.1c0-.403.06-.768.18-1.095.123-.327.295-.603.515-.83.223-.227.492-.402.805-.525a2.831 2.831 0 011.045-.185zm0 4.335c.427 0 .742-.143.945-.43.207-.287.31-.707.31-1.26s-.103-.975-.31-1.265c-.203-.29-.518-.435-.945-.435-.433 0-.755.147-.965.44-.207.29-.31.71-.31 1.26s.103.97.31 1.26c.21.287.532.43.965.43zM85.02 75v-5.13h.755c.16 0 .265.075.315.225l.08.38c.09-.1.183-.192.28-.275a1.678 1.678 0 011.1-.41c.324 0 .588.088.795.265.21.173.367.405.47.695a1.609 1.609 0 01.695-.735c.144-.077.295-.133.455-.17a2.21 2.21 0 01.49-.055c.284 0 .535.043.755.13.22.087.405.213.555.38.15.167.263.37.34.61.08.24.12.515.12.825V75H90.99v-3.265c0-.327-.072-.572-.215-.735-.143-.167-.353-.25-.63-.25a.96.96 0 00-.355.065.854.854 0 00-.285.19.848.848 0 00-.19.305 1.21 1.21 0 00-.07.425V75h-1.24v-3.265c0-.343-.07-.593-.21-.75-.136-.157-.338-.235-.605-.235a.997.997 0 00-.505.135 1.649 1.649 0 00-.43.36V75H85.02zm8.38 0v-5.13h.754c.16 0 .265.075.315.225l.08.38c.09-.1.183-.192.28-.275a1.678 1.678 0 011.1-.41c.323 0 .588.088.795.265.21.173.367.405.47.695a1.609 1.609 0 01.695-.735 1.82 1.82 0 01.455-.17 2.21 2.21 0 01.49-.055c.283 0 .535.043.755.13.22.087.405.213.555.38.15.167.263.37.34.61.08.24.12.515.12.825V75h-1.235v-3.265c0-.327-.072-.572-.215-.735-.143-.167-.353-.25-.63-.25a.96.96 0 00-.355.065.854.854 0 00-.285.19.848.848 0 00-.19.305c-.047.123-.07.265-.07.425V75h-1.24v-3.265c0-.343-.07-.593-.21-.75-.137-.157-.338-.235-.605-.235a.997.997 0 00-.505.135 1.649 1.649 0 00-.43.36V75H93.4zm11.683-3.155c0-.16-.023-.31-.07-.45a1.036 1.036 0 00-.2-.375.913.913 0 00-.345-.25 1.134 1.134 0 00-.48-.095c-.357 0-.638.102-.845.305-.203.203-.333.492-.39.865h2.33zm-2.355.745c.02.263.067.492.14.685.073.19.17.348.29.475.12.123.262.217.425.28.167.06.35.09.55.09.2 0 .372-.023.515-.07a2.3 2.3 0 00.38-.155c.11-.057.205-.108.285-.155a.49.49 0 01.24-.07c.103 0 .18.038.23.115l.355.45c-.137.16-.29.295-.46.405a2.725 2.725 0 01-1.1.395c-.19.027-.375.04-.555.04-.357 0-.688-.058-.995-.175a2.272 2.272 0 01-.8-.525 2.489 2.489 0 01-.535-.86 3.349 3.349 0 01-.195-1.19c0-.35.057-.678.17-.985.113-.31.275-.578.485-.805a2.31 2.31 0 01.775-.545c.307-.133.652-.2 1.035-.2.323 0 .622.052.895.155.273.103.508.255.705.455.197.197.35.44.46.73.113.287.17.615.17.985 0 .187-.02.313-.06.38-.04.063-.117.095-.23.095h-3.175zm5.557-1.83c.16-.307.35-.547.57-.72.22-.177.48-.265.78-.265.236 0 .426.052.57.155l-.08.925a.25.25 0 01-.075.13.2.2 0 01-.125.035 1.5 1.5 0 01-.225-.025 1.678 1.678 0 00-.285-.025c-.137 0-.259.02-.365.06a.913.913 0 00-.29.175 1.175 1.175 0 00-.225.27 2.7 2.7 0 00-.18.365V75h-1.235v-5.13h.725c.126 0 .215.023.265.07.05.043.083.123.1.24l.075.58zm6.094.195a.6.6 0 01-.11.11c-.034.027-.084.04-.15.04a.348.348 0 01-.185-.055 3.397 3.397 0 00-.215-.13 1.43 1.43 0 00-.725-.19c-.217 0-.407.04-.57.12-.164.077-.3.188-.41.335a1.535 1.535 0 00-.24.535c-.054.207-.08.442-.08.705 0 .273.028.517.085.73.06.213.145.393.255.54.11.143.243.253.4.33.156.073.333.11.53.11.196 0 .355-.023.475-.07a1.68 1.68 0 00.31-.16c.083-.06.155-.113.215-.16a.33.33 0 01.21-.075c.1 0 .175.038.225.115l.355.45a2.31 2.31 0 01-.445.405 2.56 2.56 0 01-.5.26c-.17.063-.347.108-.53.135-.18.027-.36.04-.54.04-.317 0-.615-.058-.895-.175a2.143 2.143 0 01-.735-.52 2.503 2.503 0 01-.5-.83c-.12-.33-.18-.705-.18-1.125 0-.377.053-.725.16-1.045.11-.323.27-.602.48-.835.21-.237.47-.422.78-.555.31-.133.666-.2 1.07-.2.383 0 .718.062 1.005.185.29.123.55.3.78.53l-.325.45zm4.366.89c0-.16-.023-.31-.07-.45a1.036 1.036 0 00-.2-.375.913.913 0 00-.345-.25 1.134 1.134 0 00-.48-.095c-.357 0-.638.102-.845.305-.203.203-.333.492-.39.865h2.33zm-2.355.745c.02.263.067.492.14.685.073.19.17.348.29.475.12.123.262.217.425.28.167.06.35.09.55.09.2 0 .372-.023.515-.07a2.3 2.3 0 00.38-.155c.11-.057.205-.108.285-.155a.49.49 0 01.24-.07c.103 0 .18.038.23.115l.355.45c-.137.16-.29.295-.46.405a2.725 2.725 0 01-1.1.395c-.19.027-.375.04-.555.04-.357 0-.688-.058-.995-.175a2.272 2.272 0 01-.8-.525 2.489 2.489 0 01-.535-.86 3.349 3.349 0 01-.195-1.19c0-.35.057-.678.17-.985.113-.31.275-.578.485-.805a2.31 2.31 0 01.775-.545c.307-.133.652-.2 1.035-.2.323 0 .622.052.895.155.273.103.508.255.705.455.197.197.35.44.46.73.113.287.17.615.17.985 0 .187-.02.313-.06.38-.04.063-.117.095-.23.095h-3.175zm5.672-2.72v5.305c0 .223-.03.433-.09.63-.057.197-.15.368-.28.515a1.25 1.25 0 01-.505.35c-.207.087-.46.13-.76.13-.117 0-.225-.008-.325-.025a1.876 1.876 0 01-.31-.07l.045-.665c.01-.067.037-.11.08-.13a.815.815 0 01.25-.025c.123 0 .227-.013.31-.04a.404.404 0 00.205-.12.45.45 0 00.105-.215c.023-.09.035-.202.035-.335V69.87h1.24zm.17-1.495a.708.708 0 01-.065.3.803.803 0 01-.175.245.804.804 0 01-.865.17.852.852 0 01-.415-.415.803.803 0 010-.61.778.778 0 01.415-.415.75.75 0 01.61 0 .786.786 0 01.495.725zm4.219 2.495a.35.35 0 01-.105.115.29.29 0 01-.14.03.457.457 0 01-.195-.05 6.066 6.066 0 00-.235-.11 1.94 1.94 0 00-.31-.115 1.444 1.444 0 00-.405-.05c-.243 0-.435.052-.575.155a.484.484 0 00-.205.405.4.4 0 00.105.28c.073.073.168.138.285.195.12.057.255.108.405.155.15.043.302.092.455.145.157.053.31.115.46.185.15.067.283.153.4.26.12.103.215.228.285.375.073.147.11.323.11.53 0 .247-.045.475-.135.685a1.483 1.483 0 01-.39.54c-.173.15-.388.268-.645.355a2.818 2.818 0 01-.88.125 2.72 2.72 0 01-.52-.05 2.826 2.826 0 01-.915-.33 2.136 2.136 0 01-.345-.25l.285-.47c.037-.057.08-.1.13-.13a.364.364 0 01.19-.045.39.39 0 01.215.065c.07.043.15.09.24.14a1.426 1.426 0 00.78.205c.147 0 .272-.017.375-.05a.798.798 0 00.26-.14.49.49 0 00.15-.195.59.59 0 00.05-.235.41.41 0 00-.11-.295.901.901 0 00-.285-.2 2.479 2.479 0 00-.405-.15 30.13 30.13 0 01-.465-.15 4.915 4.915 0 01-.465-.185 1.7 1.7 0 01-.405-.275 1.274 1.274 0 01-.285-.405 1.443 1.443 0 01-.105-.58c0-.21.042-.41.125-.6.083-.19.205-.355.365-.495.163-.143.365-.257.605-.34.243-.087.523-.13.84-.13.353 0 .675.058.965.175.29.117.532.27.725.46l-.28.445zm1.224.595h2.59v1.03h-2.59v-1.03zm4.926-.965c.103-.103.212-.198.325-.285a1.996 1.996 0 01.78-.37c.147-.037.307-.055.48-.055.28 0 .528.048.745.145.217.093.397.227.54.4.147.17.257.375.33.615.077.237.115.498.115.785V75h-1.235v-3.265c0-.313-.072-.555-.215-.725-.143-.173-.362-.26-.655-.26-.213 0-.413.048-.6.145a2.15 2.15 0 00-.53.395V75h-1.235v-5.13h.755c.16 0 .265.075.315.225l.085.405zm7.794 1.345c0-.16-.023-.31-.07-.45a1.036 1.036 0 00-.2-.375.913.913 0 00-.345-.25 1.128 1.128 0 00-.48-.095c-.356 0-.638.102-.845.305-.203.203-.333.492-.39.865h2.33zm-2.355.745c.02.263.067.492.14.685.074.19.17.348.29.475.12.123.262.217.425.28.167.06.35.09.55.09.2 0 .372-.023.515-.07.147-.047.274-.098.38-.155.11-.057.205-.108.285-.155a.495.495 0 01.24-.07c.104 0 .18.038.23.115l.355.45c-.136.16-.29.295-.46.405a2.725 2.725 0 01-1.1.395c-.19.027-.375.04-.555.04-.356 0-.688-.058-.995-.175a2.281 2.281 0 01-.8-.525 2.504 2.504 0 01-.535-.86 3.349 3.349 0 01-.195-1.19c0-.35.057-.678.17-.985.114-.31.275-.578.485-.805a2.32 2.32 0 01.775-.545c.307-.133.652-.2 1.035-.2.324 0 .622.052.895.155.274.103.509.255.705.455.197.197.35.44.46.73.114.287.17.615.17.985 0 .187-.02.313-.06.38-.04.063-.116.095-.23.095h-3.175zm8.894 2.41h-1.19a.335.335 0 01-.22-.07.706.706 0 01-.135-.16l-1.085-1.785c-.017.057-.037.11-.06.16a.884.884 0 01-.07.14l-.96 1.485a.886.886 0 01-.135.16.292.292 0 01-.2.07h-1.105l1.76-2.645-1.69-2.485h1.19a.39.39 0 01.2.04.308.308 0 01.115.12l1.075 1.71c.037-.113.088-.225.155-.335l.865-1.35c.073-.123.168-.185.285-.185h1.135l-1.685 2.43 1.755 2.7zm2.355.08c-.447 0-.79-.125-1.03-.375-.237-.253-.355-.602-.355-1.045v-2.865h-.525a.24.24 0 01-.17-.065c-.047-.043-.07-.108-.07-.195v-.49l.825-.135.26-1.4a.27.27 0 01.095-.155.28.28 0 01.18-.055h.64v1.615h1.37v.88h-1.37v2.78c0 .16.038.285.115.375.08.09.188.135.325.135.076 0 .14-.008.19-.025a2.716 2.716 0 00.24-.115c.03-.02.06-.03.09-.03.036 0 .066.01.09.03a.37.37 0 01.075.08l.37.6c-.18.15-.387.263-.62.34a2.31 2.31 0 01-.725.115zm3.29-5.21v5.305c0 .223-.03.433-.09.63a1.305 1.305 0 01-.785.865c-.206.087-.46.13-.76.13a1.95 1.95 0 01-.325-.025 1.876 1.876 0 01-.31-.07l.045-.665c.01-.067.037-.11.08-.13a.82.82 0 01.25-.025c.124 0 .227-.013.31-.04a.404.404 0 00.205-.12.45.45 0 00.105-.215 1.33 1.33 0 00.035-.335V69.87h1.24zm.17-1.495a.694.694 0 01-.065.3.787.787 0 01-.175.245.8.8 0 01-.865.17.852.852 0 01-.415-.415.803.803 0 010-.61.778.778 0 01.415-.415.747.747 0 01.61 0c.1.04.185.095.255.165a.77.77 0 01.24.56zm4.22 2.495a.373.373 0 01-.105.115.293.293 0 01-.14.03.457.457 0 01-.195-.05 6.066 6.066 0 00-.235-.11 1.978 1.978 0 00-.31-.115 1.454 1.454 0 00-.405-.05c-.244 0-.435.052-.575.155a.484.484 0 00-.205.405.4.4 0 00.105.28c.073.073.168.138.285.195.12.057.255.108.405.155.15.043.301.092.455.145.156.053.31.115.46.185.15.067.283.153.4.26.12.103.215.228.285.375.073.147.11.323.11.53 0 .247-.045.475-.135.685a1.483 1.483 0 01-.39.54c-.174.15-.389.268-.645.355a2.823 2.823 0 01-.88.125 2.72 2.72 0 01-.52-.05 2.782 2.782 0 01-.915-.33 2.136 2.136 0 01-.345-.25l.285-.47c.036-.057.08-.1.13-.13a.364.364 0 01.19-.045.39.39 0 01.215.065c.07.043.15.09.24.14a1.426 1.426 0 00.78.205c.146 0 .271-.017.375-.05a.809.809 0 00.26-.14.49.49 0 00.15-.195.59.59 0 00.05-.235.41.41 0 00-.11-.295.901.901 0 00-.285-.2 2.479 2.479 0 00-.405-.15 30.13 30.13 0 01-.465-.15 4.915 4.915 0 01-.465-.185 1.7 1.7 0 01-.405-.275 1.274 1.274 0 01-.285-.405 1.443 1.443 0 01-.105-.58c0-.21.041-.41.125-.6.083-.19.205-.355.365-.495.163-.143.365-.257.605-.34.243-.087.523-.13.84-.13.353 0 .675.058.965.175.29.117.531.27.725.46l-.28.445zm1.224.595h2.59v1.03h-2.59v-1.03zm6.991-.285c-.14-.17-.294-.29-.46-.36a1.333 1.333 0 00-.53-.105c-.187 0-.355.035-.505.105-.15.07-.279.177-.385.32-.107.14-.189.32-.245.54a3.054 3.054 0 00-.085.77c0 .3.023.555.07.765.05.207.12.377.21.51.09.13.2.225.33.285.13.057.275.085.435.085.256 0 .475-.053.655-.16.18-.107.35-.258.51-.455v-2.3zm1.235-3.61V75h-.755c-.164 0-.267-.075-.31-.225l-.105-.495a2.58 2.58 0 01-.715.575c-.267.147-.579.22-.935.22-.28 0-.537-.058-.77-.175a1.743 1.743 0 01-.605-.505 2.513 2.513 0 01-.39-.825c-.09-.327-.135-.7-.135-1.12 0-.38.051-.733.155-1.06a2.56 2.56 0 01.445-.85c.193-.24.425-.427.695-.56.27-.137.573-.205.91-.205.286 0 .531.045.735.135.203.09.385.212.545.365V67.57h1.235zm4.523 4.275c0-.16-.023-.31-.07-.45a1.036 1.036 0 00-.2-.375.913.913 0 00-.345-.25 1.128 1.128 0 00-.48-.095c-.356 0-.638.102-.845.305-.203.203-.333.492-.39.865h2.33zm-2.355.745c.02.263.067.492.14.685.074.19.17.348.29.475.12.123.262.217.425.28.167.06.35.09.55.09.2 0 .372-.023.515-.07.147-.047.274-.098.38-.155.11-.057.205-.108.285-.155a.495.495 0 01.24-.07c.104 0 .18.038.23.115l.355.45c-.136.16-.29.295-.46.405a2.725 2.725 0 01-1.1.395c-.19.027-.375.04-.555.04-.356 0-.688-.058-.995-.175a2.281 2.281 0 01-.8-.525 2.504 2.504 0 01-.535-.86 3.349 3.349 0 01-.195-1.19c0-.35.057-.678.17-.985.114-.31.275-.578.485-.805a2.32 2.32 0 01.775-.545c.307-.133.652-.2 1.035-.2.324 0 .622.052.895.155.274.103.509.255.705.455.197.197.35.44.46.73.114.287.17.615.17.985 0 .187-.02.313-.06.38-.04.063-.116.095-.23.095h-3.175zm4.392 2.41v-5.13h.755c.16 0 .265.075.315.225l.08.38c.09-.1.183-.192.28-.275a1.666 1.666 0 011.1-.41c.323 0 .588.088.795.265.21.173.367.405.47.695a1.617 1.617 0 01.695-.735 1.82 1.82 0 01.455-.17 2.21 2.21 0 01.49-.055c.283 0 .535.043.755.13.22.087.405.213.555.38.15.167.263.37.34.61.08.24.12.515.12.825V75h-1.235v-3.265c0-.327-.072-.572-.215-.735-.143-.167-.353-.25-.63-.25a.96.96 0 00-.355.065.848.848 0 00-.285.19.854.854 0 00-.19.305c-.047.123-.07.265-.07.425V75h-1.24v-3.265c0-.343-.07-.593-.21-.75-.137-.157-.338-.235-.605-.235a.998.998 0 00-.505.135 1.65 1.65 0 00-.43.36V75h-1.235zm10.649-5.21c.38 0 .725.062 1.035.185a2.245 2.245 0 011.315 1.355c.12.327.18.692.18 1.095 0 .407-.06.773-.18 1.1a2.34 2.34 0 01-.515.835 2.21 2.21 0 01-.8.53c-.31.123-.655.185-1.035.185-.383 0-.732-.062-1.045-.185a2.26 2.26 0 01-.805-.53 2.43 2.43 0 01-.515-.835 3.173 3.173 0 01-.18-1.1c0-.403.06-.768.18-1.095.123-.327.295-.603.515-.83.223-.227.492-.402.805-.525a2.832 2.832 0 011.045-.185zm0 4.335c.427 0 .742-.143.945-.43.207-.287.31-.707.31-1.26s-.103-.975-.31-1.265c-.203-.29-.518-.435-.945-.435-.433 0-.755.147-.965.44-.207.29-.31.71-.31 1.26s.103.97.31 1.26c.21.287.532.43.965.43zm3.432-2.66h2.59v1.03h-2.59v-1.03zm6.901-.595a.373.373 0 01-.105.115.293.293 0 01-.14.03.457.457 0 01-.195-.05 6.066 6.066 0 00-.235-.11 1.978 1.978 0 00-.31-.115 1.454 1.454 0 00-.405-.05c-.244 0-.435.052-.575.155a.484.484 0 00-.205.405.4.4 0 00.105.28c.073.073.168.138.285.195.12.057.255.108.405.155.15.043.301.092.455.145.156.053.31.115.46.185.15.067.283.153.4.26.12.103.215.228.285.375.073.147.11.323.11.53 0 .247-.045.475-.135.685a1.483 1.483 0 01-.39.54c-.174.15-.389.268-.645.355a2.823 2.823 0 01-.88.125 2.72 2.72 0 01-.52-.05 2.782 2.782 0 01-.915-.33 2.136 2.136 0 01-.345-.25l.285-.47c.036-.057.08-.1.13-.13a.364.364 0 01.19-.045.39.39 0 01.215.065c.07.043.15.09.24.14a1.426 1.426 0 00.78.205c.146 0 .271-.017.375-.05a.809.809 0 00.26-.14.49.49 0 00.15-.195.59.59 0 00.05-.235.41.41 0 00-.11-.295.901.901 0 00-.285-.2 2.479 2.479 0 00-.405-.15 30.13 30.13 0 01-.465-.15 4.915 4.915 0 01-.465-.185 1.7 1.7 0 01-.405-.275 1.274 1.274 0 01-.285-.405 1.443 1.443 0 01-.105-.58c0-.21.041-.41.125-.6.083-.19.205-.355.365-.495.163-.143.365-.257.605-.34.243-.087.523-.13.84-.13.353 0 .675.058.965.175.29.117.531.27.725.46l-.28.445zm2.974 4.21c-.446 0-.79-.125-1.03-.375-.236-.253-.355-.602-.355-1.045v-2.865h-.525a.243.243 0 01-.17-.065c-.046-.043-.07-.108-.07-.195v-.49l.825-.135.26-1.4a.28.28 0 01.095-.155.284.284 0 01.18-.055h.64v1.615h1.37v.88h-1.37v2.78c0 .16.039.285.115.375.08.09.189.135.325.135a.608.608 0 00.325-.085c.04-.02.075-.038.105-.055.03-.02.06-.03.09-.03.037 0 .067.01.09.03a.326.326 0 01.075.08l.37.6c-.18.15-.386.263-.62.34a2.305 2.305 0 01-.725.115zm4.242-5.29c.38 0 .725.062 1.035.185a2.245 2.245 0 011.315 1.355c.12.327.18.692.18 1.095 0 .407-.06.773-.18 1.1a2.34 2.34 0 01-.515.835 2.21 2.21 0 01-.8.53c-.31.123-.655.185-1.035.185-.383 0-.732-.062-1.045-.185a2.26 2.26 0 01-.805-.53 2.43 2.43 0 01-.515-.835 3.173 3.173 0 01-.18-1.1c0-.403.06-.768.18-1.095.123-.327.295-.603.515-.83.223-.227.492-.402.805-.525a2.832 2.832 0 011.045-.185zm0 4.335c.427 0 .742-.143.945-.43.207-.287.31-.707.31-1.26s-.103-.975-.31-1.265c-.203-.29-.518-.435-.945-.435-.433 0-.755.147-.965.44-.207.29-.31.71-.31 1.26s.103.97.31 1.26c.21.287.532.43.965.43zm4.637-3.365c.16-.307.35-.547.57-.72.22-.177.48-.265.78-.265.237 0 .427.052.57.155l-.08.925a.25.25 0 01-.075.13.2.2 0 01-.125.035 1.5 1.5 0 01-.225-.025 1.678 1.678 0 00-.285-.025.924.924 0 00-.655.235 1.228 1.228 0 00-.225.27 2.958 2.958 0 00-.18.365V75h-1.235v-5.13h.725c.127 0 .215.023.265.07.05.043.083.123.1.24l.075.58zm5.724 1.085c0-.16-.023-.31-.07-.45a1.036 1.036 0 00-.2-.375.913.913 0 00-.345-.25 1.134 1.134 0 00-.48-.095c-.357 0-.638.102-.845.305-.203.203-.333.492-.39.865h2.33zm-2.355.745c.02.263.067.492.14.685.073.19.17.348.29.475.12.123.262.217.425.28.167.06.35.09.55.09.2 0 .372-.023.515-.07a2.3 2.3 0 00.38-.155c.11-.057.205-.108.285-.155a.49.49 0 01.24-.07c.103 0 .18.038.23.115l.355.45c-.137.16-.29.295-.46.405a2.725 2.725 0 01-1.1.395c-.19.027-.375.04-.555.04-.357 0-.688-.058-.995-.175a2.272 2.272 0 01-.8-.525 2.489 2.489 0 01-.535-.86 3.349 3.349 0 01-.195-1.19c0-.35.057-.678.17-.985.113-.31.275-.578.485-.805a2.31 2.31 0 01.775-.545c.307-.133.652-.2 1.035-.2.323 0 .622.052.895.155.273.103.508.255.705.455.197.197.35.44.46.73.113.287.17.615.17.985 0 .187-.02.313-.06.38-.04.063-.117.095-.23.095h-3.175z"/>
  <path fill="#283341" d="M48.72 93.34l-1.125-2.915a6.015 6.015 0 01-.21-.67c-.07.27-.142.495-.215.675l-1.125 2.91h2.675zM50.74 96h-.75a.323.323 0 01-.21-.065.4.4 0 01-.12-.165l-.67-1.73h-3.215l-.67 1.73a.351.351 0 01-.115.16.32.32 0 01-.21.07h-.75l2.865-7.165h.98L50.74 96zm3.29 0v-4.305l-.56-.065a.497.497 0 01-.176-.075.192.192 0 01-.065-.155v-.365h.8v-.49c0-.29.04-.547.12-.77.084-.227.2-.417.35-.57.154-.157.337-.275.55-.355.214-.08.453-.12.72-.12.227 0 .435.033.625.1l-.02.445c-.007.08-.052.123-.135.13a3.96 3.96 0 01-.325.01c-.153 0-.293.02-.42.06a.791.791 0 00-.32.195.905.905 0 00-.21.355 1.81 1.81 0 00-.07.545v.465h1.46v.645h-1.43V96h-.895zm7.34-5.065V96h-.53c-.127 0-.207-.062-.24-.185l-.07-.545c-.22.243-.467.44-.74.59-.273.147-.587.22-.94.22-.277 0-.522-.045-.735-.135a1.481 1.481 0 01-.53-.39 1.675 1.675 0 01-.325-.605 2.761 2.761 0 01-.105-.785v-3.23h.89v3.23c0 .383.087.68.26.89.177.21.445.315.805.315.263 0 .508-.062.735-.185.23-.127.442-.3.635-.52v-3.73h.89zm2.331-2.3V96h-.89v-7.365h.89zm2.363 0V96h-.89v-7.365h.89zm5.814 2.3l-2.825 6.56a.449.449 0 01-.115.16c-.044.04-.112.06-.205.06h-.66l.925-2.01-2.09-4.77h.77c.076 0 .136.02.18.06a.279.279 0 01.095.125l1.355 3.19c.053.14.098.287.135.44a5.65 5.65 0 01.15-.445l1.315-3.185a.276.276 0 01.1-.13.273.273 0 01.165-.055h.705zm.706 1.69h2.47v.755h-2.47v-.755zM76.714 96v-4.305l-.56-.065a.449.449 0 01-.174-.075.192.192 0 01-.065-.155v-.365h.8v-.27c0-.28.042-.545.125-.795a1.84 1.84 0 01.39-.66c.173-.187.39-.335.65-.445.26-.11.563-.165.91-.165.257 0 .503.01.74.03.24.02.472.032.695.035h.605V96h-.885v-6.61a31.59 31.59 0 01-.545-.025 8.685 8.685 0 00-.475-.015c-.433 0-.767.125-1 .375-.23.247-.345.593-.345 1.04v.27h1.315v.645h-1.29V96h-.89zm8.95-3.085c0-.207-.03-.395-.09-.565a1.199 1.199 0 00-.66-.735 1.347 1.347 0 00-.546-.105c-.426 0-.765.125-1.015.375-.246.247-.4.59-.46 1.03h2.77zm.72 2.375a1.74 1.74 0 01-.396.35 2.518 2.518 0 01-.495.24c-.173.063-.353.11-.54.14-.186.033-.371.05-.555.05-.35 0-.673-.058-.97-.175a2.195 2.195 0 01-.765-.52 2.43 2.43 0 01-.5-.85 3.446 3.446 0 01-.18-1.16c0-.353.054-.683.16-.99.11-.307.267-.572.47-.795.204-.227.452-.403.745-.53.294-.13.624-.195.99-.195.304 0 .584.052.84.155.26.1.484.247.67.44.19.19.339.427.445.71.107.28.16.6.16.96 0 .14-.015.233-.045.28-.03.047-.086.07-.17.07h-3.385c.01.32.054.598.13.835.08.237.19.435.33.595.14.157.307.275.5.355.194.077.41.115.65.115.224 0 .415-.025.575-.075a2.88 2.88 0 00.71-.335.392.392 0 01.205-.08c.074 0 .13.028.17.085l.25.325zm4.473-3.15c-.167-.223-.347-.378-.54-.465a1.522 1.522 0 00-.65-.135c-.47 0-.832.168-1.085.505-.254.337-.38.817-.38 1.44 0 .33.028.613.085.85.056.233.14.427.25.58.11.15.245.26.405.33.16.07.341.105.545.105.293 0 .548-.067.765-.2.22-.133.421-.322.605-.565V92.14zm.89-3.505V96h-.53c-.127 0-.207-.062-.24-.185l-.08-.615a2.76 2.76 0 01-.74.63c-.277.16-.597.24-.96.24a1.85 1.85 0 01-.79-.165 1.66 1.66 0 01-.605-.495 2.346 2.346 0 01-.385-.81 4.17 4.17 0 01-.135-1.115c0-.373.05-.72.15-1.04.1-.323.243-.603.43-.84.186-.237.415-.422.685-.555.273-.137.58-.205.92-.205a1.808 1.808 0 011.39.595v-2.805h.89zm3.17 4.89c.18 0 .339-.025.475-.075a.97.97 0 00.345-.21.864.864 0 00.21-.32c.047-.127.07-.265.07-.415 0-.31-.095-.557-.285-.74-.186-.183-.458-.275-.815-.275-.36 0-.635.092-.825.275-.186.183-.28.43-.28.74 0 .15.024.288.07.415a.918.918 0 00.56.53c.137.05.295.075.475.075zm1.605 2.75a.428.428 0 00-.105-.3.698.698 0 00-.285-.18 1.701 1.701 0 00-.41-.09 7.15 7.15 0 00-.5-.045l-.53-.03a6.265 6.265 0 01-.52-.05c-.186.087-.34.197-.46.33a.666.666 0 00-.09.775c.06.1.15.185.27.255.12.073.27.13.45.17.184.043.399.065.645.065.24 0 .455-.022.645-.065.19-.043.35-.105.48-.185a.902.902 0 00.305-.285.666.666 0 00.105-.365zm.905-5.14v.33c0 .11-.07.18-.21.21l-.575.075c.114.22.17.463.17.73a1.553 1.553 0 01-.535 1.19 1.744 1.744 0 01-.6.33 2.421 2.421 0 01-.76.115 2.56 2.56 0 01-.67-.085.876.876 0 00-.245.215.365.365 0 00-.085.225c0 .12.049.212.145.275.1.06.23.103.39.13.16.027.342.043.545.05.207.007.417.018.63.035.217.013.427.038.63.075.207.037.39.097.55.18.16.083.289.198.385.345.1.147.15.337.15.57 0 .217-.055.427-.165.63a1.652 1.652 0 01-.465.54c-.203.16-.453.287-.75.38a3.17 3.17 0 01-.995.145 3.81 3.81 0 01-.97-.11 2.276 2.276 0 01-.69-.295 1.3 1.3 0 01-.415-.43 1.015 1.015 0 01-.135-.505c0-.25.079-.462.235-.635a1.63 1.63 0 01.645-.415.957.957 0 01-.36-.265.734.734 0 01-.13-.455c0-.073.014-.148.04-.225a.919.919 0 01.12-.235 1.29 1.29 0 01.485-.41 1.563 1.563 0 01-.585-.555 1.544 1.544 0 01-.21-.81 1.482 1.482 0 01.54-1.185c.17-.143.372-.253.605-.33.237-.077.495-.115.775-.115.22 0 .425.025.615.075.19.047.364.117.52.21h1.375zm4.232 1.78c0-.207-.03-.395-.09-.565a1.18 1.18 0 00-.255-.445 1.076 1.076 0 00-.405-.29 1.345 1.345 0 00-.545-.105c-.426 0-.764.125-1.014.375-.247.247-.4.59-.46 1.03h2.769zm.72 2.375c-.11.133-.241.25-.395.35a2.497 2.497 0 01-.495.24c-.173.063-.353.11-.54.14-.186.033-.371.05-.555.05-.35 0-.673-.058-.97-.175a2.195 2.195 0 01-.765-.52 2.43 2.43 0 01-.5-.85 3.446 3.446 0 01-.18-1.16c0-.353.054-.683.16-.99.11-.307.267-.572.47-.795.204-.227.452-.403.746-.53.293-.13.623-.195.989-.195.304 0 .584.052.84.155.26.1.484.247.67.44.19.19.339.427.445.71.107.28.16.6.16.96 0 .14-.015.233-.045.28-.03.047-.086.07-.17.07h-3.385c.01.32.054.598.13.835.08.237.19.435.33.595.14.157.307.275.5.355.194.077.41.115.65.115.224 0 .415-.025.575-.075a2.816 2.816 0 00.71-.335.394.394 0 01.205-.08c.074 0 .13.028.17.085l.25.325zm4.474-3.15c-.167-.223-.347-.378-.54-.465a1.524 1.524 0 00-.65-.135c-.47 0-.832.168-1.085.505-.254.337-.38.817-.38 1.44 0 .33.028.613.085.85.056.233.14.427.25.58.11.15.245.26.405.33.16.07.341.105.545.105.293 0 .548-.067.765-.2.22-.133.421-.322.605-.565V92.14zm.89-3.505V96h-.53c-.127 0-.207-.062-.24-.185l-.08-.615c-.217.26-.464.47-.74.63-.277.16-.597.24-.96.24a1.85 1.85 0 01-.79-.165 1.653 1.653 0 01-.605-.495 2.34 2.34 0 01-.385-.81 4.17 4.17 0 01-.135-1.115c0-.373.05-.72.15-1.04.1-.323.243-.603.43-.84a1.97 1.97 0 01.685-.555c.273-.137.58-.205.92-.205a1.808 1.808 0 011.39.595v-2.805h.89zm7.264 3.505c-.167-.223-.347-.378-.54-.465a1.52 1.52 0 00-.65-.135c-.47 0-.832.168-1.085.505-.253.337-.38.817-.38 1.44 0 .33.028.613.085.85.057.233.14.427.25.58.11.15.245.26.405.33.16.07.342.105.545.105.293 0 .548-.067.765-.2.22-.133.422-.322.605-.565V92.14zm.89-3.505V96h-.53c-.127 0-.207-.062-.24-.185l-.08-.615c-.217.26-.463.47-.74.63-.277.16-.597.24-.96.24-.29 0-.553-.055-.79-.165a1.661 1.661 0 01-.605-.495 2.34 2.34 0 01-.385-.81 4.17 4.17 0 01-.135-1.115c0-.373.05-.72.15-1.04.1-.323.243-.603.43-.84s.415-.422.685-.555c.273-.137.58-.205.92-.205a1.808 1.808 0 011.39.595v-2.805h.89zm4.796 4.28c0-.207-.03-.395-.09-.565a1.207 1.207 0 00-.255-.445 1.076 1.076 0 00-.405-.29 1.348 1.348 0 00-.545-.105c-.427 0-.765.125-1.015.375-.247.247-.4.59-.46 1.03h2.77zm.72 2.375c-.11.133-.242.25-.395.35a2.551 2.551 0 01-.495.24 2.95 2.95 0 01-.54.14 3.19 3.19 0 01-.555.05c-.35 0-.674-.058-.97-.175a2.184 2.184 0 01-.765-.52 2.422 2.422 0 01-.5-.85 3.446 3.446 0 01-.18-1.16c0-.353.053-.683.16-.99.11-.307.266-.572.47-.795a2.1 2.1 0 01.745-.53c.293-.13.623-.195.99-.195.303 0 .583.052.84.155.26.1.483.247.67.44.19.19.338.427.445.71.106.28.16.6.16.96 0 .14-.015.233-.045.28-.03.047-.087.07-.17.07h-3.385c.01.32.053.598.13.835.08.237.19.435.33.595.14.157.306.275.5.355.193.077.41.115.65.115.223 0 .415-.025.575-.075a2.907 2.907 0 00.71-.335.391.391 0 01.205-.08c.073 0 .13.028.17.085l.25.325zm1.173.71v-5.065h.535c.127 0 .205.062.235.185l.065.52a2.59 2.59 0 01.63-.565c.233-.147.503-.22.81-.22.34 0 .615.095.825.285.213.19.367.447.46.77.073-.183.167-.342.28-.475a1.67 1.67 0 01.845-.52c.163-.04.328-.06.495-.06.267 0 .503.043.71.13.21.083.387.207.53.37.147.163.258.365.335.605.077.237.115.508.115.815V96h-.895v-3.225c0-.397-.087-.697-.26-.9-.173-.207-.423-.31-.75-.31-.147 0-.287.027-.42.08a.981.981 0 00-.345.225c-.1.1-.18.227-.24.38-.057.15-.085.325-.085.525V96h-.895v-3.225c0-.407-.082-.71-.245-.91-.163-.2-.402-.3-.715-.3-.22 0-.423.06-.61.18a1.984 1.984 0 00-.515.48V96h-.895zm10.358-5.145c.37 0 .703.062 1 .185a2.148 2.148 0 011.24 1.35c.113.32.17.678.17 1.075 0 .4-.057.76-.17 1.08-.11.32-.27.593-.48.82a2.14 2.14 0 01-.76.525c-.297.12-.63.18-1 .18-.374 0-.71-.06-1.01-.18a2.14 2.14 0 01-.76-.525c-.21-.227-.372-.5-.485-.82a3.31 3.31 0 01-.165-1.08c0-.397.055-.755.165-1.075.113-.323.275-.598.485-.825a2.14 2.14 0 01.76-.525c.3-.123.636-.185 1.01-.185zm0 4.52c.5 0 .873-.167 1.12-.5.246-.337.37-.805.37-1.405 0-.603-.124-1.073-.37-1.41-.247-.337-.62-.505-1.12-.505-.254 0-.475.043-.665.13a1.249 1.249 0 00-.47.375 1.704 1.704 0 00-.28.605c-.06.237-.09.505-.09.805 0 .6.123 1.068.37 1.405.25.333.628.5 1.135.5zm9.047-3.605a.198.198 0 01-.185.11.347.347 0 01-.17-.055 2.969 2.969 0 00-.235-.12 1.783 1.783 0 00-.325-.125 1.504 1.504 0 00-.45-.06c-.15 0-.285.02-.405.06a.97.97 0 00-.31.155.633.633 0 00-.26.52c0 .13.037.238.11.325.077.087.177.162.3.225s.263.12.42.17c.157.047.317.098.48.155.167.053.328.113.485.18.157.067.297.15.42.25a1.107 1.107 0 01.41.89c0 .233-.042.45-.125.65a1.441 1.441 0 01-.37.515 1.802 1.802 0 01-.6.34c-.237.083-.51.125-.82.125a2.6 2.6 0 01-.96-.17 2.468 2.468 0 01-.73-.445l.21-.34a.305.305 0 01.095-.1.257.257 0 01.14-.035c.06 0 .123.023.19.07.067.047.147.098.24.155a1.598 1.598 0 00.86.225c.173 0 .325-.022.455-.065a.992.992 0 00.325-.185.694.694 0 00.19-.265.802.802 0 00.065-.32.512.512 0 00-.115-.345.877.877 0 00-.295-.235 2.163 2.163 0 00-.425-.17l-.485-.155a6.559 6.559 0 01-.485-.18 1.768 1.768 0 01-.42-.26 1.213 1.213 0 01-.3-.38 1.282 1.282 0 01-.11-.555c0-.193.04-.378.12-.555.08-.18.197-.337.35-.47.153-.137.342-.245.565-.325.223-.08.478-.12.765-.12.333 0 .632.053.895.16.267.103.497.247.69.43l-.2.325zm2.931 4.31c-.4 0-.708-.112-.925-.335-.213-.223-.32-.545-.32-.965v-3.1h-.61a.207.207 0 01-.135-.045c-.037-.033-.055-.083-.055-.15v-.355l.83-.105.205-1.565c.01-.05.032-.09.065-.12a.2.2 0 01.14-.05h.45v1.745h1.465v.645h-1.465v3.04c0 .213.052.372.155.475a.541.541 0 00.4.155.733.733 0 00.42-.12c.05-.03.092-.057.125-.08.037-.027.068-.04.095-.04.047 0 .088.028.125.085l.26.425a1.684 1.684 0 01-.555.34c-.217.08-.44.12-.67.12zm4.135-5.225c.37 0 .703.062 1 .185a2.148 2.148 0 011.24 1.35c.113.32.17.678.17 1.075 0 .4-.057.76-.17 1.08-.11.32-.27.593-.48.82a2.14 2.14 0 01-.76.525c-.297.12-.63.18-1 .18-.374 0-.71-.06-1.01-.18a2.14 2.14 0 01-.76-.525c-.21-.227-.372-.5-.485-.82a3.31 3.31 0 01-.165-1.08c0-.397.055-.755.165-1.075.113-.323.275-.598.485-.825a2.14 2.14 0 01.76-.525c.3-.123.636-.185 1.01-.185zm0 4.52c.5 0 .873-.167 1.12-.5.246-.337.37-.805.37-1.405 0-.603-.124-1.073-.37-1.41-.247-.337-.62-.505-1.12-.505-.254 0-.475.043-.665.13a1.249 1.249 0 00-.47.375 1.704 1.704 0 00-.28.605c-.06.237-.09.505-.09.805 0 .6.123 1.068.37 1.405.25.333.628.5 1.135.5zm4.384-3.425c.16-.347.356-.617.59-.81a1.28 1.28 0 01.855-.295c.106 0 .208.012.305.035.1.023.188.06.265.11l-.065.665c-.02.083-.07.125-.15.125a1.03 1.03 0 01-.205-.03c-.09-.02-.192-.03-.305-.03-.16 0-.304.023-.43.07a1.007 1.007 0 00-.335.21 1.47 1.47 0 00-.265.34 2.904 2.904 0 00-.21.46V96h-.895v-5.065h.51c.096 0 .163.018.2.055.036.037.061.1.075.19l.06.77zm5.982.965c0-.207-.03-.395-.09-.565a1.207 1.207 0 00-.255-.445 1.076 1.076 0 00-.405-.29 1.348 1.348 0 00-.545-.105c-.427 0-.765.125-1.015.375-.247.247-.4.59-.46 1.03h2.77zm.72 2.375c-.11.133-.242.25-.395.35a2.497 2.497 0 01-.495.24c-.173.063-.353.11-.54.14a3.19 3.19 0 01-.555.05c-.35 0-.673-.058-.97-.175a2.202 2.202 0 01-.765-.52 2.437 2.437 0 01-.5-.85 3.446 3.446 0 01-.18-1.16c0-.353.053-.683.16-.99.11-.307.267-.572.47-.795a2.11 2.11 0 01.745-.53c.293-.13.623-.195.99-.195.303 0 .583.052.84.155.26.1.483.247.67.44.19.19.338.427.445.71.107.28.16.6.16.96 0 .14-.015.233-.045.28-.03.047-.087.07-.17.07h-3.385c.01.32.053.598.13.835.08.237.19.435.33.595.14.157.307.275.5.355.193.077.41.115.65.115.223 0 .415-.025.575-.075a2.907 2.907 0 00.71-.335.391.391 0 01.205-.08c.073 0 .13.028.17.085l.25.325zm7.897-4.355V96h-.53c-.127 0-.207-.062-.24-.185l-.07-.545c-.22.243-.467.44-.74.59-.273.147-.587.22-.94.22-.277 0-.522-.045-.735-.135a1.479 1.479 0 01-.53-.39 1.675 1.675 0 01-.325-.605 2.761 2.761 0 01-.105-.785v-3.23h.89v3.23c0 .383.087.68.26.89.177.21.445.315.805.315.263 0 .508-.062.735-.185.23-.127.442-.3.635-.52v-3.73h.89zm4.361.835a.198.198 0 01-.185.11.347.347 0 01-.17-.055 2.969 2.969 0 00-.235-.12 1.783 1.783 0 00-.325-.125 1.504 1.504 0 00-.45-.06c-.15 0-.285.02-.405.06a.97.97 0 00-.31.155.633.633 0 00-.26.52c0 .13.037.238.11.325.077.087.177.162.3.225s.263.12.42.17c.157.047.317.098.48.155.167.053.328.113.485.18.157.067.297.15.42.25a1.107 1.107 0 01.41.89c0 .233-.042.45-.125.65a1.441 1.441 0 01-.37.515 1.802 1.802 0 01-.6.34c-.237.083-.51.125-.82.125a2.6 2.6 0 01-.96-.17 2.468 2.468 0 01-.73-.445l.21-.34a.305.305 0 01.095-.1.257.257 0 01.14-.035c.06 0 .123.023.19.07.067.047.147.098.24.155a1.598 1.598 0 00.86.225c.173 0 .325-.022.455-.065a.992.992 0 00.325-.185.694.694 0 00.19-.265.802.802 0 00.065-.32.512.512 0 00-.115-.345.877.877 0 00-.295-.235 2.163 2.163 0 00-.425-.17l-.485-.155a6.559 6.559 0 01-.485-.18 1.768 1.768 0 01-.42-.26 1.213 1.213 0 01-.3-.38 1.282 1.282 0 01-.11-.555c0-.193.04-.378.12-.555.08-.18.197-.337.35-.47.153-.137.342-.245.565-.325.223-.08.478-.12.765-.12.333 0 .632.053.895.16.267.103.497.247.69.43l-.2.325zm2.316-.835V96h-.89v-5.065h.89zm.19-1.59a.556.556 0 01-.055.245.673.673 0 01-.14.2.62.62 0 01-.205.135.612.612 0 01-.685-.135.76.76 0 01-.135-.2.613.613 0 010-.49.65.65 0 01.33-.345.612.612 0 01.49 0 .58.58 0 01.205.14c.06.057.107.125.14.205a.556.556 0 01.055.245zm2.113 2.325a2.98 2.98 0 01.35-.335c.123-.1.253-.185.39-.255a2.032 2.032 0 01.945-.225c.276 0 .52.047.73.14.213.09.39.22.53.39.143.167.251.368.325.605.073.237.11.498.11.785V96h-.895v-3.225c0-.383-.089-.68-.265-.89-.174-.213-.439-.32-.795-.32-.264 0-.51.063-.74.19a2.435 2.435 0 00-.63.515V96h-.895v-5.065h.535c.126 0 .205.062.235.185l.07.55zm6.501 1.855c.18 0 .338-.025.475-.075a.98.98 0 00.345-.21.871.871 0 00.21-.32c.046-.127.07-.265.07-.415 0-.31-.095-.557-.285-.74-.187-.183-.459-.275-.815-.275-.36 0-.635.092-.825.275-.187.183-.28.43-.28.74 0 .15.023.288.07.415a.91.91 0 00.56.53c.136.05.295.075.475.075zm1.605 2.75a.428.428 0 00-.105-.3.698.698 0 00-.285-.18 1.71 1.71 0 00-.41-.09 7.2 7.2 0 00-.5-.045l-.53-.03a6.24 6.24 0 01-.52-.05 1.41 1.41 0 00-.46.33.665.665 0 00-.09.775c.06.1.15.185.27.255.12.073.27.13.45.17.183.043.398.065.645.065.24 0 .455-.022.645-.065.19-.043.35-.105.48-.185a.905.905 0 00.305-.285.666.666 0 00.105-.365zm.905-5.14v.33c0 .11-.07.18-.21.21l-.575.075c.113.22.17.463.17.73a1.535 1.535 0 01-.535 1.19 1.75 1.75 0 01-.6.33 2.425 2.425 0 01-.76.115c-.237 0-.46-.028-.67-.085a.864.864 0 00-.245.215.363.363 0 00-.085.225c0 .12.048.212.145.275.1.06.23.103.39.13.16.027.341.043.545.05.206.007.416.018.63.035.216.013.426.038.63.075.206.037.39.097.55.18.16.083.288.198.385.345.1.147.15.337.15.57 0 .217-.055.427-.165.63a1.659 1.659 0 01-.465.54 2.34 2.34 0 01-.75.38 3.174 3.174 0 01-.995.145 3.82 3.82 0 01-.97-.11 2.27 2.27 0 01-.69-.295 1.292 1.292 0 01-.415-.43 1.015 1.015 0 01-.135-.505.91.91 0 01.235-.635c.156-.173.371-.312.645-.415a.957.957 0 01-.36-.265c-.087-.113-.13-.265-.13-.455 0-.073.013-.148.04-.225a.882.882 0 01.12-.235 1.266 1.266 0 01.485-.41 1.563 1.563 0 01-.585-.555 1.544 1.544 0 01-.21-.81 1.475 1.475 0 01.54-1.185c.17-.143.371-.253.605-.33a2.49 2.49 0 01.775-.115c.22 0 .425.025.615.075.19.047.363.117.52.21h1.375zm8.719 3.385c.053 0 .1.022.14.065l.385.415c-.294.34-.65.605-1.07.795-.417.19-.922.285-1.515.285-.514 0-.98-.088-1.4-.265-.42-.18-.779-.43-1.075-.75a3.407 3.407 0 01-.69-1.16 4.308 4.308 0 01-.245-1.485c0-.54.085-1.035.255-1.485.17-.45.408-.837.715-1.16.31-.323.68-.573 1.11-.75.43-.18.905-.27 1.425-.27.51 0 .96.082 1.35.245.39.163.733.385 1.03.665l-.32.445a.281.281 0 01-.08.085.224.224 0 01-.125.03c-.06 0-.134-.032-.22-.095a2.548 2.548 0 00-.865-.435c-.21-.067-.469-.1-.775-.1-.37 0-.709.065-1.015.195a2.208 2.208 0 00-.795.555c-.22.243-.392.54-.515.89-.124.35-.185.745-.185 1.185 0 .447.063.845.19 1.195.13.35.305.647.525.89.223.24.485.423.785.55.303.127.63.19.98.19.213 0 .405-.012.575-.035a2.48 2.48 0 00.475-.12 2.01 2.01 0 00.405-.2 3.06 3.06 0 00.375-.295.257.257 0 01.17-.075zm3.477-3.665c.37 0 .703.062 1 .185a2.148 2.148 0 011.24 1.35c.113.32.17.678.17 1.075 0 .4-.057.76-.17 1.08-.11.32-.27.593-.48.82a2.14 2.14 0 01-.76.525c-.297.12-.63.18-1 .18-.374 0-.71-.06-1.01-.18a2.14 2.14 0 01-.76-.525c-.21-.227-.372-.5-.485-.82a3.31 3.31 0 01-.165-1.08c0-.397.055-.755.165-1.075.113-.323.275-.598.485-.825a2.14 2.14 0 01.76-.525c.3-.123.636-.185 1.01-.185zm0 4.52c.5 0 .873-.167 1.12-.5.246-.337.37-.805.37-1.405 0-.603-.124-1.073-.37-1.41-.247-.337-.62-.505-1.12-.505-.254 0-.475.043-.665.13a1.249 1.249 0 00-.47.375 1.704 1.704 0 00-.28.605c-.06.237-.09.505-.09.805 0 .6.123 1.068.37 1.405.25.333.628.5 1.135.5zm3.539.625v-5.065h.535c.126 0 .205.062.235.185l.065.52a2.56 2.56 0 01.63-.565c.233-.147.503-.22.81-.22.34 0 .615.095.825.285.213.19.366.447.46.77a1.68 1.68 0 01.28-.475 1.631 1.631 0 01.845-.52c.163-.04.328-.06.495-.06.266 0 .503.043.71.13.21.083.386.207.53.37.146.163.258.365.335.605.076.237.115.508.115.815V96h-.895v-3.225c0-.397-.087-.697-.26-.9-.174-.207-.424-.31-.75-.31-.147 0-.287.027-.42.08a.981.981 0 00-.345.225c-.1.1-.18.227-.24.38-.057.15-.085.325-.085.525V96h-.895v-3.225c0-.407-.082-.71-.245-.91-.164-.2-.402-.3-.715-.3-.22 0-.424.06-.61.18a1.968 1.968 0 00-.515.48V96h-.895zm8.222 0v-5.065h.535c.127 0 .205.062.235.185l.065.52a2.59 2.59 0 01.63-.565 1.49 1.49 0 01.81-.22c.34 0 .615.095.825.285.214.19.367.447.46.77.074-.183.167-.342.28-.475a1.67 1.67 0 01.845-.52c.164-.04.329-.06.495-.06.267 0 .504.043.71.13.21.083.387.207.53.37.147.163.259.365.335.605.077.237.115.508.115.815V96h-.895v-3.225c0-.397-.086-.697-.26-.9-.173-.207-.423-.31-.75-.31-.146 0-.286.027-.42.08a.981.981 0 00-.345.225c-.1.1-.18.227-.24.38-.056.15-.085.325-.085.525V96h-.895v-3.225c0-.407-.081-.71-.245-.91-.163-.2-.401-.3-.715-.3-.22 0-.423.06-.61.18a2 2 0 00-.515.48V96h-.895zm11.613-3.085c0-.207-.03-.395-.09-.565a1.207 1.207 0 00-.255-.445 1.076 1.076 0 00-.405-.29 1.348 1.348 0 00-.545-.105c-.427 0-.765.125-1.015.375-.247.247-.4.59-.46 1.03h2.77zm.72 2.375c-.11.133-.242.25-.395.35a2.497 2.497 0 01-.495.24c-.173.063-.353.11-.54.14a3.19 3.19 0 01-.555.05c-.35 0-.673-.058-.97-.175a2.202 2.202 0 01-.765-.52 2.437 2.437 0 01-.5-.85 3.446 3.446 0 01-.18-1.16c0-.353.053-.683.16-.99.11-.307.267-.572.47-.795a2.11 2.11 0 01.745-.53c.293-.13.623-.195.99-.195.303 0 .583.052.84.155.26.1.483.247.67.44.19.19.338.427.445.71.107.28.16.6.16.96 0 .14-.015.233-.045.28-.03.047-.087.07-.17.07h-3.385c.01.32.053.598.13.835.08.237.19.435.33.595.14.157.307.275.5.355.193.077.41.115.65.115.223 0 .415-.025.575-.075a2.907 2.907 0 00.71-.335.391.391 0 01.205-.08c.073 0 .13.028.17.085l.25.325zm2.018-3.34c.16-.347.357-.617.59-.81a1.28 1.28 0 01.855-.295c.107 0 .208.012.305.035.1.023.188.06.265.11l-.065.665c-.02.083-.07.125-.15.125a1.03 1.03 0 01-.205-.03c-.09-.02-.192-.03-.305-.03-.16 0-.303.023-.43.07a1.017 1.017 0 00-.335.21 1.47 1.47 0 00-.265.34 2.904 2.904 0 00-.21.46V96h-.895v-5.065h.51c.097 0 .163.018.2.055.037.037.062.1.075.19l.06.77zm6.118-.115a.423.423 0 01-.08.085.182.182 0 01-.11.03.304.304 0 01-.165-.06 2.29 2.29 0 00-.225-.14 1.6 1.6 0 00-.325-.135 1.472 1.472 0 00-.47-.065c-.25 0-.47.045-.66.135-.19.087-.35.213-.48.38a1.773 1.773 0 00-.29.605 3.048 3.048 0 00-.095.795c0 .307.035.58.105.82.07.237.168.437.295.6.13.16.285.283.465.37.183.083.388.125.615.125.216 0 .395-.025.535-.075.14-.053.255-.112.345-.175.093-.063.17-.12.23-.17a.29.29 0 01.185-.08c.073 0 .13.028.17.085l.25.325c-.11.137-.235.253-.375.35-.14.097-.292.178-.455.245-.16.063-.329.11-.505.14-.177.03-.357.045-.54.045-.317 0-.612-.058-.885-.175a2.033 2.033 0 01-.705-.505 2.399 2.399 0 01-.47-.82 3.313 3.313 0 01-.17-1.105c0-.377.051-.725.155-1.045.106-.32.26-.595.46-.825a2.1 2.1 0 01.745-.545c.296-.13.636-.195 1.02-.195.356 0 .67.058.94.175.273.113.515.275.725.485l-.235.32zm4.552 1.08c0-.207-.03-.395-.09-.565a1.207 1.207 0 00-.255-.445 1.076 1.076 0 00-.405-.29 1.348 1.348 0 00-.545-.105c-.427 0-.765.125-1.015.375-.247.247-.4.59-.46 1.03h2.77zm.72 2.375c-.11.133-.242.25-.395.35a2.497 2.497 0 01-.495.24c-.173.063-.353.11-.54.14a3.19 3.19 0 01-.555.05c-.35 0-.673-.058-.97-.175a2.202 2.202 0 01-.765-.52 2.437 2.437 0 01-.5-.85 3.446 3.446 0 01-.18-1.16c0-.353.053-.683.16-.99.11-.307.267-.572.47-.795a2.11 2.11 0 01.745-.53c.293-.13.623-.195.99-.195.303 0 .583.052.84.155.26.1.483.247.67.44.19.19.338.427.445.71.107.28.16.6.16.96 0 .14-.015.233-.045.28-.03.047-.087.07-.17.07h-3.385c.01.32.053.598.13.835.08.237.19.435.33.595.14.157.307.275.5.355.193.077.41.115.65.115.223 0 .415-.025.575-.075a2.907 2.907 0 00.71-.335.391.391 0 01.205-.08c.073 0 .13.028.17.085l.25.325zm1.023.16c0-.087.015-.168.045-.245a.712.712 0 01.13-.2.652.652 0 01.2-.135.612.612 0 01.49 0 .629.629 0 01.385.58.61.61 0 01-.385.575.612.612 0 01-.49 0 .585.585 0 01-.33-.325.68.68 0 01-.045-.25zm3.454-4.515v5.44c0 .203-.027.392-.08.565-.054.177-.139.33-.255.46-.117.13-.267.232-.45.305a1.65 1.65 0 01-.65.115 1.617 1.617 0 01-.565-.1l.035-.48a.132.132 0 01.035-.07.098.098 0 01.06-.025.873.873 0 01.105-.005c.04.003.091.005.155.005.26 0 .445-.062.555-.185.11-.12.165-.315.165-.585v-5.44h.89zm.185-1.59a.57.57 0 01-.055.245.652.652 0 01-.34.335.612.612 0 01-.49 0 .641.641 0 01-.38-.58c0-.087.016-.168.05-.245a.617.617 0 01.135-.205.603.603 0 01.195-.14.612.612 0 01.69.14.6.6 0 01.14.205.57.57 0 01.055.245zm4.227 2.425a.198.198 0 01-.185.11.347.347 0 01-.17-.055 2.969 2.969 0 00-.235-.12 1.783 1.783 0 00-.325-.125 1.504 1.504 0 00-.45-.06c-.15 0-.285.02-.405.06a.97.97 0 00-.31.155.633.633 0 00-.26.52c0 .13.037.238.11.325.077.087.177.162.3.225s.263.12.42.17c.157.047.317.098.48.155.167.053.328.113.485.18.157.067.297.15.42.25a1.107 1.107 0 01.41.89c0 .233-.042.45-.125.65a1.441 1.441 0 01-.37.515 1.802 1.802 0 01-.6.34c-.237.083-.51.125-.82.125a2.6 2.6 0 01-.96-.17 2.468 2.468 0 01-.73-.445l.21-.34a.305.305 0 01.095-.1.257.257 0 01.14-.035c.06 0 .123.023.19.07.067.047.147.098.24.155a1.598 1.598 0 00.86.225c.173 0 .325-.022.455-.065a.992.992 0 00.325-.185.694.694 0 00.19-.265.802.802 0 00.065-.32.512.512 0 00-.115-.345.877.877 0 00-.295-.235 2.163 2.163 0 00-.425-.17l-.485-.155a6.559 6.559 0 01-.485-.18 1.768 1.768 0 01-.42-.26 1.213 1.213 0 01-.3-.38 1.282 1.282 0 01-.11-.555c0-.193.04-.378.12-.555.08-.18.197-.337.35-.47.153-.137.342-.245.565-.325.223-.08.478-.12.765-.12.333 0 .632.053.895.16.267.103.497.247.69.43l-.2.325zm6.68 1.95c-.41.013-.76.047-1.05.1-.287.05-.522.117-.705.2a.995.995 0 00-.395.295.644.644 0 00-.12.38.83.83 0 00.065.345.666.666 0 00.175.24.79.79 0 00.265.135c.103.027.213.04.33.04.156 0 .3-.015.43-.045.13-.033.251-.08.365-.14.116-.06.226-.132.33-.215a2.78 2.78 0 00.31-.285v-1.05zm-2.875-2.07c.28-.27.581-.472.905-.605.323-.133.681-.2 1.075-.2.283 0 .535.047.755.14a1.548 1.548 0 01.895.995c.076.237.115.497.115.78V96h-.395a.405.405 0 01-.2-.04c-.047-.03-.084-.087-.11-.17l-.1-.48a5.743 5.743 0 01-.39.33c-.127.093-.26.173-.4.24-.14.063-.29.112-.45.145a2.31 2.31 0 01-.525.055c-.197 0-.382-.027-.555-.08a1.335 1.335 0 01-.455-.25 1.197 1.197 0 01-.305-.415c-.074-.17-.11-.37-.11-.6 0-.2.055-.392.165-.575.11-.187.288-.352.535-.495.246-.143.568-.26.965-.35a7.21 7.21 0 011.46-.16v-.395c0-.393-.085-.69-.255-.89-.17-.203-.419-.305-.745-.305-.22 0-.405.028-.555.085a1.959 1.959 0 00-.385.185c-.107.067-.2.128-.28.185a.403.403 0 01-.23.08.265.265 0 01-.155-.045.46.46 0 01-.11-.12l-.16-.285zm5.94.02a3.06 3.06 0 01.35-.335c.124-.1.254-.185.39-.255a2.038 2.038 0 01.945-.225c.277 0 .52.047.73.14.214.09.39.22.53.39.144.167.252.368.325.605.074.237.11.498.11.785V96h-.895v-3.225c0-.383-.088-.68-.265-.89-.173-.213-.438-.32-.795-.32-.263 0-.51.063-.74.19a2.469 2.469 0 00-.63.515V96h-.895v-5.065h.535c.127 0 .205.062.235.185l.07.55zm8.037.47c-.167-.223-.347-.378-.54-.465a1.524 1.524 0 00-.65-.135c-.47 0-.832.168-1.085.505-.254.337-.38.817-.38 1.44 0 .33.028.613.085.85.056.233.14.427.25.58.11.15.245.26.405.33.16.07.341.105.545.105.293 0 .548-.067.765-.2.22-.133.421-.322.605-.565V92.14zm.89-3.505V96h-.53c-.127 0-.207-.062-.24-.185l-.08-.615c-.217.26-.464.47-.74.63-.277.16-.597.24-.96.24a1.85 1.85 0 01-.79-.165 1.653 1.653 0 01-.605-.495 2.34 2.34 0 01-.385-.81 4.17 4.17 0 01-.135-1.115c0-.373.05-.72.15-1.04.1-.323.243-.603.43-.84a1.97 1.97 0 01.685-.555c.273-.137.58-.205.92-.205a1.808 1.808 0 011.39.595v-2.805h.89zm9.979.2V96h-.485a.43.43 0 01-.195-.04.5.5 0 01-.15-.135l-4.145-5.4.015.245c.003.08.005.155.005.225V96h-.85v-7.165h.5a.516.516 0 01.19.035c.023.01.046.027.07.05.023.02.048.047.075.08l4.145 5.395-.02-.25a4.86 4.86 0 01-.005-.235v-5.075h.85zm4.855 4.08c0-.207-.03-.395-.09-.565a1.18 1.18 0 00-.255-.445 1.076 1.076 0 00-.405-.29 1.345 1.345 0 00-.545-.105c-.426 0-.765.125-1.015.375-.246.247-.4.59-.46 1.03h2.77zm.72 2.375c-.11.133-.241.25-.395.35a2.497 2.497 0 01-.495.24c-.173.063-.353.11-.54.14-.186.033-.371.05-.555.05-.35 0-.673-.058-.97-.175a2.202 2.202 0 01-.765-.52 2.437 2.437 0 01-.5-.85 3.446 3.446 0 01-.18-1.16c0-.353.054-.683.16-.99.11-.307.267-.572.47-.795.204-.227.452-.403.745-.53.294-.13.624-.195.99-.195.304 0 .584.052.84.155.26.1.484.247.67.44.19.19.339.427.445.71.107.28.16.6.16.96 0 .14-.015.233-.045.28-.03.047-.086.07-.17.07h-3.385c.01.32.054.598.13.835.08.237.19.435.33.595.14.157.307.275.5.355.194.077.41.115.65.115.224 0 .415-.025.575-.075a2.816 2.816 0 00.71-.335.394.394 0 01.205-.08c.074 0 .13.028.17.085l.25.325zm5.265.71h-.855a.262.262 0 01-.175-.055.626.626 0 01-.1-.13l-1.275-1.985a1.894 1.894 0 01-.045.14.39.39 0 01-.06.12l-1.18 1.725a.982.982 0 01-.11.13.21.21 0 01-.155.055h-.795l1.775-2.6-1.705-2.465h.855c.073 0 .127.012.16.035a.34.34 0 01.09.1l1.245 1.9c.027-.097.068-.19.125-.28l1.09-1.6a.46.46 0 01.095-.11.2.2 0 01.13-.045h.82l-1.705 2.42L284.109 96zm2.376.08c-.4 0-.709-.112-.925-.335-.214-.223-.32-.545-.32-.965v-3.1h-.61a.204.204 0 01-.135-.045c-.037-.033-.055-.083-.055-.15v-.355l.83-.105.205-1.565a.199.199 0 01.205-.17h.45v1.745h1.465v.645h-1.465v3.04c0 .213.051.372.155.475a.54.54 0 00.4.155.733.733 0 00.42-.12c.05-.03.091-.057.125-.08a.169.169 0 01.095-.04c.046 0 .088.028.125.085l.26.425a1.705 1.705 0 01-.555.34c-.217.08-.44.12-.67.12zm1.879-.63c0-.087.015-.168.045-.245a.67.67 0 01.13-.2.629.629 0 011.075.445c0 .09-.017.173-.05.25a.686.686 0 01-.135.195.585.585 0 01-.2.13.612.612 0 01-.49 0 .567.567 0 01-.2-.13.691.691 0 01-.13-.195.68.68 0 01-.045-.25zm3.453-4.515v5.44c0 .203-.027.392-.08.565-.053.177-.138.33-.255.46-.117.13-.267.232-.45.305a1.65 1.65 0 01-.65.115 1.617 1.617 0 01-.565-.1l.035-.48a.14.14 0 01.035-.07.098.098 0 01.06-.025.897.897 0 01.105-.005c.04.003.092.005.155.005.26 0 .445-.062.555-.185.11-.12.165-.315.165-.585v-5.44h.89zm.185-1.59a.556.556 0 01-.055.245.673.673 0 01-.34.335.608.608 0 01-.245.05.608.608 0 01-.44-.185.715.715 0 01-.135-.2.613.613 0 010-.49.617.617 0 01.135-.205.625.625 0 01.195-.14.608.608 0 01.245-.05.608.608 0 01.445.19c.06.057.107.125.14.205a.556.556 0 01.055.245zm4.227 2.425a.197.197 0 01-.185.11.35.35 0 01-.17-.055 2.804 2.804 0 00-.235-.12 1.783 1.783 0 00-.325-.125 1.495 1.495 0 00-.45-.06c-.15 0-.285.02-.405.06a.97.97 0 00-.31.155.633.633 0 00-.26.52c0 .13.037.238.11.325.077.087.177.162.3.225.124.063.264.12.42.17.157.047.317.098.48.155.167.053.329.113.485.18.157.067.297.15.42.25.124.1.222.223.295.37.077.143.115.317.115.52 0 .233-.041.45-.125.65a1.43 1.43 0 01-.37.515 1.802 1.802 0 01-.6.34 2.47 2.47 0 01-.82.125 2.6 2.6 0 01-.96-.17 2.481 2.481 0 01-.73-.445l.21-.34a.316.316 0 01.095-.1.26.26 0 01.14-.035c.06 0 .124.023.19.07.067.047.147.098.24.155a1.598 1.598 0 00.86.225c.174 0 .325-.022.455-.065a.981.981 0 00.325-.185.785.785 0 00.255-.585.512.512 0 00-.115-.345.867.867 0 00-.295-.235 2.163 2.163 0 00-.425-.17l-.485-.155a6.559 6.559 0 01-.485-.18 1.81 1.81 0 01-.42-.26 1.213 1.213 0 01-.3-.38 1.282 1.282 0 01-.11-.555c0-.193.04-.378.12-.555.08-.18.197-.337.35-.47.154-.137.342-.245.565-.325.224-.08.479-.12.765-.12.334 0 .632.053.895.16.267.103.497.247.69.43l-.2.325zM448 137l-3.464-4.5h6.928L448 137z"/>
  <path fill="#F1FBFE" d="M44 161a3 3 0 013-3h410a3 3 0 013 3v13H44v-13z"/>
  <defs>
    <filter id="Ux-ZIvZg3a" width="504" height="348" x="0" y="0" color-interpolation-filters="sRGB" filterUnits="userSpaceOnUse">
      <feFlood flood-opacity="0" result="BackgroundImageFix"/>
      <feColorMatrix in="SourceAlpha" type="matrix" values="0 0 0 0 0 0 0 0 0 0 0 0 0 0 0 0 0 0 127 0"/>
      <feOffset dy="3"/>
      <feGaussianBlur stdDeviation="6"/>
      <feColorMatrix type="matrix" values="0 0 0 0 0.156863 0 0 0 0 0.2 0 0 0 0 0.254902 0 0 0 0.1 0"/>
      <feBlend in2="BackgroundImageFix" mode="normal" result="effect1_dropShadow"/>
      <feColorMatrix in="SourceAlpha" type="matrix" values="0 0 0 0 0 0 0 0 0 0 0 0 0 0 0 0 0 0 127 0"/>
      <feOffset/>
      <feGaussianBlur stdDeviation=".5"/>
      <feColorMatrix type="matrix" values="0 0 0 0 0.156863 0 0 0 0 0.2 0 0 0 0 0.254902 0 0 0 0.2 0"/>
      <feBlend in2="effect1_dropShadow" mode="normal" result="effect2_dropShadow"/>
      <feBlend in="SourceGraphic" in2="effect2_dropShadow" mode="normal" result="shape"/>
    </filter>
    <filter id="Ux-ZIvZg3c" width="424" height="147" x="40" y="155" color-interpolation-filters="sRGB" filterUnits="userSpaceOnUse">
      <feFlood flood-opacity="0" result="BackgroundImageFix"/>
      <feColorMatrix in="SourceAlpha" type="matrix" values="0 0 0 0 0 0 0 0 0 0 0 0 0 0 0 0 0 0 127 0"/>
      <feOffset/>
      <feGaussianBlur stdDeviation=".5"/>
      <feColorMatrix type="matrix" values="0 0 0 0 0.156863 0 0 0 0 0.2 0 0 0 0 0.254902 0 0 0 0.2 0"/>
      <feBlend in2="BackgroundImageFix" mode="normal" result="effect1_dropShadow"/>
      <feColorMatrix in="SourceAlpha" type="matrix" values="0 0 0 0 0 0 0 0 0 0 0 0 0 0 0 0 0 0 127 0"/>
      <feOffset dy="1"/>
      <feGaussianBlur stdDeviation="2"/>
      <feColorMatrix type="matrix" values="0 0 0 0 0.156863 0 0 0 0 0.2 0 0 0 0 0.254902 0 0 0 0.1 0"/>
      <feBlend in2="effect1_dropShadow" mode="normal" result="effect2_dropShadow"/>
      <feBlend in="SourceGraphic" in2="effect2_dropShadow" mode="normal" result="shape"/>
    </filter>
    <filter id="Ux-ZIvZg3e" width="112" height="29.818" x="352" y="120" color-interpolation-filters="sRGB" filterUnits="userSpaceOnUse">
      <feFlood flood-opacity="0" result="BackgroundImageFix"/>
      <feColorMatrix in="SourceAlpha" type="matrix" values="0 0 0 0 0 0 0 0 0 0 0 0 0 0 0 0 0 0 127 0"/>
      <feOffset/>
      <feGaussianBlur stdDeviation=".5"/>
      <feColorMatrix type="matrix" values="0 0 0 0 0.156863 0 0 0 0 0.2 0 0 0 0 0.254902 0 0 0 0.2 0"/>
      <feBlend in2="BackgroundImageFix" mode="normal" result="effect1_dropShadow"/>
      <feColorMatrix in="SourceAlpha" type="matrix" values="0 0 0 0 0 0 0 0 0 0 0 0 0 0 0 0 0 0 127 0"/>
      <feOffset dy="1"/>
      <feGaussianBlur stdDeviation="2"/>
      <feColorMatrix type="matrix" values="0 0 0 0 0.156863 0 0 0 0 0.2 0 0 0 0 0.254902 0 0 0 0.1 0"/>
      <feBlend in2="effect1_dropShadow" mode="normal" result="effect2_dropShadow"/>
      <feBlend in="SourceGraphic" in2="effect2_dropShadow" mode="normal" result="shape"/>
    </filter>
    <clipPath id="Ux-ZIvZg3b">
      <path fill="#fff" d="M12 21c0-6.627 5.373-12 12-12h456c6.627 0 12 5.373 12 12v300c0 6.627-5.373 12-12 12H24c-6.627 0-12-5.373-12-12V21z"/>
    </clipPath>
    <clipPath id="Ux-ZIvZg3d">
      <path fill="#fff" d="M44 161a3 3 0 013-3h410a3 3 0 013 3v133a3 3 0 01-3 3H47a3 3 0 01-3-3V161z"/>
    </clipPath>
  </defs>
</svg>
