<svg fill="none" xmlns="http://www.w3.org/2000/svg" viewBox="0 0 24 24">
  <path d="M8.41.873c-1.9 0-3.443 1.555-3.443 3.463 0 1.345.834 2.593 1.634 3.524.8.93 1.6 1.552 1.6 1.552a.342.342 0 00.42 0s.802-.627 1.601-1.56c.8-.933 1.634-2.18 1.634-3.516 0-1.908-1.546-3.463-3.446-3.463zm0 .682a2.766 2.766 0 012.763 2.781c0 1.04-.718 2.197-1.47 3.074-.648.755-1.126 1.124-1.293 1.26-.168-.135-.647-.501-1.294-1.253-.751-.873-1.466-2.029-1.466-3.08a2.765 2.765 0 012.76-2.78v-.002zm0 1.044a1.463 1.463 0 000 2.925 1.463 1.463 0 000-2.925zm0 .683a.77.77 0 01.772.78.771.771 0 11-1.545 0c0-.436.344-.78.773-.78zm-5.597 6.873a.34.34 0 00-.343.342v10.316a.34.34 0 00.342.34h1.079a1.886 1.886 0 001.85 1.538c.917 0 1.687-.665 1.849-1.538h8.584a1.886 1.886 0 001.85 1.538c.917 0 1.687-.665 1.848-1.538h1.32-.002a.34.34 0 00.34-.34V16.59a.347.347 0 00-.023-.127l-1.69-4.223v-.001a.34.34 0 00-.315-.213h-5.15v-1.53a.34.34 0 00-.342-.341H2.813zm.339.683h3.56v2.675l.001-.001a.342.342 0 00.484.31l1.213-.566 1.214.566h-.001a.34.34 0 00.486-.31v-2.675h3.561v9.634H7.59a1.888 1.888 0 00-1.85-1.539c-.916 0-1.686.667-1.848 1.539h-.739v-9.633zm4.24 0h2.034v2.139l-.87-.405v-.001a.344.344 0 00-.29 0l-.872.407-.001-2.14zm6.96 1.87h4.917l1.415 3.54h-6.332v-3.54zm0 4.222h6.496v3.541h-.978a1.888 1.888 0 00-1.849-1.538c-.917 0-1.686.666-1.848 1.538h-1.821v-3.54zm-8.644 2.686h.031c.666 0 1.199.533 1.199 1.198 0 .666-.533 1.198-1.199 1.198a1.193 1.193 0 01-1.198-1.198c0-.655.516-1.181 1.167-1.198zm12.282 0h.032c.665 0 1.198.533 1.198 1.198 0 .666-.533 1.198-1.198 1.198a1.193 1.193 0 01-1.199-1.198c0-.655.516-1.181 1.167-1.198z" fill="url(#uzXV-7YF_f-Ha)" stroke="url(#uzXV-7YF_f-Hb)" stroke-width=".5"/>
  <defs>
    <linearGradient id="uzXV-7YF_f-Ha" x1="2.47" y1="11.782" x2="21.529" y2="11.782" gradientUnits="userSpaceOnUse">
      <stop stop-color="#FF8965"/>
      <stop offset="1" stop-color="#FF6757"/>
    </linearGradient>
    <linearGradient id="uzXV-7YF_f-Hb" x1="2.47" y1="11.782" x2="21.529" y2="11.782" gradientUnits="userSpaceOnUse">
      <stop stop-color="#FF8965"/>
      <stop offset="1" stop-color="#FF6757"/>
    </linearGradient>
  </defs>
</svg>
