<svg fill="none" xmlns="http://www.w3.org/2000/svg" viewBox="0 0 64 64">
  <path fill-rule="evenodd" clip-rule="evenodd" d="M27.984 42.024c-.045.019-2.132 1.505-2.848 2.762-.493.865-.465 1.677.226 2.25.27.222.41.461.436.71.041.426-.207.84-.51 1.164-.365.395-.521.802-.54 1.197-.026.547.232 1.113.782 1.629.962.894 2.966 1.702 5.044 2.164 3.113.69 5.302-.16 7.284-1.28 1.203-.677 2.32-1.463 3.555-2.001 1.387-.602 2.778-.334 4.115.19 1.511.593 2.962 1.516 4.292 2.14.675.314 1.22.302 1.652.13.608-.239 1.05-.856 1.28-1.684.381-1.368.219-3.338.184-3.723.016-.776-.382-1.572-1.155-2.339-1.881-1.861-6.187-3.675-9.878-4.894-4.56-1.505-9.82-.506-12.582.795-.541.252-.99.522-1.337.79zm-16.226 5.215l-.748 4.49a.762.762 0 00.913.872l3.373-.728 3.37.728h.322l3.532-.763a.763.763 0 10-.321-1.493l-3.37.729-3.373-.729h-.322l-2.431.525.471-2.832h10.094a.764.764 0 000-1.527h-10.03c-.172-2.387-.71-10.24-.71-14.511 0-4.532.55-13.461.716-16.039h25.292c.16 2.778.723 12.821.723 16.039 0 1.874-.751 5.575-.751 5.575a.765.765 0 001.499.302s.779-3.901.779-5.877c0-3.587-.694-15.628-.76-16.761l.747-4.5a.753.753 0 00-.226-.678.757.757 0 00-.687-.194l-3.37.73-3.373-.73h-.322l-3.37.73-3.373-.73h-.321l-3.37.73-3.373-.73h-.322l-3.37.73-3.373-.73a.762.762 0 00-.913.872l.748 4.497C11.688 16.31 11 26.91 11 32c0 4.83.68 14.211.757 15.24zM27.3 44.534l-.56.611-.37.586-.034.127c.646.535.926 1.146.983 1.744.08.847-.315 1.706-.91 2.345l-.134.23c-.01.162.134.29.296.439.821.763 2.559 1.397 4.334 1.791 2.651.592 4.513-.162 6.202-1.117 1.251-.706 2.416-1.514 3.695-2.071 1.782-.774 3.567-.503 5.286.168 1.54.605 3.023 1.54 4.378 2.177l.446.092.197-.223.172-.445c.127-.465.181-1.012.197-1.521-.41.025-.897-.086-1.45-.322-.978-.413-2.254-1.231-3.657-1.785-1.222-.48-2.55-.773-3.828-.216-1.225.531-2.34 1.359-3.539 2.087-1.998 1.213-4.204 2.167-7.322 1.474-1.063-.236-1.78-.474-2.244-.735-.442-.249-.706-.529-.868-.83-.172-.325-.23-.685-.185-1.105.044-.42.213-.93.433-1.56l.057-.553-.267-.27-.43-.284c-.35-.232-.668-.49-.878-.834zm24.032 3.405l-.092-.003-.223-.05c-.357-.109-.78-.319-1.25-.56-1.01-.526-2.216-1.21-3.492-1.624-1.41-.455-2.899-.585-4.34.038-1.286.56-2.463 1.42-3.723 2.187-1.693 1.024-3.555 1.874-6.2 1.288-.734-.165-1.272-.318-1.654-.493l-.44-.299.007-.353.334-1.095c.207-.601.2-1.06.102-1.422-.111-.404-.344-.716-.646-.974l-.805-.56c-.156-.111-.328-.216-.34-.442l.235-.258c.274-.236.675-.471 1.165-.704 2.514-1.183 7.303-2.093 11.453-.725 2.99.986 6.418 2.355 8.455 3.838.598.436 1.072.872 1.34 1.317.171.29.25.576.13.863l-.016.031zm-14.696-1.96l.331-.06.79-.128c.334-.111.572-.308.716-.591.114-.226.181-.545.06-.997-.13-.486-.477-.913-.996-1.218-.601-.353-1.448-.55-2.288-.529-1.543.045-2.972.84-3.122 2.355-.073.732.242 1.356.767 1.82.665.596 1.69.895 2.406.834.468-.041.834-.229 1.053-.487.197-.229.312-.522.28-.89l.003-.109zm.27-1.591l-.174.02-.738.177a1.4 1.4 0 00-.69.611 1.595 1.595 0 00-.198.729l-.525-.067a1.794 1.794 0 01-.739-.43c-.124-.127-.216-.28-.197-.467.032-.306.207-.522.446-.668.334-.207.767-.296 1.203-.31.455-.012.92.065 1.285.227l.328.178zM25.13 25.215v4.175l-2.953-2.953.39-1.17a.765.765 0 10-1.45-.485L20.7 26.04l-1.26.42a.77.77 0 00-.484.968.77.77 0 00.968.483l1.17-.39 2.954 2.952h-4.175l-.554-1.107a.765.765 0 00-1.025-.34.765.765 0 00-.34 1.024l.592 1.187-.592 1.184a.762.762 0 101.365.684L19.873 32h4.175l-2.953 2.953-1.171-.392a.764.764 0 00-.968.484c-.13.398.086.83.484.964l1.26.42.417 1.257a.764.764 0 101.45-.483l-.39-1.171 2.953-2.953v4.175l-1.108.553a.763.763 0 10.684 1.365l1.187-.592 1.184.592a.762.762 0 001.025-.34.76.76 0 00-.34-1.025l-1.105-.553v-4.175l2.953 2.953-.391 1.17a.764.764 0 001.448.484l.42-1.257 1.257-.42a.762.762 0 10-.484-1.448l-1.171.392L27.736 32h4.175l.554 1.104a.763.763 0 101.365-.684l-.592-1.184.592-1.187a.76.76 0 00-.34-1.025.766.766 0 00-1.025.34l-.554 1.108h-4.175l2.953-2.953 1.17.392a.764.764 0 10.484-1.451l-1.256-.42-.42-1.258a.762.762 0 10-1.448.484l.391 1.171-2.953 2.953v-4.175l1.104-.553a.76.76 0 00.34-1.025.765.765 0 00-1.024-.34l-1.184.591-1.187-.592a.766.766 0 00-1.024.34.765.765 0 00.34 1.026l1.108.553zm13.48-10.781l.474-2.835-2.435.525h-.321l-3.37-.73-3.373.73h-.322l-3.37-.73-3.373.73h-.32l-3.37-.73-3.373.73h-.322l-2.431-.526.471 2.836H38.61z" fill="url(#JhMY4Bbya6eia)" stroke="url(#JhMY4Bbya6eib)" stroke-width=".7"/>
  <defs>
    <linearGradient id="JhMY4Bbya6eia" x1="11" y1="31.999" x2="53" y2="31.999" gradientUnits="userSpaceOnUse">
      <stop stop-color="#FF8965"/>
      <stop offset="1" stop-color="#FF6757"/>
    </linearGradient>
    <linearGradient id="JhMY4Bbya6eib" x1="11" y1="31.999" x2="53" y2="31.999" gradientUnits="userSpaceOnUse">
      <stop stop-color="#FF8965"/>
      <stop offset="1" stop-color="#FF6757"/>
    </linearGradient>
  </defs>
</svg>
