<svg fill="none" xmlns="http://www.w3.org/2000/svg" viewBox="0 0 80 80">
  <mask id="Mzc4MQfWREmNc" maskUnits="userSpaceOnUse" x="3.364" y="11.165" width="73" height="61" fill="#000">
    <path fill="#fff" d="M3.364 11.165h73v61h-73z"/>
    <path d="M39.989 28.232c-7.29 0-13.222 5.932-13.222 13.222 0 7.29 5.932 13.222 13.222 13.222 7.29 0 13.221-5.932 13.221-13.222 0-7.29-5.931-13.222-13.221-13.222zm0 24.214c-6.06 0-10.992-4.932-10.992-10.992 0-6.06 4.932-10.991 10.992-10.991 6.06 0 10.99 4.932 10.99 10.991 0 6.06-4.93 10.992-10.99 10.992zm35.21-12.526a3.26 3.26 0 00-4.438-1.185 3.24 3.24 0 00-1.426 1.702h-7.483a22.358 22.358 0 00-.383-3.196 1.112 1.112 0 00-.847-.872l-4.028-.912a15.909 15.909 0 00-.282-.725H67.37c.398 0 .767-.213.966-.557l.992-1.718a3.253 3.253 0 003.81-3.202 3.253 3.253 0 00-3.25-3.25 3.253 3.253 0 00-3.25 3.25c0 .793.286 1.52.758 2.082l-.67 1.162h-9.833l1.286-2.034c.236-.375.23-.852-.017-1.219a21.877 21.877 0 00-5.96-5.96 1.116 1.116 0 00-1.219-.017l-3.494 2.208a17.67 17.67 0 00-1.497-.623l-.912-4.03a1.108 1.108 0 00-.872-.848c-2.767-.54-5.65-.54-8.426 0a1.112 1.112 0 00-.873.847l-.912 4.031c-.505.182-1.005.39-1.497.623l-3.497-2.208a1.116 1.116 0 00-1.219.017 21.826 21.826 0 00-5.957 5.96 1.111 1.111 0 00-.017 1.216l1.284 2.034-9.818.003-.67-1.162a3.232 3.232 0 00.758-2.085 3.253 3.253 0 00-3.25-3.25 3.253 3.253 0 00-3.25 3.25 3.253 3.253 0 003.81 3.202l.991 1.719c.199.343.568.556.966.556h11.04c-.1.239-.193.48-.281.725l-4.034.912c-.432.096-.765.44-.847.872a22.32 22.32 0 00-.383 3.193l-7.464.003a3.24 3.24 0 00-1.426-1.702 3.261 3.261 0 00-4.437 1.193 3.252 3.252 0 003.659 4.765 3.226 3.226 0 001.971-1.515 3.21 3.21 0 00.239-.508l7.471-.006c.057 1.009.18 2.014.372 3.006.086.435.418.776.85.875l4.031.909c.088.244.182.486.281.724h-11.04a1.12 1.12 0 00-.966.557l-.991 1.722a3.253 3.253 0 00-3.81 3.202 3.253 3.253 0 003.25 3.25 3.248 3.248 0 002.492-5.335l.67-1.165h9.816l-1.287 2.04c-.236.372-.228.852.017 1.215a21.896 21.896 0 005.954 5.96 1.11 1.11 0 001.219.017l3.497-2.207c.492.23.992.44 1.497.622l.912 4.032c.097.431.44.764.872.846a22.071 22.071 0 008.426 0c.435-.085.776-.417.873-.846l.912-4.032a16.828 16.828 0 001.497-.622l3.491 2.208c.375.235.852.23 1.219-.018a21.956 21.956 0 005.96-5.96 1.11 1.11 0 00.017-1.218l-1.287-2.04h9.835l.67 1.165a3.232 3.232 0 00-.758 2.085 3.253 3.253 0 003.25 3.25 3.253 3.253 0 003.25-3.25 3.253 3.253 0 00-3.81-3.202l-.99-1.722a1.112 1.112 0 00-.967-.556H56.308c.1-.24.194-.48.282-.725l4.028-.909c.432-.096.764-.44.85-.872.193-.989.318-1.997.372-3.006h7.494a3.225 3.225 0 002.21 2.023 3.241 3.241 0 002.469-.327 3.223 3.223 0 001.514-1.971 3.258 3.258 0 00-.328-2.466zm-5.316-11.688a1.02 1.02 0 010 2.04 1.02 1.02 0 010-2.04zm-60.787 1.02a1.02 1.02 0 012.04 0 1.02 1.02 0 01-2.04 0zm1.02 25.424a1.02 1.02 0 010-2.04 1.02 1.02 0 010 2.04zm60.787-1.02a1.02 1.02 0 01-2.04 0 1.02 1.02 0 012.04 0zM8.495 42.059a1.012 1.012 0 01-.62.475 1.008 1.008 0 01-.773-.102s-.002 0-.002-.003a1.02 1.02 0 01-.375-1.39 1.031 1.031 0 011.392-.377c.491.284.659.909.378 1.397zm46.997 3.355a1.113 1.113 0 00-.816.748c-.255.798-.585 1.59-.974 2.349-.182.352-.162.773.048 1.105l2.145 3.392a19.701 19.701 0 01-4.352 4.352l-3.395-2.144a1.118 1.118 0 00-1.108-.049c-.756.392-1.543.72-2.338.97-.378.118-.662.43-.75.814l-.886 3.918a19.761 19.761 0 01-6.151 0l-.886-3.918a1.107 1.107 0 00-.75-.815 14.866 14.866 0 01-2.338-.969 1.112 1.112 0 00-1.108.049l-3.398 2.145a19.633 19.633 0 01-4.35-4.353l2.142-3.395c.21-.335.23-.753.049-1.105a15.41 15.41 0 01-.972-2.35 1.118 1.118 0 00-.815-.746l-3.918-.884a19.822 19.822 0 01-.236-2.81 1.083 1.083 0 00-.003-.364 20.17 20.17 0 01.24-2.98l3.917-.886c.383-.085.693-.369.815-.744.262-.813.591-1.602.972-2.347a1.12 1.12 0 00-.049-1.105l-2.142-3.395a19.5 19.5 0 014.35-4.35l3.398 2.146c.335.21.755.23 1.108.048a14.864 14.864 0 012.338-.969c.377-.119.661-.431.75-.815l.886-3.918a19.761 19.761 0 016.15 0l.887 3.918c.088.386.372.699.75.815.784.25 1.57.574 2.34.972a1.12 1.12 0 001.106-.048l3.395-2.145a19.643 19.643 0 014.352 4.352l-2.145 3.395c-.21.335-.23.753-.048 1.105.39.756.719 1.546.977 2.347.12.375.432.656.816.744l3.914.886c.16 1.017.242 2.049.242 3.077 0 1.029-.08 2.06-.242 3.077l-3.917.88zm17.406-2.985s-.003 0-.003.002a1.014 1.014 0 01-1.392-.375 1.02 1.02 0 111.395.373zM15.45 25.466c5.438-8.33 14.611-13.301 24.54-13.301 9.36 0 18.051 4.42 23.574 11.906v-2.989a1.114 1.114 0 112.227 0v5.847c0 .616-.5 1.113-1.114 1.113h-5.843a1.114 1.114 0 110-2.227h3.238c-5.085-7.17-13.26-11.423-22.085-11.423-9.176 0-17.65 4.594-22.673 12.29a1.112 1.112 0 11-1.864-1.216zm49.085 31.98c-5.44 8.33-14.616 13.301-24.545 13.301a29.2 29.2 0 01-23.574-11.912v2.989a1.114 1.114 0 01-2.227 0V55.98c0-.616.5-1.113 1.114-1.113h5.846a1.114 1.114 0 110 2.227H17.91a26.987 26.987 0 0022.082 11.423c9.173 0 17.65-4.594 22.68-12.29a1.115 1.115 0 011.542-.323c.511.335.656 1.025.32 1.542zM39.99 32.582c-4.892 0-8.872 3.98-8.872 8.872 0 4.892 3.98 8.872 8.872 8.872 4.892 0 8.872-3.98 8.872-8.872 0-4.892-3.98-8.872-8.872-8.872zm0 15.514a6.65 6.65 0 01-6.642-6.642 6.65 6.65 0 016.642-6.642 6.65 6.65 0 016.642 6.642 6.65 6.65 0 01-6.642 6.642zm4.298-9.082l-3.747 6.054a1.106 1.106 0 01-.949.529c-.221 0-.44-.066-.625-.194l-2.951-2a1.118 1.118 0 01-.299-1.548 1.118 1.118 0 011.549-.298l1.988 1.35 3.137-5.066a1.115 1.115 0 011.897 1.173z"/>
  </mask>
  <path d="M39.989 28.232c-7.29 0-13.222 5.932-13.222 13.222 0 7.29 5.932 13.222 13.222 13.222 7.29 0 13.221-5.932 13.221-13.222 0-7.29-5.931-13.222-13.221-13.222zm0 24.214c-6.06 0-10.992-4.932-10.992-10.992 0-6.06 4.932-10.991 10.992-10.991 6.06 0 10.99 4.932 10.99 10.991 0 6.06-4.93 10.992-10.99 10.992zm35.21-12.526a3.26 3.26 0 00-4.438-1.185 3.24 3.24 0 00-1.426 1.702h-7.483a22.358 22.358 0 00-.383-3.196 1.112 1.112 0 00-.847-.872l-4.028-.912a15.909 15.909 0 00-.282-.725H67.37c.398 0 .767-.213.966-.557l.992-1.718a3.253 3.253 0 003.81-3.202 3.253 3.253 0 00-3.25-3.25 3.253 3.253 0 00-3.25 3.25c0 .793.286 1.52.758 2.082l-.67 1.162h-9.833l1.286-2.034c.236-.375.23-.852-.017-1.219a21.877 21.877 0 00-5.96-5.96 1.116 1.116 0 00-1.219-.017l-3.494 2.208a17.67 17.67 0 00-1.497-.623l-.912-4.03a1.108 1.108 0 00-.872-.848c-2.767-.54-5.65-.54-8.426 0a1.112 1.112 0 00-.873.847l-.912 4.031c-.505.182-1.005.39-1.497.623l-3.497-2.208a1.116 1.116 0 00-1.219.017 21.826 21.826 0 00-5.957 5.96 1.111 1.111 0 00-.017 1.216l1.284 2.034-9.818.003-.67-1.162a3.232 3.232 0 00.758-2.085 3.253 3.253 0 00-3.25-3.25 3.253 3.253 0 00-3.25 3.25 3.253 3.253 0 003.81 3.202l.991 1.719c.199.343.568.556.966.556h11.04c-.1.239-.193.48-.281.725l-4.034.912c-.432.096-.765.44-.847.872a22.32 22.32 0 00-.383 3.193l-7.464.003a3.24 3.24 0 00-1.426-1.702 3.261 3.261 0 00-4.437 1.193 3.252 3.252 0 003.659 4.765 3.226 3.226 0 001.971-1.515 3.21 3.21 0 00.239-.508l7.471-.006c.057 1.009.18 2.014.372 3.006.086.435.418.776.85.875l4.031.909c.088.244.182.486.281.724h-11.04a1.12 1.12 0 00-.966.557l-.991 1.722a3.253 3.253 0 00-3.81 3.202 3.253 3.253 0 003.25 3.25 3.248 3.248 0 002.492-5.335l.67-1.165h9.816l-1.287 2.04c-.236.372-.228.852.017 1.215a21.896 21.896 0 005.954 5.96 1.11 1.11 0 001.219.017l3.497-2.207c.492.23.992.44 1.497.622l.912 4.032c.097.431.44.764.872.846a22.071 22.071 0 008.426 0c.435-.085.776-.417.873-.846l.912-4.032a16.828 16.828 0 001.497-.622l3.491 2.208c.375.235.852.23 1.219-.018a21.956 21.956 0 005.96-5.96 1.11 1.11 0 00.017-1.218l-1.287-2.04h9.835l.67 1.165a3.232 3.232 0 00-.758 2.085 3.253 3.253 0 003.25 3.25 3.253 3.253 0 003.25-3.25 3.253 3.253 0 00-3.81-3.202l-.99-1.722a1.112 1.112 0 00-.967-.556H56.308c.1-.24.194-.48.282-.725l4.028-.909c.432-.096.764-.44.85-.872.193-.989.318-1.997.372-3.006h7.494a3.225 3.225 0 002.21 2.023 3.241 3.241 0 002.469-.327 3.223 3.223 0 001.514-1.971 3.258 3.258 0 00-.328-2.466zm-5.316-11.688a1.02 1.02 0 010 2.04 1.02 1.02 0 010-2.04zm-60.787 1.02a1.02 1.02 0 012.04 0 1.02 1.02 0 01-2.04 0zm1.02 25.424a1.02 1.02 0 010-2.04 1.02 1.02 0 010 2.04zm60.787-1.02a1.02 1.02 0 01-2.04 0 1.02 1.02 0 012.04 0zM8.495 42.059a1.012 1.012 0 01-.62.475 1.008 1.008 0 01-.773-.102s-.002 0-.002-.003a1.02 1.02 0 01-.375-1.39 1.031 1.031 0 011.392-.377c.491.284.659.909.378 1.397zm46.997 3.355a1.113 1.113 0 00-.816.748c-.255.798-.585 1.59-.974 2.349-.182.352-.162.773.048 1.105l2.145 3.392a19.701 19.701 0 01-4.352 4.352l-3.395-2.144a1.118 1.118 0 00-1.108-.049c-.756.392-1.543.72-2.338.97-.378.118-.662.43-.75.814l-.886 3.918a19.761 19.761 0 01-6.151 0l-.886-3.918a1.107 1.107 0 00-.75-.815 14.866 14.866 0 01-2.338-.969 1.112 1.112 0 00-1.108.049l-3.398 2.145a19.633 19.633 0 01-4.35-4.353l2.142-3.395c.21-.335.23-.753.049-1.105a15.41 15.41 0 01-.972-2.35 1.118 1.118 0 00-.815-.746l-3.918-.884a19.822 19.822 0 01-.236-2.81 1.083 1.083 0 00-.003-.364 20.17 20.17 0 01.24-2.98l3.917-.886c.383-.085.693-.369.815-.744.262-.813.591-1.602.972-2.347a1.12 1.12 0 00-.049-1.105l-2.142-3.395a19.5 19.5 0 014.35-4.35l3.398 2.146c.335.21.755.23 1.108.048a14.864 14.864 0 012.338-.969c.377-.119.661-.431.75-.815l.886-3.918a19.761 19.761 0 016.15 0l.887 3.918c.088.386.372.699.75.815.784.25 1.57.574 2.34.972a1.12 1.12 0 001.106-.048l3.395-2.145a19.643 19.643 0 014.352 4.352l-2.145 3.395c-.21.335-.23.753-.048 1.105.39.756.719 1.546.977 2.347.12.375.432.656.816.744l3.914.886c.16 1.017.242 2.049.242 3.077 0 1.029-.08 2.06-.242 3.077l-3.917.88zm17.406-2.985s-.003 0-.003.002a1.014 1.014 0 01-1.392-.375 1.02 1.02 0 111.395.373zM15.45 25.466c5.438-8.33 14.611-13.301 24.54-13.301 9.36 0 18.051 4.42 23.574 11.906v-2.989a1.114 1.114 0 112.227 0v5.847c0 .616-.5 1.113-1.114 1.113h-5.843a1.114 1.114 0 110-2.227h3.238c-5.085-7.17-13.26-11.423-22.085-11.423-9.176 0-17.65 4.594-22.673 12.29a1.112 1.112 0 11-1.864-1.216zm49.085 31.98c-5.44 8.33-14.616 13.301-24.545 13.301a29.2 29.2 0 01-23.574-11.912v2.989a1.114 1.114 0 01-2.227 0V55.98c0-.616.5-1.113 1.114-1.113h5.846a1.114 1.114 0 110 2.227H17.91a26.987 26.987 0 0022.082 11.423c9.173 0 17.65-4.594 22.68-12.29a1.115 1.115 0 011.542-.323c.511.335.656 1.025.32 1.542zM39.99 32.582c-4.892 0-8.872 3.98-8.872 8.872 0 4.892 3.98 8.872 8.872 8.872 4.892 0 8.872-3.98 8.872-8.872 0-4.892-3.98-8.872-8.872-8.872zm0 15.514a6.65 6.65 0 01-6.642-6.642 6.65 6.65 0 016.642-6.642 6.65 6.65 0 016.642 6.642 6.65 6.65 0 01-6.642 6.642zm4.298-9.082l-3.747 6.054a1.106 1.106 0 01-.949.529c-.221 0-.44-.066-.625-.194l-2.951-2a1.118 1.118 0 01-.299-1.548 1.118 1.118 0 011.549-.298l1.988 1.35 3.137-5.066a1.115 1.115 0 011.897 1.173z" fill="url(#Mzc4MQfWREmNa)"/>
  <path d="M39.989 28.232c-7.29 0-13.222 5.932-13.222 13.222 0 7.29 5.932 13.222 13.222 13.222 7.29 0 13.221-5.932 13.221-13.222 0-7.29-5.931-13.222-13.221-13.222zm0 24.214c-6.06 0-10.992-4.932-10.992-10.992 0-6.06 4.932-10.991 10.992-10.991 6.06 0 10.99 4.932 10.99 10.991 0 6.06-4.93 10.992-10.99 10.992zm35.21-12.526a3.26 3.26 0 00-4.438-1.185 3.24 3.24 0 00-1.426 1.702h-7.483a22.358 22.358 0 00-.383-3.196 1.112 1.112 0 00-.847-.872l-4.028-.912a15.909 15.909 0 00-.282-.725H67.37c.398 0 .767-.213.966-.557l.992-1.718a3.253 3.253 0 003.81-3.202 3.253 3.253 0 00-3.25-3.25 3.253 3.253 0 00-3.25 3.25c0 .793.286 1.52.758 2.082l-.67 1.162h-9.833l1.286-2.034c.236-.375.23-.852-.017-1.219a21.877 21.877 0 00-5.96-5.96 1.116 1.116 0 00-1.219-.017l-3.494 2.208a17.67 17.67 0 00-1.497-.623l-.912-4.03a1.108 1.108 0 00-.872-.848c-2.767-.54-5.65-.54-8.426 0a1.112 1.112 0 00-.873.847l-.912 4.031c-.505.182-1.005.39-1.497.623l-3.497-2.208a1.116 1.116 0 00-1.219.017 21.826 21.826 0 00-5.957 5.96 1.111 1.111 0 00-.017 1.216l1.284 2.034-9.818.003-.67-1.162a3.232 3.232 0 00.758-2.085 3.253 3.253 0 00-3.25-3.25 3.253 3.253 0 00-3.25 3.25 3.253 3.253 0 003.81 3.202l.991 1.719c.199.343.568.556.966.556h11.04c-.1.239-.193.48-.281.725l-4.034.912c-.432.096-.765.44-.847.872a22.32 22.32 0 00-.383 3.193l-7.464.003a3.24 3.24 0 00-1.426-1.702 3.261 3.261 0 00-4.437 1.193 3.252 3.252 0 003.659 4.765 3.226 3.226 0 001.971-1.515 3.21 3.21 0 00.239-.508l7.471-.006c.057 1.009.18 2.014.372 3.006.086.435.418.776.85.875l4.031.909c.088.244.182.486.281.724h-11.04a1.12 1.12 0 00-.966.557l-.991 1.722a3.253 3.253 0 00-3.81 3.202 3.253 3.253 0 003.25 3.25 3.248 3.248 0 002.492-5.335l.67-1.165h9.816l-1.287 2.04c-.236.372-.228.852.017 1.215a21.896 21.896 0 005.954 5.96 1.11 1.11 0 001.219.017l3.497-2.207c.492.23.992.44 1.497.622l.912 4.032c.097.431.44.764.872.846a22.071 22.071 0 008.426 0c.435-.085.776-.417.873-.846l.912-4.032a16.828 16.828 0 001.497-.622l3.491 2.208c.375.235.852.23 1.219-.018a21.956 21.956 0 005.96-5.96 1.11 1.11 0 00.017-1.218l-1.287-2.04h9.835l.67 1.165a3.232 3.232 0 00-.758 2.085 3.253 3.253 0 003.25 3.25 3.253 3.253 0 003.25-3.25 3.253 3.253 0 00-3.81-3.202l-.99-1.722a1.112 1.112 0 00-.967-.556H56.308c.1-.24.194-.48.282-.725l4.028-.909c.432-.096.764-.44.85-.872.193-.989.318-1.997.372-3.006h7.494a3.225 3.225 0 002.21 2.023 3.241 3.241 0 002.469-.327 3.223 3.223 0 001.514-1.971 3.258 3.258 0 00-.328-2.466zm-5.316-11.688a1.02 1.02 0 010 2.04 1.02 1.02 0 010-2.04zm-60.787 1.02a1.02 1.02 0 012.04 0 1.02 1.02 0 01-2.04 0zm1.02 25.424a1.02 1.02 0 010-2.04 1.02 1.02 0 010 2.04zm60.787-1.02a1.02 1.02 0 01-2.04 0 1.02 1.02 0 012.04 0zM8.495 42.059a1.012 1.012 0 01-.62.475 1.008 1.008 0 01-.773-.102s-.002 0-.002-.003a1.02 1.02 0 01-.375-1.39 1.031 1.031 0 011.392-.377c.491.284.659.909.378 1.397zm46.997 3.355a1.113 1.113 0 00-.816.748c-.255.798-.585 1.59-.974 2.349-.182.352-.162.773.048 1.105l2.145 3.392a19.701 19.701 0 01-4.352 4.352l-3.395-2.144a1.118 1.118 0 00-1.108-.049c-.756.392-1.543.72-2.338.97-.378.118-.662.43-.75.814l-.886 3.918a19.761 19.761 0 01-6.151 0l-.886-3.918a1.107 1.107 0 00-.75-.815 14.866 14.866 0 01-2.338-.969 1.112 1.112 0 00-1.108.049l-3.398 2.145a19.633 19.633 0 01-4.35-4.353l2.142-3.395c.21-.335.23-.753.049-1.105a15.41 15.41 0 01-.972-2.35 1.118 1.118 0 00-.815-.746l-3.918-.884a19.822 19.822 0 01-.236-2.81 1.083 1.083 0 00-.003-.364 20.17 20.17 0 01.24-2.98l3.917-.886c.383-.085.693-.369.815-.744.262-.813.591-1.602.972-2.347a1.12 1.12 0 00-.049-1.105l-2.142-3.395a19.5 19.5 0 014.35-4.35l3.398 2.146c.335.21.755.23 1.108.048a14.864 14.864 0 012.338-.969c.377-.119.661-.431.75-.815l.886-3.918a19.761 19.761 0 016.15 0l.887 3.918c.088.386.372.699.75.815.784.25 1.57.574 2.34.972a1.12 1.12 0 001.106-.048l3.395-2.145a19.643 19.643 0 014.352 4.352l-2.145 3.395c-.21.335-.23.753-.048 1.105.39.756.719 1.546.977 2.347.12.375.432.656.816.744l3.914.886c.16 1.017.242 2.049.242 3.077 0 1.029-.08 2.06-.242 3.077l-3.917.88zm17.406-2.985s-.003 0-.003.002a1.014 1.014 0 01-1.392-.375 1.02 1.02 0 111.395.373zM15.45 25.466c5.438-8.33 14.611-13.301 24.54-13.301 9.36 0 18.051 4.42 23.574 11.906v-2.989a1.114 1.114 0 112.227 0v5.847c0 .616-.5 1.113-1.114 1.113h-5.843a1.114 1.114 0 110-2.227h3.238c-5.085-7.17-13.26-11.423-22.085-11.423-9.176 0-17.65 4.594-22.673 12.29a1.112 1.112 0 11-1.864-1.216zm49.085 31.98c-5.44 8.33-14.616 13.301-24.545 13.301a29.2 29.2 0 01-23.574-11.912v2.989a1.114 1.114 0 01-2.227 0V55.98c0-.616.5-1.113 1.114-1.113h5.846a1.114 1.114 0 110 2.227H17.91a26.987 26.987 0 0022.082 11.423c9.173 0 17.65-4.594 22.68-12.29a1.115 1.115 0 011.542-.323c.511.335.656 1.025.32 1.542zM39.99 32.582c-4.892 0-8.872 3.98-8.872 8.872 0 4.892 3.98 8.872 8.872 8.872 4.892 0 8.872-3.98 8.872-8.872 0-4.892-3.98-8.872-8.872-8.872zm0 15.514a6.65 6.65 0 01-6.642-6.642 6.65 6.65 0 016.642-6.642 6.65 6.65 0 016.642 6.642 6.65 6.65 0 01-6.642 6.642zm4.298-9.082l-3.747 6.054a1.106 1.106 0 01-.949.529c-.221 0-.44-.066-.625-.194l-2.951-2a1.118 1.118 0 01-.299-1.548 1.118 1.118 0 011.549-.298l1.988 1.35 3.137-5.066a1.115 1.115 0 011.897 1.173z" stroke="url(#Mzc4MQfWREmNb)" mask="url(#Mzc4MQfWREmNc)"/>
  <defs>
    <linearGradient id="Mzc4MQfWREmNa" x1="4.364" y1="41.456" x2="75.636" y2="41.456" gradientUnits="userSpaceOnUse">
      <stop stop-color="#FF8965"/>
      <stop offset="1" stop-color="#FF6757"/>
    </linearGradient>
    <linearGradient id="Mzc4MQfWREmNb" x1="4.364" y1="41.456" x2="75.636" y2="41.456" gradientUnits="userSpaceOnUse">
      <stop stop-color="#FF8965"/>
      <stop offset="1" stop-color="#FF6757"/>
    </linearGradient>
  </defs>
</svg>
