<svg fill="none" xmlns="http://www.w3.org/2000/svg" viewBox="0 0 24 24">
  <path d="M21.2 11.014a1.358 1.358 0 00-1.098-.405c-.706.06-1.26.69-1.26 1.433v1.498a1.382 1.382 0 00-1.495.348L15.38 15.99a2.401 2.401 0 00-.65 1.645v5.14c0 .195.158.353.353.353h4.111a.352.352 0 00.352-.352v-2.532c0-.258.105-.51.286-.692l.709-.708a3.597 3.597 0 001.06-2.56v-4.3c0-.373-.146-.72-.403-.97h.001zm-.302 5.268c0 .78-.303 1.512-.854 2.063l-.708.708a1.67 1.67 0 00-.492 1.19v2.18h-3.408v-4.789c0-.434.163-.847.46-1.164l1.966-2.102a.677.677 0 01.987.922l-2.107 2.252a.352.352 0 10.515.482l2.107-2.252a1.375 1.375 0 00.184-1.639v-2.092c0-.38.27-.702.614-.732.2-.015.396.054.54.203a.65.65 0 01.197.472v4.298h0zM6.653 13.887a1.382 1.382 0 00-1.495-.347v-1.498c0-.744-.553-1.373-1.259-1.433a1.35 1.35 0 00-1.09.398 1.35 1.35 0 00-.41.976v4.3c0 .966.377 1.876 1.06 2.56l.709.708a.986.986 0 01.287.692v2.532c0 .194.157.352.352.352h4.111a.352.352 0 00.352-.352v-5.141c0-.613-.23-1.198-.65-1.645l-1.966-2.103-.001.002zm1.911 8.536H5.157v-2.18c0-.45-.175-.872-.493-1.19l-.708-.708a2.895 2.895 0 01-.854-2.063v-4.299a.66.66 0 01.204-.479c.137-.14.33-.21.533-.194.346.03.615.351.615.731v2.093a1.37 1.37 0 00.184 1.639l2.107 2.251a.353.353 0 00.515-.482l-2.107-2.25a.67.67 0 01-.074-.83.731.731 0 01.105-.124.677.677 0 01.956.03l1.967 2.103c.296.317.46.73.46 1.164v4.789l-.003-.001zm5.093-20.376a.35.35 0 01.157-.596 2.287 2.287 0 012.202 3.942 2.678 2.678 0 011.647 2.486v1.286a.82.82 0 01-.82.82h-.727a.352.352 0 010-.703h.727a.119.119 0 00.117-.118V7.878a2 2 0 00-1.805-1.981.353.353 0 01-.307-.446l.032-.118a.351.351 0 01.227-.238 1.583 1.583 0 10-1.075-2.974.41.41 0 01-.129.023h-.002a.348.348 0 01-.243-.098h-.001zm-7.32 7.116V7.877c0-1.119.669-2.08 1.647-2.486a2.287 2.287 0 011.412-4.083c.272 0 .531.046.79.141a.352.352 0 01.157.597c-.069.065-.16.082-.245.097-.041.008-.087-.008-.129-.023a1.583 1.583 0 10-1.075 2.974.351.351 0 01.227.238l.032.118a.352.352 0 01-.307.445A2 2 0 007.04 7.877v1.286c0 .064.053.118.117.118h.727a.352.352 0 010 .704h-.727a.822.822 0 01-.82-.821h-.001zm8.723.938V8.814c0-1.12-.685-2.08-1.657-2.489.533-.42.883-1.063.883-1.791A2.29 2.29 0 0012 2.247a2.29 2.29 0 00-2.287 2.287c0 .73.35 1.373.884 1.791A2.702 2.702 0 008.94 8.814V10.1c0 .452.368.82.82.82h4.479c.452 0 .82-.368.82-.82h.001zM12 2.95c.873 0 1.583.71 1.583 1.583 0 .872-.71 1.582-1.583 1.582s-1.583-.71-1.583-1.582c0-.873.71-1.583 1.583-1.583zm2.357 7.15a.118.118 0 01-.118.117H9.76a.118.118 0 01-.117-.117V8.814c0-1.1.894-1.995 1.994-1.995h.725c1.1 0 1.995.895 1.995 1.995V10.1z" fill="url(#RgmQYuIU7SDja)" stroke="url(#RgmQYuIU7SDjb)" stroke-width=".5"/>
  <defs>
    <linearGradient id="RgmQYuIU7SDja" x1="2.399" y1="12.218" x2="21.601" y2="12.218" gradientUnits="userSpaceOnUse">
      <stop stop-color="#FF8965"/>
      <stop offset="1" stop-color="#FF6757"/>
    </linearGradient>
    <linearGradient id="RgmQYuIU7SDjb" x1="2.399" y1="12.218" x2="21.601" y2="12.218" gradientUnits="userSpaceOnUse">
      <stop stop-color="#FF8965"/>
      <stop offset="1" stop-color="#FF6757"/>
    </linearGradient>
  </defs>
</svg>
