<svg fill="none" xmlns="http://www.w3.org/2000/svg" viewBox="0 0 64 64">
  <mask id="0FRrtX7D1HJwc" maskUnits="userSpaceOnUse" x="4.818" y="15.563" width="54" height="39" fill="#000">
    <path fill="#fff" d="M4.818 15.563h54v39h-54z"/>
    <path fill-rule="evenodd" clip-rule="evenodd" d="M35.47 22.5a16.49 16.49 0 00-1.371-1.124l-2.945 1.971a.792.792 0 01-.84.026 12.81 12.81 0 00-1.142-.539h-.003a13.16 13.16 0 00-1.219-.434.795.795 0 01-.555-.64l-.681-3.443a15.87 15.87 0 00-2.469-.17c-.88.009-1.758.082-2.627.22l-.704 3.474a.789.789 0 01-.547.601c-.448.136-.873.284-1.264.444-.392.16-.775.34-1.148.54a.79.79 0 01-.821-.048l-2.892-1.996a16.27 16.27 0 00-1.907 1.65 17.336 17.336 0 00-1.688 1.978l1.973 2.904a.79.79 0 01.043.815c-.207.387-.412.791-.598 1.206-.178.395-.332.8-.46 1.215a.794.794 0 01-.652.556l-3.357.651a17.23 17.23 0 00-.007 5.141l3.47.626a.79.79 0 01.617.55h.003c.129.428.273.854.432 1.26.156.404.337.798.54 1.181a.79.79 0 01-.043.815l-1.95 2.893a17.026 17.026 0 001.665 1.951 16.363 16.363 0 001.909 1.646l2.962-1.978a.79.79 0 01.842-.024c.364.194.746.373 1.145.538l.038.017c.373.154.767.293 1.181.418a.793.793 0 01.555.64l.682 3.444a16.444 16.444 0 005.04.004l.73-3.49a.791.791 0 01.546-.597 13.073 13.073 0 002.395-.988.79.79 0 01.814.041l2.945 1.97a16.01 16.01 0 001.884-1.625c.6-.61 1.152-1.264 1.653-1.957l-1.93-2.968a.79.79 0 01-.018-.832c.19-.36.36-.732.508-1.113.151-.385.288-.791.417-1.221a.793.793 0 01.672-.56l3.457-.701c.207-1.348.249-2.715.124-4.073l-5.26-.023a4.007 4.007 0 01-1.016-7.93 3.977 3.977 0 01.873-2.915v.002zm14.424 9.326l-3.903-.017c-.024 0-.049-.004-.074-.004-.025 0-.045 0-.067.003l-4.23-.018h-.065l-6.023-.025a2.429 2.429 0 01-1.283-4.568 2.463 2.463 0 011.284-.271.791.791 0 00.78-1.08 2.397 2.397 0 014.022-2.443.79.79 0 001.376-.54 3.87 3.87 0 017.482-1.44 3.84 3.84 0 01.184 2.116.794.794 0 001.203.82 3.977 3.977 0 014.513 6.532 4.322 4.322 0 01-2.25.95l-2.807-.015c-.024 0-.05-.004-.074-.004a.65.65 0 00-.066.003h-.002zm.86 1.584v4.538l.107.063a2.236 2.236 0 11-.766 1.384l-.472-.278a.793.793 0 01-.456-.717v-4.997l-2.456-.01v8.773l.067.04a2.242 2.242 0 11-.788 1.372l-.412-.242a.793.793 0 01-.455-.718v-9.232l-2.66-.012a18.38 18.38 0 01-.245 4.875.791.791 0 01-.623.632l-3.596.73c-.097.296-.202.59-.318.887-.116.296-.246.592-.39.89l1.952 3a.793.793 0 01.012.91 18.75 18.75 0 01-2.153 2.606 17.628 17.628 0 01-2.542 2.125.793.793 0 01-.886.003l-3.012-2.016c-.295.147-.59.281-.884.403h-.004a16.13 16.13 0 01-.914.346l-.747 3.563a.792.792 0 01-.633.618 18.08 18.08 0 01-6.607.004.794.794 0 01-.689-.636l-.702-3.55a14.766 14.766 0 01-.869-.326l-.043-.017c-.294-.122-.59-.256-.884-.402l-2.997 2a.793.793 0 01-.918.017 17.942 17.942 0 01-2.57-2.144 18.653 18.653 0 01-2.136-2.575.793.793 0 01-.028-.925l2-2.967c-.147-.303-.28-.61-.401-.92a17.74 17.74 0 01-.33-.913l-3.512-.634a.791.791 0 01-.67-.64 18.75 18.75 0 01-.002-6.733.791.791 0 01.637-.679l3.481-.676c.112-.313.242-.628.382-.942.133-.298.277-.593.425-.881l-1.981-2.923a.792.792 0 01-.031-.936 19.079 19.079 0 012.18-2.635 17.934 17.934 0 012.574-2.152.792.792 0 01.896 0l2.961 2.048a15.626 15.626 0 011.811-.74l.712-3.511a.792.792 0 01.64-.658 19.607 19.607 0 013.424-.336c1.087-.011 2.172.08 3.242.273a.793.793 0 01.688.636l.703 3.55c.305.102.608.217.91.343.3.123.594.257.885.401l2.978-1.985a.792.792 0 01.92-.019c.459.315.91.657 1.354 1.027.271.228.536.46.794.698a3.97 3.97 0 013.6-.052 5.485 5.485 0 012.817-3.501 5.46 5.46 0 017.897 4.516 5.558 5.558 0 015.07 9.67 5.905 5.905 0 01-3.131 1.294.72.72 0 01-.106.003l-2.1-.008zm-2.55 9.871a.656.656 0 10.005 1.312.656.656 0 00-.004-1.312zm4.573-4.024a.656.656 0 10-.926.929.656.656 0 00.926-.929zm-23.123-4.363a5.48 5.48 0 11-10.962.002 5.48 5.48 0 0110.962-.002zm-.483-4.997a7.067 7.067 0 11-9.994 9.991 7.067 7.067 0 019.994-9.99v-.001z"/>
  </mask>
  <path fill-rule="evenodd" clip-rule="evenodd" d="M35.47 22.5a16.49 16.49 0 00-1.371-1.124l-2.945 1.971a.792.792 0 01-.84.026 12.81 12.81 0 00-1.142-.539h-.003a13.16 13.16 0 00-1.219-.434.795.795 0 01-.555-.64l-.681-3.443a15.87 15.87 0 00-2.469-.17c-.88.009-1.758.082-2.627.22l-.704 3.474a.789.789 0 01-.547.601c-.448.136-.873.284-1.264.444-.392.16-.775.34-1.148.54a.79.79 0 01-.821-.048l-2.892-1.996a16.27 16.27 0 00-1.907 1.65 17.336 17.336 0 00-1.688 1.978l1.973 2.904a.79.79 0 01.043.815c-.207.387-.412.791-.598 1.206-.178.395-.332.8-.46 1.215a.794.794 0 01-.652.556l-3.357.651a17.23 17.23 0 00-.007 5.141l3.47.626a.79.79 0 01.617.55h.003c.129.428.273.854.432 1.26.156.404.337.798.54 1.181a.79.79 0 01-.043.815l-1.95 2.893a17.026 17.026 0 001.665 1.951 16.363 16.363 0 001.909 1.646l2.962-1.978a.79.79 0 01.842-.024c.364.194.746.373 1.145.538l.038.017c.373.154.767.293 1.181.418a.793.793 0 01.555.64l.682 3.444a16.444 16.444 0 005.04.004l.73-3.49a.791.791 0 01.546-.597 13.073 13.073 0 002.395-.988.79.79 0 01.814.041l2.945 1.97a16.01 16.01 0 001.884-1.625c.6-.61 1.152-1.264 1.653-1.957l-1.93-2.968a.79.79 0 01-.018-.832c.19-.36.36-.732.508-1.113.151-.385.288-.791.417-1.221a.793.793 0 01.672-.56l3.457-.701c.207-1.348.249-2.715.124-4.073l-5.26-.023a4.007 4.007 0 01-1.016-7.93 3.977 3.977 0 01.873-2.915v.002zm14.424 9.326l-3.903-.017c-.024 0-.049-.004-.074-.004-.025 0-.045 0-.067.003l-4.23-.018h-.065l-6.023-.025a2.429 2.429 0 01-1.283-4.568 2.463 2.463 0 011.284-.271.791.791 0 00.78-1.08 2.397 2.397 0 014.022-2.443.79.79 0 001.376-.54 3.87 3.87 0 017.482-1.44 3.84 3.84 0 01.184 2.116.794.794 0 001.203.82 3.977 3.977 0 014.513 6.532 4.322 4.322 0 01-2.25.95l-2.807-.015c-.024 0-.05-.004-.074-.004a.65.65 0 00-.066.003h-.002zm.86 1.584v4.538l.107.063a2.236 2.236 0 11-.766 1.384l-.472-.278a.793.793 0 01-.456-.717v-4.997l-2.456-.01v8.773l.067.04a2.242 2.242 0 11-.788 1.372l-.412-.242a.793.793 0 01-.455-.718v-9.232l-2.66-.012a18.38 18.38 0 01-.245 4.875.791.791 0 01-.623.632l-3.596.73c-.097.296-.202.59-.318.887-.116.296-.246.592-.39.89l1.952 3a.793.793 0 01.012.91 18.75 18.75 0 01-2.153 2.606 17.628 17.628 0 01-2.542 2.125.793.793 0 01-.886.003l-3.012-2.016c-.295.147-.59.281-.884.403h-.004a16.13 16.13 0 01-.914.346l-.747 3.563a.792.792 0 01-.633.618 18.08 18.08 0 01-6.607.004.794.794 0 01-.689-.636l-.702-3.55a14.766 14.766 0 01-.869-.326l-.043-.017c-.294-.122-.59-.256-.884-.402l-2.997 2a.793.793 0 01-.918.017 17.942 17.942 0 01-2.57-2.144 18.653 18.653 0 01-2.136-2.575.793.793 0 01-.028-.925l2-2.967c-.147-.303-.28-.61-.401-.92a17.74 17.74 0 01-.33-.913l-3.512-.634a.791.791 0 01-.67-.64 18.75 18.75 0 01-.002-6.733.791.791 0 01.637-.679l3.481-.676c.112-.313.242-.628.382-.942.133-.298.277-.593.425-.881l-1.981-2.923a.792.792 0 01-.031-.936 19.079 19.079 0 012.18-2.635 17.934 17.934 0 012.574-2.152.792.792 0 01.896 0l2.961 2.048a15.626 15.626 0 011.811-.74l.712-3.511a.792.792 0 01.64-.658 19.607 19.607 0 013.424-.336c1.087-.011 2.172.08 3.242.273a.793.793 0 01.688.636l.703 3.55c.305.102.608.217.91.343.3.123.594.257.885.401l2.978-1.985a.792.792 0 01.92-.019c.459.315.91.657 1.354 1.027.271.228.536.46.794.698a3.97 3.97 0 013.6-.052 5.485 5.485 0 012.817-3.501 5.46 5.46 0 017.897 4.516 5.558 5.558 0 015.07 9.67 5.905 5.905 0 01-3.131 1.294.72.72 0 01-.106.003l-2.1-.008zm-2.55 9.871a.656.656 0 10.005 1.312.656.656 0 00-.004-1.312zm4.573-4.024a.656.656 0 10-.926.929.656.656 0 00.926-.929zm-23.123-4.363a5.48 5.48 0 11-10.962.002 5.48 5.48 0 0110.962-.002zm-.483-4.997a7.067 7.067 0 11-9.994 9.991 7.067 7.067 0 019.994-9.99v-.001z" fill="url(#0FRrtX7D1HJwa)"/>
  <path clip-rule="evenodd" d="M35.47 22.5a16.49 16.49 0 00-1.371-1.124l-2.945 1.971a.792.792 0 01-.84.026 12.81 12.81 0 00-1.142-.539h-.003a13.16 13.16 0 00-1.219-.434.795.795 0 01-.555-.64l-.681-3.443a15.87 15.87 0 00-2.469-.17c-.88.009-1.758.082-2.627.22l-.704 3.474a.789.789 0 01-.547.601c-.448.136-.873.284-1.264.444-.392.16-.775.34-1.148.54a.79.79 0 01-.821-.048l-2.892-1.996a16.27 16.27 0 00-1.907 1.65 17.336 17.336 0 00-1.688 1.978l1.973 2.904a.79.79 0 01.043.815c-.207.387-.412.791-.598 1.206-.178.395-.332.8-.46 1.215a.794.794 0 01-.652.556l-3.357.651a17.23 17.23 0 00-.007 5.141l3.47.626a.79.79 0 01.617.55h.003c.129.428.273.854.432 1.26.156.404.337.798.54 1.181a.79.79 0 01-.043.815l-1.95 2.893a17.026 17.026 0 001.665 1.951 16.363 16.363 0 001.909 1.646l2.962-1.978a.79.79 0 01.842-.024c.364.194.746.373 1.145.538l.038.017c.373.154.767.293 1.181.418a.793.793 0 01.555.64l.682 3.444a16.444 16.444 0 005.04.004l.73-3.49a.791.791 0 01.546-.597 13.073 13.073 0 002.395-.988.79.79 0 01.814.041l2.945 1.97a16.01 16.01 0 001.884-1.625c.6-.61 1.152-1.264 1.653-1.957l-1.93-2.968a.79.79 0 01-.018-.832c.19-.36.36-.732.508-1.113.151-.385.288-.791.417-1.221a.793.793 0 01.672-.56l3.457-.701c.207-1.348.249-2.715.124-4.073l-5.26-.023a4.007 4.007 0 01-1.016-7.93 3.977 3.977 0 01.873-2.915v.002zm14.424 9.326l-3.903-.017c-.024 0-.049-.004-.074-.004-.025 0-.045 0-.067.003l-4.23-.018h-.065l-6.023-.025a2.429 2.429 0 01-1.283-4.568 2.463 2.463 0 011.284-.271.791.791 0 00.78-1.08 2.397 2.397 0 014.022-2.443.79.79 0 001.376-.54 3.87 3.87 0 017.482-1.44 3.84 3.84 0 01.184 2.116.794.794 0 001.203.82 3.977 3.977 0 014.513 6.532 4.322 4.322 0 01-2.25.95l-2.807-.015c-.024 0-.05-.004-.074-.004a.65.65 0 00-.066.003h-.002zm.86 1.584v4.538l.107.063a2.236 2.236 0 11-.766 1.384l-.472-.278a.793.793 0 01-.456-.717v-4.997l-2.456-.01v8.773l.067.04a2.242 2.242 0 11-.788 1.372l-.412-.242a.793.793 0 01-.455-.718v-9.232l-2.66-.012a18.38 18.38 0 01-.245 4.875.791.791 0 01-.623.632l-3.596.73c-.097.296-.202.59-.318.887-.116.296-.246.592-.39.89l1.952 3a.793.793 0 01.012.91 18.75 18.75 0 01-2.153 2.606 17.628 17.628 0 01-2.542 2.125.793.793 0 01-.886.003l-3.012-2.016c-.295.147-.59.281-.884.403h-.004a16.13 16.13 0 01-.914.346l-.747 3.563a.792.792 0 01-.633.618 18.08 18.08 0 01-6.607.004.794.794 0 01-.689-.636l-.702-3.55a14.766 14.766 0 01-.869-.326l-.043-.017c-.294-.122-.59-.256-.884-.402l-2.997 2a.793.793 0 01-.918.017 17.942 17.942 0 01-2.57-2.144 18.653 18.653 0 01-2.136-2.575.793.793 0 01-.028-.925l2-2.967c-.147-.303-.28-.61-.401-.92a17.74 17.74 0 01-.33-.913l-3.512-.634a.791.791 0 01-.67-.64 18.75 18.75 0 01-.002-6.733.791.791 0 01.637-.679l3.481-.676c.112-.313.242-.628.382-.942.133-.298.277-.593.425-.881l-1.981-2.923a.792.792 0 01-.031-.936 19.079 19.079 0 012.18-2.635 17.934 17.934 0 012.574-2.152.792.792 0 01.896 0l2.961 2.048a15.626 15.626 0 011.811-.74l.712-3.511a.792.792 0 01.64-.658 19.607 19.607 0 013.424-.336c1.087-.011 2.172.08 3.242.273a.793.793 0 01.688.636l.703 3.55c.305.102.608.217.91.343.3.123.594.257.885.401l2.978-1.985a.792.792 0 01.92-.019c.459.315.91.657 1.354 1.027.271.228.536.46.794.698a3.97 3.97 0 013.6-.052 5.485 5.485 0 012.817-3.501 5.46 5.46 0 017.897 4.516 5.558 5.558 0 015.07 9.67 5.905 5.905 0 01-3.131 1.294.72.72 0 01-.106.003l-2.1-.008zm-2.55 9.871a.656.656 0 10.005 1.312.656.656 0 00-.004-1.312zm4.573-4.024a.656.656 0 10-.926.929.656.656 0 00.926-.929zm-23.123-4.363a5.48 5.48 0 11-10.962.002 5.48 5.48 0 0110.962-.002zm-.483-4.997a7.067 7.067 0 11-9.994 9.991 7.067 7.067 0 019.994-9.99v-.001z" stroke="url(#0FRrtX7D1HJwb)" stroke-width="1.024" mask="url(#0FRrtX7D1HJwc)"/>
  <defs>
    <linearGradient id="0FRrtX7D1HJwa" x1="5.818" y1="34.907" x2="58.191" y2="34.907" gradientUnits="userSpaceOnUse">
      <stop stop-color="#FF8965"/>
      <stop offset="1" stop-color="#FF6757"/>
    </linearGradient>
    <linearGradient id="0FRrtX7D1HJwb" x1="5.818" y1="34.907" x2="58.191" y2="34.907" gradientUnits="userSpaceOnUse">
      <stop stop-color="#FF8965"/>
      <stop offset="1" stop-color="#FF6757"/>
    </linearGradient>
  </defs>
</svg>
