<svg fill="none" xmlns="http://www.w3.org/2000/svg" viewBox="0 0 80 80">
  <path d="M48.377 27.712c-2.257-.832-5.224-1.296-8.377-1.296-3.151 0-6.127.456-8.375 1.296-3.256 1.208-3.945 2.76-3.945 3.856v16.864c0 1.096.689 2.648 3.945 3.856 2.255.832 5.224 1.296 8.376 1.296 3.152 0 6.128-.456 8.376-1.296 3.255-1.208 3.944-2.76 3.944-3.856V31.568c0-1.096-.68-2.648-3.944-3.856zM40 28.28c6.385 0 10.465 1.952 10.465 3.288 0 1.344-4.073 3.288-10.465 3.288-6.383 0-10.463-1.952-10.463-3.288 0-1.344 4.08-3.288 10.464-3.288zm0 23.44c-6.383 0-10.463-1.952-10.463-3.288V42.84c.536.352 1.216.696 2.08 1.016 2.256.832 5.223 1.296 8.375 1.296 3.153 0 6.129-.456 8.377-1.296.864-.32 1.544-.664 2.08-1.016v5.592c.016 1.344-4.064 3.288-10.448 3.288zm0-8.432c-6.383 0-10.463-1.952-10.463-3.288v-5.592c.536.352 1.216.696 2.08 1.016 2.256.832 5.223 1.296 8.375 1.296 3.153 0 6.129-.456 8.377-1.296.864-.32 1.544-.664 2.08-1.016V40c.016 1.344-4.064 3.288-10.448 3.288zm33.784 10.728c.384-4.144-1.232-9.04-4.616-14.016 3.376-4.976 4.992-9.872 4.616-14.016a4.765 4.765 0 002.504-4.192 4.766 4.766 0 00-4.76-4.76c-.92 0-1.776.264-2.496.712-3.4-2.4-8.455-3.456-14.463-3.016-.145-.296-.297-.6-.44-.888C50.393 6.632 45.377 2.664 40 2.664c-5.377 0-10.392 3.968-14.12 11.184-.152.296-.297.592-.44.888-6.008-.44-11.064.608-14.464 3.016a4.755 4.755 0 00-2.497-.712 4.766 4.766 0 00-4.76 4.76 4.774 4.774 0 002.504 4.192C5.832 30.128 7.449 35.024 10.832 40c-3.376 4.976-4.992 9.872-4.616 14.016a4.774 4.774 0 00-2.504 4.192 4.766 4.766 0 004.76 4.76c.912 0 1.769-.264 2.497-.712 2.896 2.048 6.984 3.112 11.848 3.112.848 0 1.727-.032 2.623-.096.144.296.296.6.44.888 3.73 7.208 8.744 11.176 14.12 11.176 5.377 0 10.392-3.976 14.12-11.184.153-.296.297-.592.44-.888a36.78 36.78 0 002.624.096c4.857 0 8.953-1.064 11.849-3.112a4.755 4.755 0 002.495.712 4.766 4.766 0 004.76-4.76 4.752 4.752 0 00-2.504-4.184zm.648-32.224a2.895 2.895 0 11-5.791 0c0-1.6 1.295-2.896 2.895-2.896a2.906 2.906 0 012.897 2.896zm-6.784-2.736a4.708 4.708 0 00-.871 2.744 4.766 4.766 0 004.76 4.76c.143 0 .287-.008.431-.024.216 3.592-1.216 7.704-3.936 11.864-2.431-3.232-5.543-6.392-9.12-9.296-.727-4.552-1.911-8.816-3.52-12.56 4.968-.296 9.256.52 12.256 2.512zm-18.703 36.44A67.86 67.86 0 0140 59.832a67.379 67.379 0 01-8.944-4.336 67.85 67.85 0 01-8.224-5.576 67.763 67.763 0 01-.72-9.912c0-3.4.247-6.728.72-9.912a67.556 67.556 0 018.224-5.576A67.86 67.86 0 0140 20.184a67.379 67.379 0 018.944 4.336 68.483 68.483 0 018.224 5.576c.472 3.184.72 6.512.72 9.912 0 3.4-.248 6.728-.72 9.912a68.785 68.785 0 01-8.224 5.576zm7.767-2.888c-.752 3.88-1.856 7.496-3.288 10.696-3.407-.376-7.087-1.224-10.864-2.528a70.172 70.172 0 007.313-3.672 71.56 71.56 0 006.84-4.496zM37.44 60.776c-3.776 1.304-7.455 2.152-10.863 2.528-1.425-3.2-2.529-6.816-3.289-10.696a68.629 68.629 0 006.84 4.496 71.782 71.782 0 007.313 3.672zM20.72 48.16c-3.023-2.624-5.6-5.392-7.631-8.16 2.031-2.768 4.607-5.536 7.632-8.16a69.891 69.891 0 00-.473 8.16c0 2.776.16 5.512.473 8.16zm2.569-20.768c.752-3.88 1.855-7.496 3.287-10.696 3.409.376 7.088 1.224 10.864 2.528a70.172 70.172 0 00-7.311 3.672 71.56 71.56 0 00-6.84 4.496zm19.271-8.168c3.776-1.304 7.456-2.152 10.864-2.528 1.425 3.2 2.529 6.816 3.288 10.696a68.629 68.629 0 00-6.84-4.496 70.172 70.172 0 00-7.312-3.672zm16.72 12.608c3.024 2.624 5.6 5.392 7.632 8.16-2.032 2.768-4.608 5.536-7.632 8.168.313-2.648.472-5.384.472-8.16s-.16-5.512-.471-8.168zM40 4.52c4.648 0 9.08 3.616 12.472 10.184.04.08.08.152.12.232-4.008.496-8.288 1.608-12.584 3.248-4.296-1.64-8.576-2.752-12.584-3.248.04-.08.08-.152.12-.232C30.921 8.136 35.352 4.52 40.002 4.52zM8.474 18.896a2.895 2.895 0 110 5.792 2.895 2.895 0 110-5.792zm-.433 7.632c.145.016.289.024.433.024a4.766 4.766 0 004.76-4.76 4.765 4.765 0 00-.873-2.744c3-1.984 7.288-2.8 12.265-2.52-1.6 3.752-2.785 8.008-3.52 12.56-3.576 2.904-6.689 6.064-9.12 9.296-2.736-4.152-4.168-8.264-3.944-11.856zM5.57 58.2a2.895 2.895 0 115.792 0c0 1.6-1.296 2.896-2.897 2.896A2.895 2.895 0 015.568 58.2zm6.783 2.744c.553-.776.873-1.72.873-2.744a4.766 4.766 0 00-4.76-4.76c-.145 0-.288.008-.432.024-.216-3.592 1.216-7.704 3.944-11.864 2.431 3.232 5.543 6.392 9.12 9.296.727 4.552 1.912 8.816 3.52 12.56-4.977.288-9.265-.52-12.265-2.512zM40.002 75.48c-4.648 0-9.08-3.616-12.472-10.184-.04-.08-.08-.152-.12-.232 4.008-.496 8.288-1.608 12.584-3.248 4.295 1.64 8.575 2.752 12.584 3.248-.04.08-.08.152-.12.232C49.08 71.864 44.648 75.48 40 75.48zm15.384-12.016c1.6-3.752 2.784-8.008 3.52-12.56 3.575-2.904 6.688-6.064 9.12-9.296 2.727 4.16 4.16 8.272 3.935 11.864a3.909 3.909 0 00-.431-.024 4.766 4.766 0 00-4.76 4.76c0 1.024.328 1.968.871 2.744-2.992 1.984-7.28 2.792-12.255 2.512zm16.143-2.36a2.895 2.895 0 110-5.792 2.895 2.895 0 110 5.792z" fill="url(#h7NC762J0lMXa)" stroke="url(#h7NC762J0lMXb)" stroke-width="1.7"/>
  <defs>
    <linearGradient id="h7NC762J0lMXa" x1="3.712" y1="40" x2="76.288" y2="40" gradientUnits="userSpaceOnUse">
      <stop stop-color="#FF8965"/>
      <stop offset="1" stop-color="#FF6757"/>
    </linearGradient>
    <linearGradient id="h7NC762J0lMXb" x1="3.712" y1="40" x2="76.288" y2="40" gradientUnits="userSpaceOnUse">
      <stop stop-color="#FF8965"/>
      <stop offset="1" stop-color="#FF6757"/>
    </linearGradient>
  </defs>
</svg>
