<svg fill="none" xmlns="http://www.w3.org/2000/svg" viewBox="0 0 24 24">
  <path fill-rule="evenodd" clip-rule="evenodd" d="M8.809 14.842c1.564.06 2.49.624 2.817 1.713-1.401.236-2.309-.315-2.817-1.713zm2.464-2.183c-.022-.604.228-1.229.727-1.822.499.593.75 1.218.727 1.822a2.21 2.21 0 01-.42 1.188v-1.335a.308.308 0 00-.614 0v1.335a2.209 2.209 0 01-.42-1.188zm3.918 2.183c-.509 1.398-1.416 1.95-2.818 1.713.327-1.09 1.254-1.653 2.818-1.713zM12 19.136c.17 0 .307-.138.307-.308v-1.661c.222.035.435.052.64.052 1.462 0 2.477-.886 2.963-2.606a.307.307 0 00-.291-.39c-1.55-.02-2.66.364-3.311 1.151v-.595c.648-.612 1.005-1.335 1.034-2.097.031-.86-.356-1.73-1.122-2.517a.317.317 0 00-.44 0c-.765.787-1.153 1.657-1.121 2.517.028.762.385 1.485 1.034 2.098v.594c-.65-.786-1.758-1.169-3.311-1.152a.306.306 0 00-.291.391c.486 1.72 1.5 2.606 2.963 2.606.204 0 .417-.018.639-.052v1.661c0 .17.137.308.307.308zm10.76 2.404l-3.247.48H4.487l-3.247-.48v-.66h21.52v.66zm.307-1.275h-1.675V8.356a.307.307 0 00-.308-.307h-6.717a.307.307 0 000 .615h6.41v11.6H3.223v-11.6h6.41a.307.307 0 100-.615H2.916a.308.308 0 00-.308.307v11.909H.933a.307.307 0 00-.308.307v1.233c0 .154.112.283.262.305l3.533.521c.014.002.03.004.045.004h15.07c.016 0 .03-.002.046-.004l3.532-.521a.307.307 0 00.262-.305v-1.233a.308.308 0 00-.308-.307zM13.796 6.329a.307.307 0 11-.435.435 1.927 1.927 0 00-2.722 0 .308.308 0 01-.435-.435c.99-.99 2.601-.99 3.592 0zm1.058-1.058a.306.306 0 00.435 0 .308.308 0 000-.435 4.657 4.657 0 00-6.578 0 .308.308 0 00.435.435A4.01 4.01 0 0112 4.088a4.01 4.01 0 012.854 1.183zM7.219 3.778a.308.308 0 010-.435 6.77 6.77 0 019.563 0 .308.308 0 01-.435.435 6.154 6.154 0 00-8.694 0 .308.308 0 01-.434 0zm4.47 4.578a.311.311 0 11.622 0 .311.311 0 01-.621 0zm1.236 0a.926.926 0 01-1.85 0 .926.926 0 011.85 0z" fill="url(#l0m4p_9qwUPya)" stroke="url(#l0m4p_9qwUPyb)" stroke-width=".5"/>
  <defs>
    <linearGradient id="l0m4p_9qwUPya" x1=".625" y1="12" x2="23.375" y2="12" gradientUnits="userSpaceOnUse">
      <stop stop-color="#FF8965"/>
      <stop offset="1" stop-color="#FF6757"/>
    </linearGradient>
    <linearGradient id="l0m4p_9qwUPyb" x1=".625" y1="12" x2="23.375" y2="12" gradientUnits="userSpaceOnUse">
      <stop stop-color="#FF8965"/>
      <stop offset="1" stop-color="#FF6757"/>
    </linearGradient>
  </defs>
</svg>
