<svg fill="none" xmlns="http://www.w3.org/2000/svg" viewBox="0 0 24 24">
  <g clip-path="url(#GRr-ezvVVy2Ba)">
    <path d="M16.73 8.806a.278.278 0 01-.017-.396.278.278 0 01.396-.017 7.593 7.593 0 012.335 4.238.282.282 0 01-.228.327l-.048.002a.28.28 0 01-.276-.233 7.018 7.018 0 00-2.162-3.921zM14.67 20.44a6.958 6.958 0 01-2.67.528 6.958 6.958 0 01-2.672-.528.282.282 0 00-.367.151c-.06.144.01.307.151.367.917.38 1.889.571 2.887.571.999 0 1.97-.192 2.887-.57a.28.28 0 10-.216-.518zm-9.89-7.486a.28.28 0 00.326-.228A7.024 7.024 0 017.27 8.803a.278.278 0 00.017-.396.278.278 0 00-.396-.017 7.593 7.593 0 00-2.335 4.239.28.28 0 00.225.326zm2.448 6.178a3.967 3.967 0 011.229 2.697.96.96 0 01-.564.932 8.038 8.038 0 01-3.425.758 8.038 8.038 0 01-3.425-.758.96.96 0 01-.564-.932 3.967 3.967 0 011.23-2.697 3.972 3.972 0 012.76-1.114c1.031 0 2.01.396 2.76 1.114zm.667 2.724a3.425 3.425 0 00-3.427-3.274 3.425 3.425 0 00-3.427 3.274.405.405 0 00.24.396 7.502 7.502 0 003.187.705 7.502 7.502 0 003.187-.705.404.404 0 00.24-.396zm-5.51-6.178c0-1.15.936-2.085 2.086-2.085s2.085.936 2.085 2.085c0 1.15-.936 2.086-2.085 2.086a2.09 2.09 0 01-2.086-2.086zm.562 0c0 .84.684 1.522 1.521 1.522.838 0 1.522-.684 1.522-1.522 0-.84-.684-1.521-1.522-1.521-.837 0-1.521.681-1.521 1.521zm20.572 6.151a.96.96 0 01-.564.932 8.038 8.038 0 01-3.424.758 8.038 8.038 0 01-3.425-.758.96.96 0 01-.564-.932 3.967 3.967 0 011.228-2.697 3.972 3.972 0 012.76-1.114 3.97 3.97 0 012.76 1.114 3.988 3.988 0 011.23 2.697zm-.561.027a3.425 3.425 0 00-3.427-3.274 3.423 3.423 0 00-3.428 3.274.405.405 0 00.24.396 7.502 7.502 0 003.188.705 7.502 7.502 0 003.187-.705.407.407 0 00.24-.396zm-3.427-8.263c1.15 0 2.085.936 2.085 2.085 0 1.15-.936 2.086-2.085 2.086a2.088 2.088 0 01-2.086-2.086c0-1.15.936-2.085 2.085-2.085zm-1.524 2.085c0 .84.683 1.522 1.521 1.522.838 0 1.522-.684 1.522-1.522 0-.84-.684-1.521-1.522-1.521-.837 0-1.521.681-1.521 1.521zM8.01 8.717a3.967 3.967 0 011.228-2.698A3.972 3.972 0 0112 4.906c1.032 0 2.011.396 2.76 1.113a3.967 3.967 0 011.23 2.698.96.96 0 01-.565.931 8.038 8.038 0 01-3.425.758 8.038 8.038 0 01-3.424-.758.964.964 0 01-.564-.931zm.561.026a.405.405 0 00.24.396A7.502 7.502 0 0012 9.845a7.502 7.502 0 003.188-.706.405.405 0 00.24-.396A3.427 3.427 0 0012 5.467a3.427 3.427 0 00-3.427 3.276zm1.342-6.177c0-1.15.936-2.086 2.085-2.086 1.15 0 2.086.936 2.086 2.086s-.936 2.085-2.086 2.085a2.092 2.092 0 01-2.085-2.085zm.564 0c0 .84.684 1.521 1.521 1.521.84 0 1.522-.684 1.522-1.521 0-.84-.684-1.522-1.522-1.522a1.52 1.52 0 00-1.521 1.522zm5.059 15.456a.292.292 0 01-.11.021.272.272 0 01-.195-.079l-1.183-1.147h-2.44a1.41 1.41 0 01-1.357-1.037H9.95l-1.183 1.147a.276.276 0 01-.195.08.281.281 0 01-.28-.28v-.945h-.013a1.408 1.408 0 01-1.406-1.406V12.61c0-.776.631-1.407 1.406-1.407h4.111c.641 0 1.193.44 1.356 1.037h1.973c.775 0 1.407.631 1.407 1.406v1.767c0 .775-.632 1.406-1.407 1.406h-.012v.946a.28.28 0 01-.17.257zm-3.929-5.782h1.54a.852.852 0 00-.758-.475H8.28a.846.846 0 00-.845.845v1.766c0 .466.379.845.844.845h.293a.28.28 0 01.28.28v.562l.79-.763a.283.283 0 01.195-.08h.365v-1.574c0-.777.63-1.406 1.406-1.406zm4.111 4.015a.846.846 0 00.845-.845v-1.766a.846.846 0 00-.845-.845h-4.11a.846.846 0 00-.846.845v1.766c0 .466.38.845.845.845h2.554c.072 0 .144.029.194.08l.79.763v-.562a.28.28 0 01.28-.28h.293zm-.283-2.676H11.89a.28.28 0 00-.28.281c0 .156.124.28.28.28h3.547a.28.28 0 00.28-.28.28.28 0 00-.28-.28zm0 1.337H11.89a.28.28 0 00-.28.28.28.28 0 00.28.282h3.547a.28.28 0 00.28-.281.28.28 0 00-.28-.281z" fill="url(#GRr-ezvVVy2Bb)" stroke="url(#GRr-ezvVVy2Bc)" stroke-width=".5"/>
  </g>
  <defs>
    <linearGradient id="GRr-ezvVVy2Bb" x1=".478" y1="12" x2="23.52" y2="12" gradientUnits="userSpaceOnUse">
      <stop stop-color="#FF8965"/>
      <stop offset="1" stop-color="#FF6757"/>
    </linearGradient>
    <linearGradient id="GRr-ezvVVy2Bc" x1=".478" y1="12" x2="23.52" y2="12" gradientUnits="userSpaceOnUse">
      <stop stop-color="#FF8965"/>
      <stop offset="1" stop-color="#FF6757"/>
    </linearGradient>
    <clipPath id="GRr-ezvVVy2Ba">
      <path fill="#fff" d="M0 0h24v24H0z"/>
    </clipPath>
  </defs>
</svg>
