<svg fill="none" xmlns="http://www.w3.org/2000/svg" viewBox="0 0 24 24">
  <path d="M23.125 1h-2.25v.75h1.345l-2.17 2.169-1.258-.63a.374.374 0 00-.417.055l-3.159 2.808-.883-.59a.377.377 0 00-.395-.013l-.4.228C12.829 3.034 10.339 1 7.376 1A6.382 6.382 0 001 7.375c0 3.13 2.27 5.736 5.25 6.27v.855H5.5a.375.375 0 00-.375.375v1.5c0 .207.168.375.375.375v4.875c0 1.034.841 1.875 1.875 1.875a1.877 1.877 0 001.875-1.875V16.75a.375.375 0 00.375-.375v-1.5a.375.375 0 00-.375-.375H8.5v-.855c2.98-.534 5.25-3.14 5.25-6.27 0-.279-.024-.55-.059-.82l.419-.24.932.622a.377.377 0 00.457-.032l3.185-2.831 1.273.636a.375.375 0 00.433-.07l2.36-2.36v1.345h.75v-2.25A.375.375 0 0023.125 1zM8.5 21.625c0 .62-.505 1.125-1.125 1.125s-1.125-.505-1.125-1.125V16.75H8.5v4.875zM8.875 16h-3v-.75h3V16zM7.75 13.737v.763H7v-.763c.26.018.49.018.75 0zm.33-.786h-.002c-.096.012-.18.019-.266.027-.144.011-.29.022-.437.022a7.058 7.058 0 01-.704-.05h0A5.625 5.625 0 011.75 7.376 5.631 5.631 0 017.375 1.75 5.631 5.631 0 0113 7.375c0 2.863-2.151 5.228-4.92 5.576z" fill="url(#h45MfWH4kVMoa)" stroke="url(#h45MfWH4kVMob)" stroke-width=".5"/>
  <defs>
    <linearGradient id="h45MfWH4kVMoa" x1="1" y1="12.25" x2="23.5" y2="12.25" gradientUnits="userSpaceOnUse">
      <stop stop-color="#FF8965"/>
      <stop offset="1" stop-color="#FF6757"/>
    </linearGradient>
    <linearGradient id="h45MfWH4kVMob" x1="1" y1="12.25" x2="23.5" y2="12.25" gradientUnits="userSpaceOnUse">
      <stop stop-color="#FF8965"/>
      <stop offset="1" stop-color="#FF6757"/>
    </linearGradient>
  </defs>
</svg>
