<svg fill="none" xmlns="http://www.w3.org/2000/svg" viewBox="0 0 120 97">
  <path d="M19.478 17.015c2.667-4.009 6.04-7.346 10.104-10.03 4.063-2.685 8.561-4.572 13.477-5.678C47.975.2 53.126-.2 58.477.09c5.351.29 10.847 1.415 16.47 3.356 5.623 1.941 10.992 4.607 16.108 8 5.115 3.391 9.65 7.31 13.604 11.754 3.954 4.444 7.11 9.069 9.45 13.894 2.34 4.825 3.955 9.722 4.843 14.693.889 4.97.889 9.849-.018 14.638-.907 4.788-2.684 9.178-5.351 13.187-3.319 4.988-7.727 8.942-13.223 11.808-5.496 2.884-11.427 4.571-17.813 5.06-6.384.49-13.114-.217-20.224-2.14-7.11-1.922-13.858-5.006-20.243-9.25-6.24-4.154-11.627-9.07-16.144-14.747l-15.763.453c-5.695-.145-8.997-1.27-9.922-3.428-.925-2.14.708-5.37 4.861-9.686l9.632-9.687c-1.36-5.586-1.65-11.046-.87-16.36a35.101 35.101 0 015.586-14.639l.018.018z" fill="url(#912H6MvRYGBFa)"/>
  <defs>
    <linearGradient id="912H6MvRYGBFa" x1="8.122" y1="113.31" x2="87.028" y2="25.506" gradientUnits="userSpaceOnUse">
      <stop stop-color="#F24C27"/>
      <stop offset=".2" stop-color="#F3532C"/>
      <stop offset=".5" stop-color="#F6673B"/>
      <stop offset=".85" stop-color="#FC8953"/>
      <stop offset="1" stop-color="#FF995F"/>
    </linearGradient>
  </defs>
</svg>
