<svg fill="none" xmlns="http://www.w3.org/2000/svg" viewBox="0 0 136 113">
  <path d="M135.58 47.04c-.544-5.769-2.213-11.228-4.988-16.38-2.775-5.151-6.475-9.723-11.065-13.695-4.589-3.972-9.813-7.328-15.654-10.067-5.84-2.739-12.298-4.68-19.354-5.823C77.463-.067 70.244-.303 62.898.386c-7.347.69-14.403 2.268-21.114 4.716-6.73 2.449-12.697 5.569-17.94 9.342-5.242 3.773-9.722 8.053-13.495 12.806-3.773 4.752-6.53 9.94-8.308 15.509C.264 48.346-.353 54.023.191 59.79c.671 7.183 3.102 13.877 7.292 20.062 4.19 6.185 9.523 11.355 15.999 15.509 6.475 4.153 14.04 7.237 22.655 9.251 8.616 2.013 17.523 2.593 26.719 1.723 8.979-.853 17.486-2.993 25.503-6.458l16.452 9.451c6.113 3.083 10.267 3.773 12.462 2.013 2.195-1.741 2.322-6.095.363-13.024l-4.717-15.744c4.608-5.152 8.036-10.775 10.249-16.833 2.213-6.077 3.011-12.298 2.412-18.702z" fill="url(#9oG9N4iKSlbKa)"/>
  <defs>
    <linearGradient id="9oG9N4iKSlbKa" x1="92.826" y1="155.557" x2="59.167" y2="17.575" gradientUnits="userSpaceOnUse">
      <stop stop-color="#F24C27"/>
      <stop offset=".2" stop-color="#F3532C"/>
      <stop offset=".5" stop-color="#F6673B"/>
      <stop offset=".85" stop-color="#FC8953"/>
      <stop offset="1" stop-color="#FF995F"/>
    </linearGradient>
  </defs>
</svg>
