<svg fill="none" xmlns="http://www.w3.org/2000/svg" viewBox="0 0 36 19">
  <path d="M2.965 17.558c-1.102 0-1.693-.467-1.887-.985-.157-.424-.075-.914.234-1.387.293-.445.786-.87 1.43-1.233a343.65 343.65 0 005.171-2.99c2.946-1.722 5.992-3.506 9.08-5.143 3.513-1.862 6.54-3.242 9.255-4.215 1.818-.653 3.688-.783 5.266-.364.825.218 1.537.576 2.12 1.065a4.491 4.491 0 011.359 1.95 4.49 4.49 0 01.192 2.378c-.14.748-.466 1.482-.966 2.172-.958 1.323-2.49 2.413-4.317 3.07-5.28 1.897-13.1 3.266-19.382 4.366-2.43.425-4.722.826-6.526 1.2a4.903 4.903 0 01-1.03.116zM29.576 1.855c-.978 0-2.017.187-3.042.554-5.99 2.15-12.473 5.945-18.192 9.295-1.813 1.06-3.522 2.063-5.185 2.997-1.017.57-1.414 1.226-1.282 1.578.123.33.784.574 1.943.333 1.818-.375 4.117-.78 6.553-1.207 6.25-1.094 14.029-2.454 19.24-4.328 1.667-.6 3.057-1.581 3.914-2.767.614-.85 1.228-2.191.663-3.764-.562-1.568-1.885-2.215-2.897-2.482a6.783 6.783 0 00-1.715-.21z" fill="url(#2wDabeKkis6ma)" stroke="url(#2wDabeKkis6mb)"/>
  <defs>
    <linearGradient id="2wDabeKkis6ma" x1="1" y1="9.279" x2="35.264" y2="9.279" gradientUnits="userSpaceOnUse">
      <stop stop-color="#FF8965"/>
      <stop offset="1" stop-color="#FF6757"/>
    </linearGradient>
    <linearGradient id="2wDabeKkis6mb" x1="1" y1="9.279" x2="35.264" y2="9.279" gradientUnits="userSpaceOnUse">
      <stop stop-color="#FF8965"/>
      <stop offset="1" stop-color="#FF6757"/>
    </linearGradient>
  </defs>
</svg>
